M48
; DRILL file {KiCad (5.1.10-1-10_14)} date Wednesday, October 20, 2021 at 10:44:46 PM
; FORMAT={-:-/ absolute / inch / decimal}
; #@! TF.CreationDate,2021-10-20T22:44:46+08:00
; #@! TF.GenerationSoftware,Kicad,Pcbnew,(5.1.10-1-10_14)
; #@! TF.FileFunction,Plated,1,2,PTH
FMAT,2
INCH
T1C0.0100
T2C0.0197
%
G90
G05
T1
X-0.805Y-0.02
X-0.775Y0.015
X-0.585Y0.56
X-0.585Y-0.56
X-0.535Y0.555
X-0.535Y-0.56
X-0.46Y-0.68
X-0.43Y-0.75
X-0.385Y-0.72
X-0.02Y0.81
X-0.02Y-0.805
X0.02Y0.77
X0.025Y-0.78
X0.16Y-1.25
X0.525Y-0.56
X0.54Y0.56
X0.585Y0.56
X0.59Y-0.56
X0.77Y0.015
X0.81Y-0.02
T2
X-0.1181Y-1.1077
X-0.1181Y-1.3833
X-0.0709Y-1.1077
X-0.0709Y-1.3833
X-0.0236Y-1.1077
X-0.0236Y-1.3833
X0.0236Y-1.1077
X0.0236Y-1.3833
X0.0709Y-1.1077
X0.0709Y-1.3833
X0.1181Y-1.1077
X0.1181Y-1.3833
T2
G00X-0.1703Y-1.0852
M15
G01X-0.1703Y-1.1089
M16
G05
G00X-0.1703Y-1.3608
M15
G01X-0.1703Y-1.3844
M16
G05
G00X0.1703Y-1.0852
M15
G01X0.1703Y-1.1089
M16
G05
G00X0.1703Y-1.3608
M15
G01X0.1703Y-1.3844
M16
G05
T0
M30
