%TF.GenerationSoftware,KiCad,Pcbnew,(5.1.10-1-10_14)*%
%TF.CreationDate,2021-10-20T22:44:44+08:00*%
%TF.ProjectId,led-ring,6c65642d-7269-46e6-972e-6b696361645f,rev?*%
%TF.SameCoordinates,Original*%
%TF.FileFunction,Copper,L2,Bot*%
%TF.FilePolarity,Positive*%
%FSLAX46Y46*%
G04 Gerber Fmt 4.6, Leading zero omitted, Abs format (unit mm)*
G04 Created by KiCad (PCBNEW (5.1.10-1-10_14)) date 2021-10-20 22:44:44*
%MOMM*%
%LPD*%
G01*
G04 APERTURE LIST*
%TA.AperFunction,ComponentPad*%
%ADD10C,0.800000*%
%TD*%
%TA.AperFunction,ComponentPad*%
%ADD11O,0.800000X1.500000*%
%TD*%
%TA.AperFunction,ViaPad*%
%ADD12C,0.508000*%
%TD*%
%TA.AperFunction,Conductor*%
%ADD13C,0.254000*%
%TD*%
%TA.AperFunction,Conductor*%
%ADD14C,0.100000*%
%TD*%
G04 APERTURE END LIST*
D10*
%TO.P,U2,6*%
%TO.N,GND*%
X3000000Y-28135000D03*
%TO.P,U2,5*%
%TO.N,VBUS2*%
X1800000Y-28135000D03*
%TO.P,U2,4*%
%TO.N,N/C*%
X600000Y-28135000D03*
%TO.P,U2,3*%
X-600000Y-28135000D03*
%TO.P,U2,2*%
%TO.N,VBUS2*%
X-1800000Y-28135000D03*
%TO.P,U2,1*%
%TO.N,GND*%
X-3000000Y-28135000D03*
D11*
%TO.P,U2,7*%
X4325000Y-27865000D03*
X-4325000Y-27865000D03*
%TD*%
D10*
%TO.P,U1,6*%
%TO.N,GND*%
X3000000Y-35135000D03*
%TO.P,U1,5*%
%TO.N,VBUS1*%
X1800000Y-35135000D03*
%TO.P,U1,4*%
%TO.N,N/C*%
X600000Y-35135000D03*
%TO.P,U1,3*%
X-600000Y-35135000D03*
%TO.P,U1,2*%
%TO.N,VBUS1*%
X-1800000Y-35135000D03*
%TO.P,U1,1*%
%TO.N,GND*%
X-3000000Y-35135000D03*
D11*
%TO.P,U1,7*%
X4325000Y-34865000D03*
X-4325000Y-34865000D03*
%TD*%
D12*
%TO.N,GND*%
X635000Y-19812000D03*
X-508000Y-20447000D03*
X14986000Y-14224000D03*
X13335000Y-14224000D03*
X20574000Y-508000D03*
X19558000Y381000D03*
X14859000Y14224000D03*
X13716000Y14224000D03*
X508000Y19558000D03*
X-508000Y20574000D03*
X-13589000Y14097000D03*
X-14859000Y14224000D03*
X-19685000Y381000D03*
X-20447000Y-508000D03*
X-13589000Y-14224000D03*
X-14859000Y-14224000D03*
X-11684000Y-17272000D03*
X-10922000Y-19050000D03*
X-9779000Y-18287990D03*
X4064000Y-31750000D03*
%TD*%
D13*
%TO.N,GND*%
X2601626Y23194014D02*
X4453381Y22910657D01*
X6276451Y22479701D01*
X8059077Y21903928D01*
X9789796Y21187040D01*
X11457434Y20333666D01*
X13051265Y19349296D01*
X14561016Y18240274D01*
X15976967Y17013739D01*
X17289981Y15677605D01*
X18491619Y14240463D01*
X19574124Y12711587D01*
X20530532Y11100812D01*
X21354669Y9418539D01*
X22041241Y7675577D01*
X22585817Y5883165D01*
X22984888Y4052858D01*
X23235887Y2196435D01*
X23337193Y325874D01*
X23288156Y-1546800D01*
X23089090Y-3409494D01*
X22741281Y-5250232D01*
X22246963Y-7057152D01*
X21609327Y-8818602D01*
X20832483Y-10523234D01*
X19921417Y-12160093D01*
X18882023Y-13718600D01*
X17720992Y-15188721D01*
X16445785Y-16561007D01*
X15064639Y-17826593D01*
X13586439Y-18977340D01*
X12012041Y-20011526D01*
X11676797Y-20209000D01*
X11631550Y-20233185D01*
X11531052Y-20315662D01*
X11448575Y-20416161D01*
X11387290Y-20530818D01*
X11349550Y-20655228D01*
X11340000Y-20752192D01*
X11340001Y-40970597D01*
X11268827Y-41768083D01*
X11065344Y-42511890D01*
X10733363Y-43207904D01*
X10283374Y-43834130D01*
X9729597Y-44370777D01*
X9089549Y-44800871D01*
X8383447Y-45110829D01*
X7628543Y-45292065D01*
X6975793Y-45340000D01*
X-6970608Y-45340000D01*
X-7768083Y-45268827D01*
X-8511890Y-45065344D01*
X-9207904Y-44733363D01*
X-9834130Y-44283374D01*
X-10370777Y-43729597D01*
X-10800871Y-43089549D01*
X-11110829Y-42383447D01*
X-11292065Y-41628543D01*
X-11340000Y-40975793D01*
X-11340000Y-40393137D01*
X-3835000Y-40393137D01*
X-3835000Y-40606863D01*
X-3793304Y-40816483D01*
X-3711515Y-41013940D01*
X-3592775Y-41191647D01*
X-3441647Y-41342775D01*
X-3263940Y-41461515D01*
X-3066483Y-41543304D01*
X-2856863Y-41585000D01*
X-2643137Y-41585000D01*
X-2433517Y-41543304D01*
X-2236060Y-41461515D01*
X-2058353Y-41342775D01*
X-1907225Y-41191647D01*
X-1788485Y-41013940D01*
X-1706696Y-40816483D01*
X-1665000Y-40606863D01*
X-1665000Y-40393137D01*
X1665000Y-40393137D01*
X1665000Y-40606863D01*
X1706696Y-40816483D01*
X1788485Y-41013940D01*
X1907225Y-41191647D01*
X2058353Y-41342775D01*
X2236060Y-41461515D01*
X2433517Y-41543304D01*
X2643137Y-41585000D01*
X2856863Y-41585000D01*
X3066483Y-41543304D01*
X3263940Y-41461515D01*
X3441647Y-41342775D01*
X3592775Y-41191647D01*
X3711515Y-41013940D01*
X3793304Y-40816483D01*
X3835000Y-40606863D01*
X3835000Y-40393137D01*
X3793304Y-40183517D01*
X3711515Y-39986060D01*
X3592775Y-39808353D01*
X3441647Y-39657225D01*
X3263940Y-39538485D01*
X3066483Y-39456696D01*
X2856863Y-39415000D01*
X2643137Y-39415000D01*
X2433517Y-39456696D01*
X2236060Y-39538485D01*
X2058353Y-39657225D01*
X1907225Y-39808353D01*
X1788485Y-39986060D01*
X1706696Y-40183517D01*
X1665000Y-40393137D01*
X-1665000Y-40393137D01*
X-1706696Y-40183517D01*
X-1788485Y-39986060D01*
X-1907225Y-39808353D01*
X-2058353Y-39657225D01*
X-2236060Y-39538485D01*
X-2433517Y-39456696D01*
X-2643137Y-39415000D01*
X-2856863Y-39415000D01*
X-3066483Y-39456696D01*
X-3263940Y-39538485D01*
X-3441647Y-39657225D01*
X-3592775Y-39808353D01*
X-3711515Y-39986060D01*
X-3793304Y-40183517D01*
X-3835000Y-40393137D01*
X-11340000Y-40393137D01*
X-11340000Y-35033061D01*
X-2835000Y-35033061D01*
X-2835000Y-35236939D01*
X-2795226Y-35436898D01*
X-2717205Y-35625256D01*
X-2603937Y-35794774D01*
X-2459774Y-35938937D01*
X-2290256Y-36052205D01*
X-2101898Y-36130226D01*
X-1901939Y-36170000D01*
X-1698061Y-36170000D01*
X-1498102Y-36130226D01*
X-1309744Y-36052205D01*
X-1200000Y-35978877D01*
X-1090256Y-36052205D01*
X-901898Y-36130226D01*
X-701939Y-36170000D01*
X-498061Y-36170000D01*
X-298102Y-36130226D01*
X-109744Y-36052205D01*
X0Y-35978877D01*
X109744Y-36052205D01*
X298102Y-36130226D01*
X498061Y-36170000D01*
X701939Y-36170000D01*
X901898Y-36130226D01*
X1090256Y-36052205D01*
X1200000Y-35978877D01*
X1309744Y-36052205D01*
X1498102Y-36130226D01*
X1698061Y-36170000D01*
X1901939Y-36170000D01*
X2101898Y-36130226D01*
X2290256Y-36052205D01*
X2459774Y-35938937D01*
X2603937Y-35794774D01*
X2717205Y-35625256D01*
X2795226Y-35436898D01*
X2835000Y-35236939D01*
X2835000Y-35033061D01*
X2795226Y-34833102D01*
X2717205Y-34644744D01*
X2603937Y-34475226D01*
X2459774Y-34331063D01*
X2290256Y-34217795D01*
X2101898Y-34139774D01*
X1901939Y-34100000D01*
X1698061Y-34100000D01*
X1498102Y-34139774D01*
X1309744Y-34217795D01*
X1200000Y-34291123D01*
X1090256Y-34217795D01*
X901898Y-34139774D01*
X701939Y-34100000D01*
X498061Y-34100000D01*
X298102Y-34139774D01*
X109744Y-34217795D01*
X0Y-34291123D01*
X-109744Y-34217795D01*
X-298102Y-34139774D01*
X-498061Y-34100000D01*
X-701939Y-34100000D01*
X-901898Y-34139774D01*
X-1090256Y-34217795D01*
X-1200000Y-34291123D01*
X-1309744Y-34217795D01*
X-1498102Y-34139774D01*
X-1698061Y-34100000D01*
X-1901939Y-34100000D01*
X-2101898Y-34139774D01*
X-2290256Y-34217795D01*
X-2459774Y-34331063D01*
X-2603937Y-34475226D01*
X-2717205Y-34644744D01*
X-2795226Y-34833102D01*
X-2835000Y-35033061D01*
X-11340000Y-35033061D01*
X-11340000Y-28033061D01*
X-2835000Y-28033061D01*
X-2835000Y-28236939D01*
X-2795226Y-28436898D01*
X-2717205Y-28625256D01*
X-2603937Y-28794774D01*
X-2459774Y-28938937D01*
X-2290256Y-29052205D01*
X-2101898Y-29130226D01*
X-1901939Y-29170000D01*
X-1698061Y-29170000D01*
X-1498102Y-29130226D01*
X-1309744Y-29052205D01*
X-1200000Y-28978877D01*
X-1090256Y-29052205D01*
X-901898Y-29130226D01*
X-701939Y-29170000D01*
X-498061Y-29170000D01*
X-298102Y-29130226D01*
X-109744Y-29052205D01*
X0Y-28978877D01*
X109744Y-29052205D01*
X298102Y-29130226D01*
X498061Y-29170000D01*
X701939Y-29170000D01*
X901898Y-29130226D01*
X1090256Y-29052205D01*
X1200000Y-28978877D01*
X1309744Y-29052205D01*
X1498102Y-29130226D01*
X1698061Y-29170000D01*
X1901939Y-29170000D01*
X2101898Y-29130226D01*
X2290256Y-29052205D01*
X2459774Y-28938937D01*
X2603937Y-28794774D01*
X2717205Y-28625256D01*
X2795226Y-28436898D01*
X2835000Y-28236939D01*
X2835000Y-28033061D01*
X2795226Y-27833102D01*
X2717205Y-27644744D01*
X2603937Y-27475226D01*
X2459774Y-27331063D01*
X2290256Y-27217795D01*
X2101898Y-27139774D01*
X1901939Y-27100000D01*
X1698061Y-27100000D01*
X1498102Y-27139774D01*
X1309744Y-27217795D01*
X1200000Y-27291123D01*
X1090256Y-27217795D01*
X901898Y-27139774D01*
X701939Y-27100000D01*
X498061Y-27100000D01*
X298102Y-27139774D01*
X109744Y-27217795D01*
X0Y-27291123D01*
X-109744Y-27217795D01*
X-298102Y-27139774D01*
X-498061Y-27100000D01*
X-701939Y-27100000D01*
X-901898Y-27139774D01*
X-1090256Y-27217795D01*
X-1200000Y-27291123D01*
X-1309744Y-27217795D01*
X-1498102Y-27139774D01*
X-1698061Y-27100000D01*
X-1901939Y-27100000D01*
X-2101898Y-27139774D01*
X-2290256Y-27217795D01*
X-2459774Y-27331063D01*
X-2603937Y-27475226D01*
X-2717205Y-27644744D01*
X-2795226Y-27833102D01*
X-2835000Y-28033061D01*
X-11340000Y-28033061D01*
X-11340000Y-20752191D01*
X-11349550Y-20655227D01*
X-11387290Y-20530817D01*
X-11448575Y-20416160D01*
X-11531052Y-20315662D01*
X-11631551Y-20233185D01*
X-11667651Y-20213889D01*
X-13253170Y-19211565D01*
X-14751226Y-18086793D01*
X-16154259Y-16845495D01*
X-17453209Y-15495685D01*
X-18639721Y-14046052D01*
X-19706162Y-12505916D01*
X-20645652Y-10885212D01*
X-21452128Y-9194400D01*
X-22120413Y-7444335D01*
X-22646186Y-5646333D01*
X-23026069Y-3811942D01*
X-23257613Y-1952999D01*
X-23339326Y-81471D01*
X-23336339Y0D01*
X-18680000Y0D01*
X-18597920Y-1749223D01*
X-18352400Y-3483074D01*
X-17945599Y-5186315D01*
X-17381092Y-6843979D01*
X-16663839Y-8441498D01*
X-15800143Y-9964832D01*
X-14797595Y-11400596D01*
X-13665005Y-12736170D01*
X-12412327Y-13959819D01*
X-11050569Y-15060788D01*
X-9591698Y-16029402D01*
X-8048535Y-16857149D01*
X-6434641Y-17536756D01*
X-4764199Y-18062248D01*
X-3051889Y-18429009D01*
X-1312759Y-18633815D01*
X437907Y-18674866D01*
X2184725Y-18551802D01*
X3912344Y-18265705D01*
X5605581Y-17819087D01*
X7249556Y-17215875D01*
X8829821Y-16461369D01*
X10332490Y-15562199D01*
X11744356Y-14526269D01*
X13053013Y-13362681D01*
X14246959Y-12081662D01*
X15315703Y-10694468D01*
X16249851Y-9213292D01*
X17041195Y-7651148D01*
X17682781Y-6021766D01*
X18168969Y-4339464D01*
X18495489Y-2619027D01*
X18659469Y-875574D01*
X18659469Y875574D01*
X18495489Y2619027D01*
X18168969Y4339464D01*
X17682781Y6021766D01*
X17041195Y7651148D01*
X16249851Y9213292D01*
X15315703Y10694468D01*
X14246959Y12081662D01*
X13053013Y13362681D01*
X11744356Y14526269D01*
X10332490Y15562199D01*
X8829821Y16461369D01*
X7249556Y17215875D01*
X5605581Y17819087D01*
X3912344Y18265705D01*
X2184725Y18551802D01*
X437907Y18674866D01*
X-1312759Y18633815D01*
X-3051889Y18429009D01*
X-4764199Y18062248D01*
X-6434641Y17536756D01*
X-8048535Y16857149D01*
X-9591698Y16029402D01*
X-11050569Y15060788D01*
X-12412327Y13959819D01*
X-13665005Y12736170D01*
X-14797595Y11400596D01*
X-15800143Y9964832D01*
X-16663839Y8441498D01*
X-17381092Y6843979D01*
X-17945599Y5186315D01*
X-18352400Y3483074D01*
X-18597920Y1749223D01*
X-18680000Y0D01*
X-23336339Y0D01*
X-23270680Y1790580D01*
X-23052120Y3651098D01*
X-22685050Y5488101D01*
X-22171847Y7289720D01*
X-21515791Y9044419D01*
X-20721142Y10740813D01*
X-19792993Y12368032D01*
X-18737332Y13915573D01*
X-17560964Y15373461D01*
X-16271463Y16732312D01*
X-14877139Y17983367D01*
X-13386970Y19118572D01*
X-11810561Y20130609D01*
X-10158061Y21012962D01*
X-8440122Y21759943D01*
X-6667815Y22366740D01*
X-4852548Y22829446D01*
X-3006023Y23145077D01*
X-1140131Y23311604D01*
X733110Y23327952D01*
X2601626Y23194014D01*
%TA.AperFunction,Conductor*%
D14*
G36*
X2601626Y23194014D02*
G01*
X4453381Y22910657D01*
X6276451Y22479701D01*
X8059077Y21903928D01*
X9789796Y21187040D01*
X11457434Y20333666D01*
X13051265Y19349296D01*
X14561016Y18240274D01*
X15976967Y17013739D01*
X17289981Y15677605D01*
X18491619Y14240463D01*
X19574124Y12711587D01*
X20530532Y11100812D01*
X21354669Y9418539D01*
X22041241Y7675577D01*
X22585817Y5883165D01*
X22984888Y4052858D01*
X23235887Y2196435D01*
X23337193Y325874D01*
X23288156Y-1546800D01*
X23089090Y-3409494D01*
X22741281Y-5250232D01*
X22246963Y-7057152D01*
X21609327Y-8818602D01*
X20832483Y-10523234D01*
X19921417Y-12160093D01*
X18882023Y-13718600D01*
X17720992Y-15188721D01*
X16445785Y-16561007D01*
X15064639Y-17826593D01*
X13586439Y-18977340D01*
X12012041Y-20011526D01*
X11676797Y-20209000D01*
X11631550Y-20233185D01*
X11531052Y-20315662D01*
X11448575Y-20416161D01*
X11387290Y-20530818D01*
X11349550Y-20655228D01*
X11340000Y-20752192D01*
X11340001Y-40970597D01*
X11268827Y-41768083D01*
X11065344Y-42511890D01*
X10733363Y-43207904D01*
X10283374Y-43834130D01*
X9729597Y-44370777D01*
X9089549Y-44800871D01*
X8383447Y-45110829D01*
X7628543Y-45292065D01*
X6975793Y-45340000D01*
X-6970608Y-45340000D01*
X-7768083Y-45268827D01*
X-8511890Y-45065344D01*
X-9207904Y-44733363D01*
X-9834130Y-44283374D01*
X-10370777Y-43729597D01*
X-10800871Y-43089549D01*
X-11110829Y-42383447D01*
X-11292065Y-41628543D01*
X-11340000Y-40975793D01*
X-11340000Y-40393137D01*
X-3835000Y-40393137D01*
X-3835000Y-40606863D01*
X-3793304Y-40816483D01*
X-3711515Y-41013940D01*
X-3592775Y-41191647D01*
X-3441647Y-41342775D01*
X-3263940Y-41461515D01*
X-3066483Y-41543304D01*
X-2856863Y-41585000D01*
X-2643137Y-41585000D01*
X-2433517Y-41543304D01*
X-2236060Y-41461515D01*
X-2058353Y-41342775D01*
X-1907225Y-41191647D01*
X-1788485Y-41013940D01*
X-1706696Y-40816483D01*
X-1665000Y-40606863D01*
X-1665000Y-40393137D01*
X1665000Y-40393137D01*
X1665000Y-40606863D01*
X1706696Y-40816483D01*
X1788485Y-41013940D01*
X1907225Y-41191647D01*
X2058353Y-41342775D01*
X2236060Y-41461515D01*
X2433517Y-41543304D01*
X2643137Y-41585000D01*
X2856863Y-41585000D01*
X3066483Y-41543304D01*
X3263940Y-41461515D01*
X3441647Y-41342775D01*
X3592775Y-41191647D01*
X3711515Y-41013940D01*
X3793304Y-40816483D01*
X3835000Y-40606863D01*
X3835000Y-40393137D01*
X3793304Y-40183517D01*
X3711515Y-39986060D01*
X3592775Y-39808353D01*
X3441647Y-39657225D01*
X3263940Y-39538485D01*
X3066483Y-39456696D01*
X2856863Y-39415000D01*
X2643137Y-39415000D01*
X2433517Y-39456696D01*
X2236060Y-39538485D01*
X2058353Y-39657225D01*
X1907225Y-39808353D01*
X1788485Y-39986060D01*
X1706696Y-40183517D01*
X1665000Y-40393137D01*
X-1665000Y-40393137D01*
X-1706696Y-40183517D01*
X-1788485Y-39986060D01*
X-1907225Y-39808353D01*
X-2058353Y-39657225D01*
X-2236060Y-39538485D01*
X-2433517Y-39456696D01*
X-2643137Y-39415000D01*
X-2856863Y-39415000D01*
X-3066483Y-39456696D01*
X-3263940Y-39538485D01*
X-3441647Y-39657225D01*
X-3592775Y-39808353D01*
X-3711515Y-39986060D01*
X-3793304Y-40183517D01*
X-3835000Y-40393137D01*
X-11340000Y-40393137D01*
X-11340000Y-35033061D01*
X-2835000Y-35033061D01*
X-2835000Y-35236939D01*
X-2795226Y-35436898D01*
X-2717205Y-35625256D01*
X-2603937Y-35794774D01*
X-2459774Y-35938937D01*
X-2290256Y-36052205D01*
X-2101898Y-36130226D01*
X-1901939Y-36170000D01*
X-1698061Y-36170000D01*
X-1498102Y-36130226D01*
X-1309744Y-36052205D01*
X-1200000Y-35978877D01*
X-1090256Y-36052205D01*
X-901898Y-36130226D01*
X-701939Y-36170000D01*
X-498061Y-36170000D01*
X-298102Y-36130226D01*
X-109744Y-36052205D01*
X0Y-35978877D01*
X109744Y-36052205D01*
X298102Y-36130226D01*
X498061Y-36170000D01*
X701939Y-36170000D01*
X901898Y-36130226D01*
X1090256Y-36052205D01*
X1200000Y-35978877D01*
X1309744Y-36052205D01*
X1498102Y-36130226D01*
X1698061Y-36170000D01*
X1901939Y-36170000D01*
X2101898Y-36130226D01*
X2290256Y-36052205D01*
X2459774Y-35938937D01*
X2603937Y-35794774D01*
X2717205Y-35625256D01*
X2795226Y-35436898D01*
X2835000Y-35236939D01*
X2835000Y-35033061D01*
X2795226Y-34833102D01*
X2717205Y-34644744D01*
X2603937Y-34475226D01*
X2459774Y-34331063D01*
X2290256Y-34217795D01*
X2101898Y-34139774D01*
X1901939Y-34100000D01*
X1698061Y-34100000D01*
X1498102Y-34139774D01*
X1309744Y-34217795D01*
X1200000Y-34291123D01*
X1090256Y-34217795D01*
X901898Y-34139774D01*
X701939Y-34100000D01*
X498061Y-34100000D01*
X298102Y-34139774D01*
X109744Y-34217795D01*
X0Y-34291123D01*
X-109744Y-34217795D01*
X-298102Y-34139774D01*
X-498061Y-34100000D01*
X-701939Y-34100000D01*
X-901898Y-34139774D01*
X-1090256Y-34217795D01*
X-1200000Y-34291123D01*
X-1309744Y-34217795D01*
X-1498102Y-34139774D01*
X-1698061Y-34100000D01*
X-1901939Y-34100000D01*
X-2101898Y-34139774D01*
X-2290256Y-34217795D01*
X-2459774Y-34331063D01*
X-2603937Y-34475226D01*
X-2717205Y-34644744D01*
X-2795226Y-34833102D01*
X-2835000Y-35033061D01*
X-11340000Y-35033061D01*
X-11340000Y-28033061D01*
X-2835000Y-28033061D01*
X-2835000Y-28236939D01*
X-2795226Y-28436898D01*
X-2717205Y-28625256D01*
X-2603937Y-28794774D01*
X-2459774Y-28938937D01*
X-2290256Y-29052205D01*
X-2101898Y-29130226D01*
X-1901939Y-29170000D01*
X-1698061Y-29170000D01*
X-1498102Y-29130226D01*
X-1309744Y-29052205D01*
X-1200000Y-28978877D01*
X-1090256Y-29052205D01*
X-901898Y-29130226D01*
X-701939Y-29170000D01*
X-498061Y-29170000D01*
X-298102Y-29130226D01*
X-109744Y-29052205D01*
X0Y-28978877D01*
X109744Y-29052205D01*
X298102Y-29130226D01*
X498061Y-29170000D01*
X701939Y-29170000D01*
X901898Y-29130226D01*
X1090256Y-29052205D01*
X1200000Y-28978877D01*
X1309744Y-29052205D01*
X1498102Y-29130226D01*
X1698061Y-29170000D01*
X1901939Y-29170000D01*
X2101898Y-29130226D01*
X2290256Y-29052205D01*
X2459774Y-28938937D01*
X2603937Y-28794774D01*
X2717205Y-28625256D01*
X2795226Y-28436898D01*
X2835000Y-28236939D01*
X2835000Y-28033061D01*
X2795226Y-27833102D01*
X2717205Y-27644744D01*
X2603937Y-27475226D01*
X2459774Y-27331063D01*
X2290256Y-27217795D01*
X2101898Y-27139774D01*
X1901939Y-27100000D01*
X1698061Y-27100000D01*
X1498102Y-27139774D01*
X1309744Y-27217795D01*
X1200000Y-27291123D01*
X1090256Y-27217795D01*
X901898Y-27139774D01*
X701939Y-27100000D01*
X498061Y-27100000D01*
X298102Y-27139774D01*
X109744Y-27217795D01*
X0Y-27291123D01*
X-109744Y-27217795D01*
X-298102Y-27139774D01*
X-498061Y-27100000D01*
X-701939Y-27100000D01*
X-901898Y-27139774D01*
X-1090256Y-27217795D01*
X-1200000Y-27291123D01*
X-1309744Y-27217795D01*
X-1498102Y-27139774D01*
X-1698061Y-27100000D01*
X-1901939Y-27100000D01*
X-2101898Y-27139774D01*
X-2290256Y-27217795D01*
X-2459774Y-27331063D01*
X-2603937Y-27475226D01*
X-2717205Y-27644744D01*
X-2795226Y-27833102D01*
X-2835000Y-28033061D01*
X-11340000Y-28033061D01*
X-11340000Y-20752191D01*
X-11349550Y-20655227D01*
X-11387290Y-20530817D01*
X-11448575Y-20416160D01*
X-11531052Y-20315662D01*
X-11631551Y-20233185D01*
X-11667651Y-20213889D01*
X-13253170Y-19211565D01*
X-14751226Y-18086793D01*
X-16154259Y-16845495D01*
X-17453209Y-15495685D01*
X-18639721Y-14046052D01*
X-19706162Y-12505916D01*
X-20645652Y-10885212D01*
X-21452128Y-9194400D01*
X-22120413Y-7444335D01*
X-22646186Y-5646333D01*
X-23026069Y-3811942D01*
X-23257613Y-1952999D01*
X-23339326Y-81471D01*
X-23336339Y0D01*
X-18680000Y0D01*
X-18597920Y-1749223D01*
X-18352400Y-3483074D01*
X-17945599Y-5186315D01*
X-17381092Y-6843979D01*
X-16663839Y-8441498D01*
X-15800143Y-9964832D01*
X-14797595Y-11400596D01*
X-13665005Y-12736170D01*
X-12412327Y-13959819D01*
X-11050569Y-15060788D01*
X-9591698Y-16029402D01*
X-8048535Y-16857149D01*
X-6434641Y-17536756D01*
X-4764199Y-18062248D01*
X-3051889Y-18429009D01*
X-1312759Y-18633815D01*
X437907Y-18674866D01*
X2184725Y-18551802D01*
X3912344Y-18265705D01*
X5605581Y-17819087D01*
X7249556Y-17215875D01*
X8829821Y-16461369D01*
X10332490Y-15562199D01*
X11744356Y-14526269D01*
X13053013Y-13362681D01*
X14246959Y-12081662D01*
X15315703Y-10694468D01*
X16249851Y-9213292D01*
X17041195Y-7651148D01*
X17682781Y-6021766D01*
X18168969Y-4339464D01*
X18495489Y-2619027D01*
X18659469Y-875574D01*
X18659469Y875574D01*
X18495489Y2619027D01*
X18168969Y4339464D01*
X17682781Y6021766D01*
X17041195Y7651148D01*
X16249851Y9213292D01*
X15315703Y10694468D01*
X14246959Y12081662D01*
X13053013Y13362681D01*
X11744356Y14526269D01*
X10332490Y15562199D01*
X8829821Y16461369D01*
X7249556Y17215875D01*
X5605581Y17819087D01*
X3912344Y18265705D01*
X2184725Y18551802D01*
X437907Y18674866D01*
X-1312759Y18633815D01*
X-3051889Y18429009D01*
X-4764199Y18062248D01*
X-6434641Y17536756D01*
X-8048535Y16857149D01*
X-9591698Y16029402D01*
X-11050569Y15060788D01*
X-12412327Y13959819D01*
X-13665005Y12736170D01*
X-14797595Y11400596D01*
X-15800143Y9964832D01*
X-16663839Y8441498D01*
X-17381092Y6843979D01*
X-17945599Y5186315D01*
X-18352400Y3483074D01*
X-18597920Y1749223D01*
X-18680000Y0D01*
X-23336339Y0D01*
X-23270680Y1790580D01*
X-23052120Y3651098D01*
X-22685050Y5488101D01*
X-22171847Y7289720D01*
X-21515791Y9044419D01*
X-20721142Y10740813D01*
X-19792993Y12368032D01*
X-18737332Y13915573D01*
X-17560964Y15373461D01*
X-16271463Y16732312D01*
X-14877139Y17983367D01*
X-13386970Y19118572D01*
X-11810561Y20130609D01*
X-10158061Y21012962D01*
X-8440122Y21759943D01*
X-6667815Y22366740D01*
X-4852548Y22829446D01*
X-3006023Y23145077D01*
X-1140131Y23311604D01*
X733110Y23327952D01*
X2601626Y23194014D01*
G37*
%TD.AperFunction*%
%TD*%
M02*
