%TF.GenerationSoftware,KiCad,Pcbnew,(5.1.10-1-10_14)*%
%TF.CreationDate,2021-10-15T15:25:17+08:00*%
%TF.ProjectId,led-ring,6c65642d-7269-46e6-972e-6b696361645f,rev?*%
%TF.SameCoordinates,Original*%
%TF.FileFunction,Paste,Top*%
%TF.FilePolarity,Positive*%
%FSLAX46Y46*%
G04 Gerber Fmt 4.6, Leading zero omitted, Abs format (unit mm)*
G04 Created by KiCad (PCBNEW (5.1.10-1-10_14)) date 2021-10-15 15:25:17*
%MOMM*%
%LPD*%
G01*
G04 APERTURE LIST*
%ADD10R,0.900000X1.500000*%
%ADD11C,0.100000*%
%ADD12R,1.300000X0.900000*%
%ADD13R,2.200000X1.250000*%
%ADD14R,2.200000X2.200000*%
%ADD15R,1.250000X2.200000*%
G04 APERTURE END LIST*
D10*
%TO.C,SW1*%
X4000000Y-43250000D03*
X2000000Y-43250000D03*
X0Y-43250000D03*
X-4000000Y-43250000D03*
X4000000Y-37750000D03*
X2000000Y-37750000D03*
X0Y-37750000D03*
X-4000000Y-37750000D03*
%TD*%
D11*
%TO.C,U3*%
G36*
X-5828000Y-21440500D02*
G01*
X-8953000Y-21440500D01*
X-8953000Y-21024000D01*
X-10428000Y-21024000D01*
X-10428000Y-20124000D01*
X-8953000Y-20124000D01*
X-8953000Y-19707500D01*
X-5828000Y-19707500D01*
X-5828000Y-21440500D01*
G37*
D12*
X-9778000Y-22074000D03*
X-9778000Y-19074000D03*
%TD*%
D13*
%TO.C,D8*%
X0Y-22375000D03*
D14*
X0Y-20100000D03*
%TD*%
D11*
%TO.C,D7*%
G36*
X-16157390Y-14601755D02*
G01*
X-14601755Y-16157390D01*
X-15485638Y-17041273D01*
X-17041273Y-15485638D01*
X-16157390Y-14601755D01*
G37*
G36*
X-14212846Y-12657211D02*
G01*
X-12657211Y-14212846D01*
X-14212846Y-15768481D01*
X-15768481Y-14212846D01*
X-14212846Y-12657211D01*
G37*
%TD*%
D15*
%TO.C,D6*%
X-22375000Y0D03*
D14*
X-20100000Y0D03*
%TD*%
D11*
%TO.C,D5*%
G36*
X-14601755Y16157390D02*
G01*
X-16157390Y14601755D01*
X-17041273Y15485638D01*
X-15485638Y17041273D01*
X-14601755Y16157390D01*
G37*
G36*
X-12657211Y14212846D02*
G01*
X-14212846Y12657211D01*
X-15768481Y14212846D01*
X-14212846Y15768481D01*
X-12657211Y14212846D01*
G37*
%TD*%
D13*
%TO.C,D4*%
X0Y22375000D03*
D14*
X0Y20100000D03*
%TD*%
D11*
%TO.C,D3*%
G36*
X16157390Y14601755D02*
G01*
X14601755Y16157390D01*
X15485638Y17041273D01*
X17041273Y15485638D01*
X16157390Y14601755D01*
G37*
G36*
X14212846Y12657211D02*
G01*
X12657211Y14212846D01*
X14212846Y15768481D01*
X15768481Y14212846D01*
X14212846Y12657211D01*
G37*
%TD*%
D15*
%TO.C,D2*%
X22375000Y0D03*
D14*
X20100000Y0D03*
%TD*%
D11*
%TO.C,D1*%
G36*
X14601755Y-16157390D02*
G01*
X16157390Y-14601755D01*
X17041273Y-15485638D01*
X15485638Y-17041273D01*
X14601755Y-16157390D01*
G37*
G36*
X12657211Y-14212846D02*
G01*
X14212846Y-12657211D01*
X15768481Y-14212846D01*
X14212846Y-15768481D01*
X12657211Y-14212846D01*
G37*
%TD*%
%TO.C,C2*%
G36*
G01*
X-12184371Y-18012787D02*
X-12424787Y-17772371D01*
G75*
G02*
X-12424787Y-17574381I98995J98995D01*
G01*
X-12226797Y-17376391D01*
G75*
G02*
X-12028807Y-17376391I98995J-98995D01*
G01*
X-11788391Y-17616807D01*
G75*
G02*
X-11788391Y-17814797I-98995J-98995D01*
G01*
X-11986381Y-18012787D01*
G75*
G02*
X-12184371Y-18012787I-98995J98995D01*
G01*
G37*
G36*
G01*
X-12863193Y-18691609D02*
X-13103609Y-18451193D01*
G75*
G02*
X-13103609Y-18253203I98995J98995D01*
G01*
X-12905619Y-18055213D01*
G75*
G02*
X-12707629Y-18055213I98995J-98995D01*
G01*
X-12467213Y-18295629D01*
G75*
G02*
X-12467213Y-18493619I-98995J-98995D01*
G01*
X-12665203Y-18691609D01*
G75*
G02*
X-12863193Y-18691609I-98995J98995D01*
G01*
G37*
%TD*%
%TO.C,C1*%
G36*
G01*
X5164000Y-31580000D02*
X5164000Y-31920000D01*
G75*
G02*
X5024000Y-32060000I-140000J0D01*
G01*
X4744000Y-32060000D01*
G75*
G02*
X4604000Y-31920000I0J140000D01*
G01*
X4604000Y-31580000D01*
G75*
G02*
X4744000Y-31440000I140000J0D01*
G01*
X5024000Y-31440000D01*
G75*
G02*
X5164000Y-31580000I0J-140000D01*
G01*
G37*
G36*
G01*
X6124000Y-31580000D02*
X6124000Y-31920000D01*
G75*
G02*
X5984000Y-32060000I-140000J0D01*
G01*
X5704000Y-32060000D01*
G75*
G02*
X5564000Y-31920000I0J140000D01*
G01*
X5564000Y-31580000D01*
G75*
G02*
X5704000Y-31440000I140000J0D01*
G01*
X5984000Y-31440000D01*
G75*
G02*
X6124000Y-31580000I0J-140000D01*
G01*
G37*
%TD*%
M02*
