M48
; DRILL file {KiCad (5.1.10-1-10_14)} date Friday, October 15, 2021 at 03:27:19 PM
; FORMAT={-:-/ absolute / metric / decimal}
; #@! TF.CreationDate,2021-10-15T15:27:19+08:00
; #@! TF.GenerationSoftware,Kicad,Pcbnew,(5.1.10-1-10_14)
; #@! TF.FileFunction,Plated,1,2,PTH
FMAT,2
METRIC
T1C0.254
T2C0.500
%
G90
G05
T1
X-20.447Y-0.508
X-19.685Y0.381
X-14.859Y14.224
X-14.859Y-14.224
X-13.589Y14.097
X-13.589Y-14.224
X-11.684Y-17.272
X-10.922Y-19.05
X-9.779Y-18.288
X-0.508Y20.574
X-0.508Y-20.447
X0.508Y19.558
X0.635Y-19.812
X4.064Y-31.75
X13.335Y-14.224
X13.716Y14.224
X14.859Y14.224
X14.986Y-14.224
X19.558Y0.381
X20.574Y-0.508
T2
X-3.0Y-28.135
X-3.0Y-35.135
X-1.8Y-28.135
X-1.8Y-35.135
X-0.6Y-28.135
X-0.6Y-35.135
X0.6Y-28.135
X0.6Y-35.135
X1.8Y-28.135
X1.8Y-35.135
X3.0Y-28.135
X3.0Y-35.135
T2
G00X-4.325Y-27.565
M15
G01X-4.325Y-28.165
M16
G05
G00X-4.325Y-34.565
M15
G01X-4.325Y-35.165
M16
G05
G00X4.325Y-27.565
M15
G01X4.325Y-28.165
M16
G05
G00X4.325Y-34.565
M15
G01X4.325Y-35.165
M16
G05
T0
M30
