%TF.GenerationSoftware,KiCad,Pcbnew,(5.1.10-1-10_14)*%
%TF.CreationDate,2021-10-20T22:44:44+08:00*%
%TF.ProjectId,led-ring,6c65642d-7269-46e6-972e-6b696361645f,rev?*%
%TF.SameCoordinates,Original*%
%TF.FileFunction,Copper,L1,Top*%
%TF.FilePolarity,Positive*%
%FSLAX46Y46*%
G04 Gerber Fmt 4.6, Leading zero omitted, Abs format (unit mm)*
G04 Created by KiCad (PCBNEW (5.1.10-1-10_14)) date 2021-10-20 22:44:44*
%MOMM*%
%LPD*%
G01*
G04 APERTURE LIST*
%TA.AperFunction,SMDPad,CuDef*%
%ADD10R,2.500000X1.800000*%
%TD*%
%TA.AperFunction,SMDPad,CuDef*%
%ADD11R,0.900000X1.500000*%
%TD*%
%TA.AperFunction,SMDPad,CuDef*%
%ADD12C,0.100000*%
%TD*%
%TA.AperFunction,SMDPad,CuDef*%
%ADD13R,1.300000X0.900000*%
%TD*%
%TA.AperFunction,ComponentPad*%
%ADD14C,0.800000*%
%TD*%
%TA.AperFunction,ComponentPad*%
%ADD15O,0.800000X1.500000*%
%TD*%
%TA.AperFunction,SMDPad,CuDef*%
%ADD16R,2.200000X1.250000*%
%TD*%
%TA.AperFunction,SMDPad,CuDef*%
%ADD17R,2.200000X2.200000*%
%TD*%
%TA.AperFunction,SMDPad,CuDef*%
%ADD18R,1.250000X2.200000*%
%TD*%
%TA.AperFunction,ViaPad*%
%ADD19C,0.508000*%
%TD*%
%TA.AperFunction,Conductor*%
%ADD20C,0.250000*%
%TD*%
%TA.AperFunction,Conductor*%
%ADD21C,0.500000*%
%TD*%
%TA.AperFunction,Conductor*%
%ADD22C,0.254000*%
%TD*%
%TA.AperFunction,Conductor*%
%ADD23C,0.100000*%
%TD*%
%TA.AperFunction,Conductor*%
%ADD24C,0.025400*%
%TD*%
G04 APERTURE END LIST*
D10*
%TO.P,D9,2*%
%TO.N,VBUS2*%
X-2317500Y-31496000D03*
%TO.P,D9,1*%
%TO.N,VBUS3*%
X1682500Y-31496000D03*
%TD*%
D11*
%TO.P,SW1,8*%
%TO.N,N/C*%
X4000000Y-43250000D03*
%TO.P,SW1,7*%
X2000000Y-43250000D03*
%TO.P,SW1,6*%
X0Y-43250000D03*
%TO.P,SW1,5*%
X-4000000Y-43250000D03*
%TO.P,SW1,4*%
%TO.N,VBUS3*%
X4000000Y-37750000D03*
%TO.P,SW1,3*%
%TO.N,VBUS2*%
X2000000Y-37750000D03*
%TO.P,SW1,2*%
%TO.N,VBUS1*%
X0Y-37750000D03*
%TO.P,SW1,1*%
%TO.N,N/C*%
X-4000000Y-37750000D03*
%TD*%
%TA.AperFunction,SMDPad,CuDef*%
D12*
%TO.P,U3,2*%
%TO.N,+3V3*%
G36*
X-5828000Y-21440500D02*
G01*
X-8953000Y-21440500D01*
X-8953000Y-21024000D01*
X-10428000Y-21024000D01*
X-10428000Y-20124000D01*
X-8953000Y-20124000D01*
X-8953000Y-19707500D01*
X-5828000Y-19707500D01*
X-5828000Y-21440500D01*
G37*
%TD.AperFunction*%
D13*
%TO.P,U3,3*%
%TO.N,VBUS3*%
X-9778000Y-22074000D03*
%TO.P,U3,1*%
%TO.N,GND*%
X-9778000Y-19074000D03*
%TD*%
D14*
%TO.P,U2,6*%
%TO.N,GND*%
X3000000Y-28135000D03*
%TO.P,U2,5*%
%TO.N,VBUS2*%
X1800000Y-28135000D03*
%TO.P,U2,4*%
%TO.N,N/C*%
X600000Y-28135000D03*
%TO.P,U2,3*%
X-600000Y-28135000D03*
%TO.P,U2,2*%
%TO.N,VBUS2*%
X-1800000Y-28135000D03*
%TO.P,U2,1*%
%TO.N,GND*%
X-3000000Y-28135000D03*
D15*
%TO.P,U2,7*%
X4325000Y-27865000D03*
X-4325000Y-27865000D03*
%TD*%
D14*
%TO.P,U1,6*%
%TO.N,GND*%
X3000000Y-35135000D03*
%TO.P,U1,5*%
%TO.N,VBUS1*%
X1800000Y-35135000D03*
%TO.P,U1,4*%
%TO.N,N/C*%
X600000Y-35135000D03*
%TO.P,U1,3*%
X-600000Y-35135000D03*
%TO.P,U1,2*%
%TO.N,VBUS1*%
X-1800000Y-35135000D03*
%TO.P,U1,1*%
%TO.N,GND*%
X-3000000Y-35135000D03*
D15*
%TO.P,U1,7*%
X4325000Y-34865000D03*
X-4325000Y-34865000D03*
%TD*%
D16*
%TO.P,D8,2*%
%TO.N,+3V3*%
X0Y-22375000D03*
D17*
%TO.P,D8,1*%
%TO.N,GND*%
X0Y-20100000D03*
%TD*%
%TA.AperFunction,SMDPad,CuDef*%
D12*
%TO.P,D7,2*%
%TO.N,+3V3*%
G36*
X-16157390Y-14601755D02*
G01*
X-14601755Y-16157390D01*
X-15485638Y-17041273D01*
X-17041273Y-15485638D01*
X-16157390Y-14601755D01*
G37*
%TD.AperFunction*%
%TA.AperFunction,SMDPad,CuDef*%
%TO.P,D7,1*%
%TO.N,GND*%
G36*
X-14212846Y-12657211D02*
G01*
X-12657211Y-14212846D01*
X-14212846Y-15768481D01*
X-15768481Y-14212846D01*
X-14212846Y-12657211D01*
G37*
%TD.AperFunction*%
%TD*%
D18*
%TO.P,D6,2*%
%TO.N,+3V3*%
X-22375000Y0D03*
D17*
%TO.P,D6,1*%
%TO.N,GND*%
X-20100000Y0D03*
%TD*%
%TA.AperFunction,SMDPad,CuDef*%
D12*
%TO.P,D5,2*%
%TO.N,+3V3*%
G36*
X-14601755Y16157390D02*
G01*
X-16157390Y14601755D01*
X-17041273Y15485638D01*
X-15485638Y17041273D01*
X-14601755Y16157390D01*
G37*
%TD.AperFunction*%
%TA.AperFunction,SMDPad,CuDef*%
%TO.P,D5,1*%
%TO.N,GND*%
G36*
X-12657211Y14212846D02*
G01*
X-14212846Y12657211D01*
X-15768481Y14212846D01*
X-14212846Y15768481D01*
X-12657211Y14212846D01*
G37*
%TD.AperFunction*%
%TD*%
D16*
%TO.P,D4,2*%
%TO.N,+3V3*%
X0Y22375000D03*
D17*
%TO.P,D4,1*%
%TO.N,GND*%
X0Y20100000D03*
%TD*%
%TA.AperFunction,SMDPad,CuDef*%
D12*
%TO.P,D3,2*%
%TO.N,+3V3*%
G36*
X16157390Y14601755D02*
G01*
X14601755Y16157390D01*
X15485638Y17041273D01*
X17041273Y15485638D01*
X16157390Y14601755D01*
G37*
%TD.AperFunction*%
%TA.AperFunction,SMDPad,CuDef*%
%TO.P,D3,1*%
%TO.N,GND*%
G36*
X14212846Y12657211D02*
G01*
X12657211Y14212846D01*
X14212846Y15768481D01*
X15768481Y14212846D01*
X14212846Y12657211D01*
G37*
%TD.AperFunction*%
%TD*%
D18*
%TO.P,D2,2*%
%TO.N,+3V3*%
X22375000Y0D03*
D17*
%TO.P,D2,1*%
%TO.N,GND*%
X20100000Y0D03*
%TD*%
%TA.AperFunction,SMDPad,CuDef*%
D12*
%TO.P,D1,2*%
%TO.N,+3V3*%
G36*
X14601755Y-16157390D02*
G01*
X16157390Y-14601755D01*
X17041273Y-15485638D01*
X15485638Y-17041273D01*
X14601755Y-16157390D01*
G37*
%TD.AperFunction*%
%TA.AperFunction,SMDPad,CuDef*%
%TO.P,D1,1*%
%TO.N,GND*%
G36*
X12657211Y-14212846D02*
G01*
X14212846Y-12657211D01*
X15768481Y-14212846D01*
X14212846Y-15768481D01*
X12657211Y-14212846D01*
G37*
%TD.AperFunction*%
%TD*%
%TO.P,C2,2*%
%TO.N,GND*%
%TA.AperFunction,SMDPad,CuDef*%
G36*
G01*
X-12184371Y-18012787D02*
X-12424787Y-17772371D01*
G75*
G02*
X-12424787Y-17574381I98995J98995D01*
G01*
X-12226797Y-17376391D01*
G75*
G02*
X-12028807Y-17376391I98995J-98995D01*
G01*
X-11788391Y-17616807D01*
G75*
G02*
X-11788391Y-17814797I-98995J-98995D01*
G01*
X-11986381Y-18012787D01*
G75*
G02*
X-12184371Y-18012787I-98995J98995D01*
G01*
G37*
%TD.AperFunction*%
%TO.P,C2,1*%
%TO.N,+3V3*%
%TA.AperFunction,SMDPad,CuDef*%
G36*
G01*
X-12863193Y-18691609D02*
X-13103609Y-18451193D01*
G75*
G02*
X-13103609Y-18253203I98995J98995D01*
G01*
X-12905619Y-18055213D01*
G75*
G02*
X-12707629Y-18055213I98995J-98995D01*
G01*
X-12467213Y-18295629D01*
G75*
G02*
X-12467213Y-18493619I-98995J-98995D01*
G01*
X-12665203Y-18691609D01*
G75*
G02*
X-12863193Y-18691609I-98995J98995D01*
G01*
G37*
%TD.AperFunction*%
%TD*%
%TO.P,C1,2*%
%TO.N,GND*%
%TA.AperFunction,SMDPad,CuDef*%
G36*
G01*
X5164000Y-31580000D02*
X5164000Y-31920000D01*
G75*
G02*
X5024000Y-32060000I-140000J0D01*
G01*
X4744000Y-32060000D01*
G75*
G02*
X4604000Y-31920000I0J140000D01*
G01*
X4604000Y-31580000D01*
G75*
G02*
X4744000Y-31440000I140000J0D01*
G01*
X5024000Y-31440000D01*
G75*
G02*
X5164000Y-31580000I0J-140000D01*
G01*
G37*
%TD.AperFunction*%
%TO.P,C1,1*%
%TO.N,VBUS3*%
%TA.AperFunction,SMDPad,CuDef*%
G36*
G01*
X6124000Y-31580000D02*
X6124000Y-31920000D01*
G75*
G02*
X5984000Y-32060000I-140000J0D01*
G01*
X5704000Y-32060000D01*
G75*
G02*
X5564000Y-31920000I0J140000D01*
G01*
X5564000Y-31580000D01*
G75*
G02*
X5704000Y-31440000I140000J0D01*
G01*
X5984000Y-31440000D01*
G75*
G02*
X6124000Y-31580000I0J-140000D01*
G01*
G37*
%TD.AperFunction*%
%TD*%
D19*
%TO.N,GND*%
X635000Y-19812000D03*
X-508000Y-20447000D03*
X14986000Y-14224000D03*
X13335000Y-14224000D03*
X20574000Y-508000D03*
X19558000Y381000D03*
X14859000Y14224000D03*
X13716000Y14224000D03*
X508000Y19558000D03*
X-508000Y20574000D03*
X-13589000Y14097000D03*
X-14859000Y14224000D03*
X-19685000Y381000D03*
X-20447000Y-508000D03*
X-13589000Y-14224000D03*
X-14859000Y-14224000D03*
X-11684000Y-17272000D03*
X-10922000Y-19050000D03*
X-9779000Y-18287990D03*
X4064000Y-31750000D03*
%TD*%
D20*
%TO.N,GND*%
X-12106589Y-17694589D02*
X-11684000Y-17272000D01*
D21*
X-10898000Y-19074000D02*
X-10922000Y-19050000D01*
X-9778000Y-19074000D02*
X-10898000Y-19074000D01*
D20*
X-9778000Y-19074000D02*
X-9778000Y-18288990D01*
X-9778000Y-18288990D02*
X-9779000Y-18287990D01*
D21*
X4854000Y-31750000D02*
X4064000Y-31750000D01*
%TO.N,VBUS3*%
X5204842Y-37467157D02*
X5170513Y-37499839D01*
X5170513Y-37499839D02*
X5134623Y-37530799D01*
X5134623Y-37530799D02*
X5097257Y-37559959D01*
X5097257Y-37559959D02*
X5058505Y-37587252D01*
X5058505Y-37587252D02*
X5018460Y-37612610D01*
X5018460Y-37612610D02*
X4977220Y-37635972D01*
X4977220Y-37635972D02*
X4934883Y-37657283D01*
X4934883Y-37657283D02*
X4891551Y-37676491D01*
X4891551Y-37676491D02*
X4847329Y-37693549D01*
X4847329Y-37693549D02*
X4802323Y-37708417D01*
X4802323Y-37708417D02*
X4756642Y-37721059D01*
X4756642Y-37721059D02*
X4710395Y-37731444D01*
X4710395Y-37731444D02*
X4663695Y-37739547D01*
X4663695Y-37739547D02*
X4616653Y-37745349D01*
X4616653Y-37745349D02*
X4569383Y-37748836D01*
X4569383Y-37748836D02*
X4522000Y-37750000D01*
X4522000Y-37750000D02*
X4000000Y-37750000D01*
X5842000Y-36330000D02*
X5840545Y-36389229D01*
X5840545Y-36389229D02*
X5836187Y-36448317D01*
X5836187Y-36448317D02*
X5828934Y-36507119D01*
X5828934Y-36507119D02*
X5818805Y-36565494D01*
X5818805Y-36565494D02*
X5805824Y-36623302D01*
X5805824Y-36623302D02*
X5790021Y-36680404D01*
X5790021Y-36680404D02*
X5771436Y-36736661D01*
X5771436Y-36736661D02*
X5750113Y-36791939D01*
X5750113Y-36791939D02*
X5726104Y-36846104D01*
X5726104Y-36846104D02*
X5699465Y-36899025D01*
X5699465Y-36899025D02*
X5670262Y-36950576D01*
X5670262Y-36950576D02*
X5638565Y-37000632D01*
X5638565Y-37000632D02*
X5604449Y-37049072D01*
X5604449Y-37049072D02*
X5567998Y-37095779D01*
X5567998Y-37095779D02*
X5529299Y-37140642D01*
X5529299Y-37140642D02*
X5488446Y-37183553D01*
X5488446Y-37183553D02*
X5204842Y-37467157D01*
X5488446Y-26062446D02*
X5529299Y-26105356D01*
X5529299Y-26105356D02*
X5567998Y-26150219D01*
X5567998Y-26150219D02*
X5604449Y-26196926D01*
X5604449Y-26196926D02*
X5638565Y-26245366D01*
X5638565Y-26245366D02*
X5670262Y-26295422D01*
X5670262Y-26295422D02*
X5699465Y-26346973D01*
X5699465Y-26346973D02*
X5726104Y-26399894D01*
X5726104Y-26399894D02*
X5750114Y-26454059D01*
X5750114Y-26454059D02*
X5771437Y-26509337D01*
X5771437Y-26509337D02*
X5790021Y-26565595D01*
X5790021Y-26565595D02*
X5805824Y-26622696D01*
X5805824Y-26622696D02*
X5818805Y-26680504D01*
X5818805Y-26680504D02*
X5828934Y-26738880D01*
X5828934Y-26738880D02*
X5836187Y-26797682D01*
X5836187Y-26797682D02*
X5840545Y-26856770D01*
X5840545Y-26856770D02*
X5842000Y-26916000D01*
X3818000Y-24892000D02*
X3877229Y-24893454D01*
X3877229Y-24893454D02*
X3936317Y-24897812D01*
X3936317Y-24897812D02*
X3995119Y-24905065D01*
X3995119Y-24905065D02*
X4053494Y-24915194D01*
X4053494Y-24915194D02*
X4111302Y-24928175D01*
X4111302Y-24928175D02*
X4168404Y-24943977D01*
X4168404Y-24943977D02*
X4224661Y-24962562D01*
X4224661Y-24962562D02*
X4279939Y-24983885D01*
X4279939Y-24983885D02*
X4334104Y-25007895D01*
X4334104Y-25007895D02*
X4387025Y-25034533D01*
X4387025Y-25034533D02*
X4438576Y-25063736D01*
X4438576Y-25063736D02*
X4488632Y-25095434D01*
X4488632Y-25095434D02*
X4537072Y-25129549D01*
X4537072Y-25129549D02*
X4583779Y-25166000D01*
X4583779Y-25166000D02*
X4628642Y-25204699D01*
X4628642Y-25204699D02*
X4671553Y-25245553D01*
X4671553Y-25245553D02*
X5488446Y-26062446D01*
X-8481553Y-24538446D02*
X-8438642Y-24579299D01*
X-8438642Y-24579299D02*
X-8393779Y-24617998D01*
X-8393779Y-24617998D02*
X-8347072Y-24654449D01*
X-8347072Y-24654449D02*
X-8298632Y-24688565D01*
X-8298632Y-24688565D02*
X-8248576Y-24720262D01*
X-8248576Y-24720262D02*
X-8197025Y-24749465D01*
X-8197025Y-24749465D02*
X-8144104Y-24776104D01*
X-8144104Y-24776104D02*
X-8089939Y-24800113D01*
X-8089939Y-24800113D02*
X-8034661Y-24821436D01*
X-8034661Y-24821436D02*
X-7978404Y-24840021D01*
X-7978404Y-24840021D02*
X-7921302Y-24855824D01*
X-7921302Y-24855824D02*
X-7863494Y-24868805D01*
X-7863494Y-24868805D02*
X-7805119Y-24878934D01*
X-7805119Y-24878934D02*
X-7746317Y-24886186D01*
X-7746317Y-24886186D02*
X-7687229Y-24890545D01*
X-7687229Y-24890545D02*
X-7628000Y-24892000D01*
X-7628000Y-24892000D02*
X3818000Y-24892000D01*
X-9778000Y-22742000D02*
X-9778000Y-22074000D01*
X-9778000Y-22742000D02*
X-9776545Y-22801229D01*
X-9776545Y-22801229D02*
X-9772187Y-22860317D01*
X-9772187Y-22860317D02*
X-9764934Y-22919119D01*
X-9764934Y-22919119D02*
X-9754805Y-22977494D01*
X-9754805Y-22977494D02*
X-9741824Y-23035302D01*
X-9741824Y-23035302D02*
X-9726021Y-23092404D01*
X-9726021Y-23092404D02*
X-9707436Y-23148661D01*
X-9707436Y-23148661D02*
X-9686113Y-23203939D01*
X-9686113Y-23203939D02*
X-9662104Y-23258104D01*
X-9662104Y-23258104D02*
X-9635465Y-23311025D01*
X-9635465Y-23311025D02*
X-9606262Y-23362576D01*
X-9606262Y-23362576D02*
X-9574565Y-23412632D01*
X-9574565Y-23412632D02*
X-9540449Y-23461072D01*
X-9540449Y-23461072D02*
X-9503998Y-23507779D01*
X-9503998Y-23507779D02*
X-9465299Y-23552642D01*
X-9465299Y-23552642D02*
X-9424446Y-23595553D01*
X-9424446Y-23595553D02*
X-8481553Y-24538446D01*
X1367500Y-31559500D02*
X1905000Y-31559500D01*
X5842000Y-30226000D02*
X5842000Y-36330000D01*
X5842000Y-26916000D02*
X5842000Y-30226000D01*
X1682500Y-31496000D02*
X1968500Y-31496000D01*
X3238500Y-30226000D02*
X5842000Y-30226000D01*
X1968500Y-31496000D02*
X3238500Y-30226000D01*
%TO.N,VBUS2*%
X2000000Y-37750000D02*
X2000000Y-38386000D01*
X516000Y-39370000D02*
X575229Y-39368545D01*
X575229Y-39368545D02*
X634317Y-39364187D01*
X634317Y-39364187D02*
X693119Y-39356934D01*
X693119Y-39356934D02*
X751494Y-39346805D01*
X751494Y-39346805D02*
X809302Y-39333824D01*
X809302Y-39333824D02*
X866404Y-39318021D01*
X866404Y-39318021D02*
X922661Y-39299436D01*
X922661Y-39299436D02*
X977939Y-39278113D01*
X977939Y-39278113D02*
X1032104Y-39254104D01*
X1032104Y-39254104D02*
X1085025Y-39227465D01*
X1085025Y-39227465D02*
X1136576Y-39198262D01*
X1136576Y-39198262D02*
X1186632Y-39166565D01*
X1186632Y-39166565D02*
X1235072Y-39132449D01*
X1235072Y-39132449D02*
X1281779Y-39095998D01*
X1281779Y-39095998D02*
X1326642Y-39057299D01*
X1326642Y-39057299D02*
X1369553Y-39016446D01*
X1369553Y-39016446D02*
X2000000Y-38386000D01*
X-5433553Y-39016446D02*
X-5390642Y-39057299D01*
X-5390642Y-39057299D02*
X-5345779Y-39095998D01*
X-5345779Y-39095998D02*
X-5299072Y-39132449D01*
X-5299072Y-39132449D02*
X-5250632Y-39166565D01*
X-5250632Y-39166565D02*
X-5200576Y-39198262D01*
X-5200576Y-39198262D02*
X-5149025Y-39227465D01*
X-5149025Y-39227465D02*
X-5096104Y-39254104D01*
X-5096104Y-39254104D02*
X-5041939Y-39278113D01*
X-5041939Y-39278113D02*
X-4986661Y-39299436D01*
X-4986661Y-39299436D02*
X-4930404Y-39318021D01*
X-4930404Y-39318021D02*
X-4873302Y-39333824D01*
X-4873302Y-39333824D02*
X-4815494Y-39346805D01*
X-4815494Y-39346805D02*
X-4757119Y-39356934D01*
X-4757119Y-39356934D02*
X-4698317Y-39364186D01*
X-4698317Y-39364186D02*
X-4639229Y-39368545D01*
X-4639229Y-39368545D02*
X-4580000Y-39370000D01*
X-4580000Y-39370000D02*
X516000Y-39370000D01*
X-6350000Y-37600000D02*
X-6348545Y-37659229D01*
X-6348545Y-37659229D02*
X-6344187Y-37718317D01*
X-6344187Y-37718317D02*
X-6336934Y-37777119D01*
X-6336934Y-37777119D02*
X-6326805Y-37835494D01*
X-6326805Y-37835494D02*
X-6313824Y-37893302D01*
X-6313824Y-37893302D02*
X-6298021Y-37950404D01*
X-6298021Y-37950404D02*
X-6279436Y-38006661D01*
X-6279436Y-38006661D02*
X-6258113Y-38061939D01*
X-6258113Y-38061939D02*
X-6234104Y-38116104D01*
X-6234104Y-38116104D02*
X-6207465Y-38169025D01*
X-6207465Y-38169025D02*
X-6178262Y-38220576D01*
X-6178262Y-38220576D02*
X-6146565Y-38270632D01*
X-6146565Y-38270632D02*
X-6112449Y-38319072D01*
X-6112449Y-38319072D02*
X-6075998Y-38365779D01*
X-6075998Y-38365779D02*
X-6037299Y-38410642D01*
X-6037299Y-38410642D02*
X-5996446Y-38453553D01*
X-5996446Y-38453553D02*
X-5433553Y-39016446D01*
X-5996446Y-32158446D02*
X-6037299Y-32201356D01*
X-6037299Y-32201356D02*
X-6075998Y-32246219D01*
X-6075998Y-32246219D02*
X-6112449Y-32292926D01*
X-6112449Y-32292926D02*
X-6146565Y-32341366D01*
X-6146565Y-32341366D02*
X-6178262Y-32391422D01*
X-6178262Y-32391422D02*
X-6207465Y-32442973D01*
X-6207465Y-32442973D02*
X-6234104Y-32495894D01*
X-6234104Y-32495894D02*
X-6258114Y-32550059D01*
X-6258114Y-32550059D02*
X-6279437Y-32605337D01*
X-6279437Y-32605337D02*
X-6298021Y-32661595D01*
X-6298021Y-32661595D02*
X-6313824Y-32718696D01*
X-6313824Y-32718696D02*
X-6326805Y-32776504D01*
X-6326805Y-32776504D02*
X-6336934Y-32834880D01*
X-6336934Y-32834880D02*
X-6344187Y-32893682D01*
X-6344187Y-32893682D02*
X-6348545Y-32952770D01*
X-6348545Y-32952770D02*
X-6350000Y-33012000D01*
X-6350000Y-33012000D02*
X-6350000Y-37600000D01*
X-4580000Y-31242000D02*
X-4639229Y-31243454D01*
X-4639229Y-31243454D02*
X-4698317Y-31247812D01*
X-4698317Y-31247812D02*
X-4757119Y-31255065D01*
X-4757119Y-31255065D02*
X-4815494Y-31265194D01*
X-4815494Y-31265194D02*
X-4873302Y-31278175D01*
X-4873302Y-31278175D02*
X-4930404Y-31293977D01*
X-4930404Y-31293977D02*
X-4986661Y-31312562D01*
X-4986661Y-31312562D02*
X-5041939Y-31333885D01*
X-5041939Y-31333885D02*
X-5096104Y-31357895D01*
X-5096104Y-31357895D02*
X-5149025Y-31384533D01*
X-5149025Y-31384533D02*
X-5200576Y-31413736D01*
X-5200576Y-31413736D02*
X-5250632Y-31445434D01*
X-5250632Y-31445434D02*
X-5299072Y-31479549D01*
X-5299072Y-31479549D02*
X-5345779Y-31516000D01*
X-5345779Y-31516000D02*
X-5390642Y-31554699D01*
X-5390642Y-31554699D02*
X-5433553Y-31595553D01*
X-5433553Y-31595553D02*
X-5996446Y-32158446D01*
X-2948446Y-30888446D02*
X-2991356Y-30929299D01*
X-2991356Y-30929299D02*
X-3036219Y-30967998D01*
X-3036219Y-30967998D02*
X-3082926Y-31004449D01*
X-3082926Y-31004449D02*
X-3131366Y-31038565D01*
X-3131366Y-31038565D02*
X-3181422Y-31070262D01*
X-3181422Y-31070262D02*
X-3232973Y-31099465D01*
X-3232973Y-31099465D02*
X-3285894Y-31126104D01*
X-3285894Y-31126104D02*
X-3340059Y-31150114D01*
X-3340059Y-31150114D02*
X-3395337Y-31171437D01*
X-3395337Y-31171437D02*
X-3451595Y-31190021D01*
X-3451595Y-31190021D02*
X-3508696Y-31205824D01*
X-3508696Y-31205824D02*
X-3566504Y-31218805D01*
X-3566504Y-31218805D02*
X-3624880Y-31228934D01*
X-3624880Y-31228934D02*
X-3683682Y-31236187D01*
X-3683682Y-31236187D02*
X-3742770Y-31240545D01*
X-3742770Y-31240545D02*
X-3802000Y-31242000D01*
X-3802000Y-31242000D02*
X-4580000Y-31242000D01*
X-1800000Y-29240000D02*
X-1800000Y-28135000D01*
X-1800000Y-29240000D02*
X-1801453Y-29299229D01*
X-1801453Y-29299229D02*
X-1805811Y-29358317D01*
X-1805811Y-29358317D02*
X-1813064Y-29417119D01*
X-1813064Y-29417119D02*
X-1823193Y-29475494D01*
X-1823193Y-29475494D02*
X-1836174Y-29533303D01*
X-1836174Y-29533303D02*
X-1851976Y-29590404D01*
X-1851976Y-29590404D02*
X-1870561Y-29646662D01*
X-1870561Y-29646662D02*
X-1891884Y-29701939D01*
X-1891884Y-29701939D02*
X-1915894Y-29756104D01*
X-1915894Y-29756104D02*
X-1942532Y-29809026D01*
X-1942532Y-29809026D02*
X-1971735Y-29860576D01*
X-1971735Y-29860576D02*
X-2003433Y-29910632D01*
X-2003433Y-29910632D02*
X-2037548Y-29959072D01*
X-2037548Y-29959072D02*
X-2073999Y-30005780D01*
X-2073999Y-30005780D02*
X-2112698Y-30050643D01*
X-2112698Y-30050643D02*
X-2153553Y-30093553D01*
X-854685Y-26924000D02*
X-890222Y-26924872D01*
X-890222Y-26924872D02*
X-925675Y-26927487D01*
X-925675Y-26927487D02*
X-960956Y-26931839D01*
X-960956Y-26931839D02*
X-995981Y-26937916D01*
X-995981Y-26937916D02*
X-1030666Y-26945705D01*
X-1030666Y-26945705D02*
X-1064927Y-26955186D01*
X-1064927Y-26955186D02*
X-1098682Y-26966337D01*
X-1098682Y-26966337D02*
X-1131848Y-26979131D01*
X-1131848Y-26979131D02*
X-1164347Y-26993537D01*
X-1164347Y-26993537D02*
X-1196100Y-27009520D01*
X-1196100Y-27009520D02*
X-1227031Y-27027042D01*
X-1227031Y-27027042D02*
X-1257064Y-27046060D01*
X-1257064Y-27046060D02*
X-1286128Y-27066529D01*
X-1286128Y-27066529D02*
X-1314153Y-27088400D01*
X-1314153Y-27088400D02*
X-1341070Y-27111619D01*
X-1341070Y-27111619D02*
X-1366817Y-27136132D01*
X1366817Y-27136132D02*
X1341070Y-27111619D01*
X1341070Y-27111619D02*
X1314153Y-27088400D01*
X1314153Y-27088400D02*
X1286128Y-27066529D01*
X1286128Y-27066529D02*
X1257064Y-27046060D01*
X1257064Y-27046060D02*
X1227031Y-27027042D01*
X1227031Y-27027042D02*
X1196100Y-27009520D01*
X1196100Y-27009520D02*
X1164347Y-26993537D01*
X1164347Y-26993537D02*
X1131848Y-26979131D01*
X1131848Y-26979131D02*
X1098682Y-26966337D01*
X1098682Y-26966337D02*
X1064927Y-26955186D01*
X1064927Y-26955186D02*
X1030666Y-26945705D01*
X1030666Y-26945705D02*
X995981Y-26937916D01*
X995981Y-26937916D02*
X960956Y-26931839D01*
X960956Y-26931839D02*
X925675Y-26927487D01*
X925675Y-26927487D02*
X890222Y-26924872D01*
X890222Y-26924872D02*
X854685Y-26924000D01*
X854685Y-26924000D02*
X-854685Y-26924000D01*
X1800000Y-27869315D02*
X1800000Y-28135000D01*
X1800000Y-27869315D02*
X1799127Y-27833776D01*
X1799127Y-27833776D02*
X1796512Y-27798324D01*
X1796512Y-27798324D02*
X1792160Y-27763043D01*
X1792160Y-27763043D02*
X1786083Y-27728017D01*
X1786083Y-27728017D02*
X1778294Y-27693332D01*
X1778294Y-27693332D02*
X1768813Y-27659071D01*
X1768813Y-27659071D02*
X1757662Y-27625317D01*
X1757662Y-27625317D02*
X1744868Y-27592150D01*
X1744868Y-27592150D02*
X1730462Y-27559651D01*
X1730462Y-27559651D02*
X1714479Y-27527898D01*
X1714479Y-27527898D02*
X1696957Y-27496967D01*
X1696957Y-27496967D02*
X1677939Y-27466934D01*
X1677939Y-27466934D02*
X1657469Y-27437870D01*
X1657469Y-27437870D02*
X1635599Y-27409845D01*
X1635599Y-27409845D02*
X1612379Y-27382927D01*
X1612379Y-27382927D02*
X1587867Y-27357182D01*
X1587867Y-27357182D02*
X1366817Y-27136132D01*
X-1800000Y-27869315D02*
X-1800000Y-28135000D01*
X-1800000Y-27869315D02*
X-1799127Y-27833776D01*
X-1799127Y-27833776D02*
X-1796512Y-27798324D01*
X-1796512Y-27798324D02*
X-1792160Y-27763043D01*
X-1792160Y-27763043D02*
X-1786083Y-27728017D01*
X-1786083Y-27728017D02*
X-1778294Y-27693332D01*
X-1778294Y-27693332D02*
X-1768813Y-27659071D01*
X-1768813Y-27659071D02*
X-1757662Y-27625317D01*
X-1757662Y-27625317D02*
X-1744868Y-27592150D01*
X-1744868Y-27592150D02*
X-1730462Y-27559651D01*
X-1730462Y-27559651D02*
X-1714479Y-27527898D01*
X-1714479Y-27527898D02*
X-1696957Y-27496967D01*
X-1696957Y-27496967D02*
X-1677939Y-27466934D01*
X-1677939Y-27466934D02*
X-1657469Y-27437870D01*
X-1657469Y-27437870D02*
X-1635599Y-27409845D01*
X-1635599Y-27409845D02*
X-1612379Y-27382927D01*
X-1612379Y-27382927D02*
X-1587867Y-27357182D01*
X-1587867Y-27357182D02*
X-1366817Y-27136132D01*
X-2540000Y-30480000D02*
X-2948446Y-30888446D01*
X-2153553Y-30093553D02*
X-2540000Y-30480000D01*
%TO.N,VBUS1*%
X-1587867Y-34357182D02*
X-1612379Y-34382928D01*
X-1612379Y-34382928D02*
X-1635598Y-34409845D01*
X-1635598Y-34409845D02*
X-1657469Y-34437870D01*
X-1657469Y-34437870D02*
X-1677938Y-34466934D01*
X-1677938Y-34466934D02*
X-1696957Y-34496968D01*
X-1696957Y-34496968D02*
X-1714479Y-34527898D01*
X-1714479Y-34527898D02*
X-1730462Y-34559651D01*
X-1730462Y-34559651D02*
X-1744868Y-34592150D01*
X-1744868Y-34592150D02*
X-1757661Y-34625317D01*
X-1757661Y-34625317D02*
X-1768812Y-34659071D01*
X-1768812Y-34659071D02*
X-1778294Y-34693332D01*
X-1778294Y-34693332D02*
X-1786082Y-34728017D01*
X-1786082Y-34728017D02*
X-1792160Y-34763043D01*
X-1792160Y-34763043D02*
X-1796511Y-34798324D01*
X-1796511Y-34798324D02*
X-1799127Y-34833776D01*
X-1799127Y-34833776D02*
X-1800000Y-34869315D01*
X-1800000Y-34869315D02*
X-1800000Y-35135000D01*
X-966685Y-34036000D02*
X-1002222Y-34036872D01*
X-1002222Y-34036872D02*
X-1037675Y-34039487D01*
X-1037675Y-34039487D02*
X-1072956Y-34043839D01*
X-1072956Y-34043839D02*
X-1107981Y-34049916D01*
X-1107981Y-34049916D02*
X-1142666Y-34057705D01*
X-1142666Y-34057705D02*
X-1176927Y-34067186D01*
X-1176927Y-34067186D02*
X-1210682Y-34078337D01*
X-1210682Y-34078337D02*
X-1243848Y-34091131D01*
X-1243848Y-34091131D02*
X-1276347Y-34105537D01*
X-1276347Y-34105537D02*
X-1308100Y-34121520D01*
X-1308100Y-34121520D02*
X-1339031Y-34139042D01*
X-1339031Y-34139042D02*
X-1369064Y-34158060D01*
X-1369064Y-34158060D02*
X-1398128Y-34178529D01*
X-1398128Y-34178529D02*
X-1426153Y-34200400D01*
X-1426153Y-34200400D02*
X-1453070Y-34223619D01*
X-1453070Y-34223619D02*
X-1478817Y-34248132D01*
X-1478817Y-34248132D02*
X-1587867Y-34357182D01*
X1478817Y-34248132D02*
X1453070Y-34223619D01*
X1453070Y-34223619D02*
X1426153Y-34200400D01*
X1426153Y-34200400D02*
X1398128Y-34178529D01*
X1398128Y-34178529D02*
X1369064Y-34158060D01*
X1369064Y-34158060D02*
X1339031Y-34139042D01*
X1339031Y-34139042D02*
X1308100Y-34121520D01*
X1308100Y-34121520D02*
X1276347Y-34105537D01*
X1276347Y-34105537D02*
X1243848Y-34091131D01*
X1243848Y-34091131D02*
X1210682Y-34078337D01*
X1210682Y-34078337D02*
X1176927Y-34067186D01*
X1176927Y-34067186D02*
X1142666Y-34057705D01*
X1142666Y-34057705D02*
X1107981Y-34049916D01*
X1107981Y-34049916D02*
X1072956Y-34043839D01*
X1072956Y-34043839D02*
X1037675Y-34039487D01*
X1037675Y-34039487D02*
X1002222Y-34036872D01*
X1002222Y-34036872D02*
X966685Y-34036000D01*
X966685Y-34036000D02*
X-966685Y-34036000D01*
X1800000Y-34869315D02*
X1800000Y-35135000D01*
X1800000Y-34869315D02*
X1799127Y-34833776D01*
X1799127Y-34833776D02*
X1796512Y-34798324D01*
X1796512Y-34798324D02*
X1792160Y-34763043D01*
X1792160Y-34763043D02*
X1786083Y-34728017D01*
X1786083Y-34728017D02*
X1778294Y-34693332D01*
X1778294Y-34693332D02*
X1768813Y-34659071D01*
X1768813Y-34659071D02*
X1757662Y-34625317D01*
X1757662Y-34625317D02*
X1744868Y-34592150D01*
X1744868Y-34592150D02*
X1730462Y-34559651D01*
X1730462Y-34559651D02*
X1714479Y-34527898D01*
X1714479Y-34527898D02*
X1696957Y-34496967D01*
X1696957Y-34496967D02*
X1677939Y-34466934D01*
X1677939Y-34466934D02*
X1657469Y-34437870D01*
X1657469Y-34437870D02*
X1635599Y-34409845D01*
X1635599Y-34409845D02*
X1612379Y-34382927D01*
X1612379Y-34382927D02*
X1587867Y-34357182D01*
X1587867Y-34357182D02*
X1478817Y-34248132D01*
X-200000Y-37750000D02*
X0Y-37750000D01*
X-200000Y-37750000D02*
X-259229Y-37748545D01*
X-259229Y-37748545D02*
X-318317Y-37744187D01*
X-318317Y-37744187D02*
X-377119Y-37736934D01*
X-377119Y-37736934D02*
X-435494Y-37726805D01*
X-435494Y-37726805D02*
X-493302Y-37713824D01*
X-493302Y-37713824D02*
X-550404Y-37698021D01*
X-550404Y-37698021D02*
X-606661Y-37679436D01*
X-606661Y-37679436D02*
X-661939Y-37658113D01*
X-661939Y-37658113D02*
X-716104Y-37634104D01*
X-716104Y-37634104D02*
X-769025Y-37607465D01*
X-769025Y-37607465D02*
X-820576Y-37578262D01*
X-820576Y-37578262D02*
X-870632Y-37546565D01*
X-870632Y-37546565D02*
X-919072Y-37512449D01*
X-919072Y-37512449D02*
X-965779Y-37475998D01*
X-965779Y-37475998D02*
X-1010642Y-37437299D01*
X-1010642Y-37437299D02*
X-1053553Y-37396446D01*
X-1800000Y-36150000D02*
X-1800000Y-35135000D01*
X-1800000Y-36150000D02*
X-1798545Y-36209229D01*
X-1798545Y-36209229D02*
X-1794187Y-36268317D01*
X-1794187Y-36268317D02*
X-1786934Y-36327119D01*
X-1786934Y-36327119D02*
X-1776805Y-36385494D01*
X-1776805Y-36385494D02*
X-1763824Y-36443302D01*
X-1763824Y-36443302D02*
X-1748021Y-36500404D01*
X-1748021Y-36500404D02*
X-1729436Y-36556661D01*
X-1729436Y-36556661D02*
X-1708113Y-36611939D01*
X-1708113Y-36611939D02*
X-1684104Y-36666104D01*
X-1684104Y-36666104D02*
X-1657465Y-36719025D01*
X-1657465Y-36719025D02*
X-1628262Y-36770576D01*
X-1628262Y-36770576D02*
X-1596565Y-36820632D01*
X-1596565Y-36820632D02*
X-1562449Y-36869072D01*
X-1562449Y-36869072D02*
X-1525998Y-36915779D01*
X-1525998Y-36915779D02*
X-1487299Y-36960642D01*
X-1487299Y-36960642D02*
X-1446446Y-37003553D01*
X-1446446Y-37003553D02*
X-1053553Y-37396446D01*
%TD*%
D22*
%TO.N,+3V3*%
X2601626Y23194014D02*
X4453381Y22910657D01*
X6276451Y22479701D01*
X8059077Y21903928D01*
X9789796Y21187040D01*
X11457434Y20333666D01*
X13051265Y19349296D01*
X14561016Y18240274D01*
X15976967Y17013739D01*
X17289981Y15677605D01*
X18491619Y14240463D01*
X19574124Y12711587D01*
X20530532Y11100812D01*
X21354669Y9418539D01*
X22041241Y7675577D01*
X22585817Y5883165D01*
X22984888Y4052858D01*
X23235887Y2196435D01*
X23337193Y325874D01*
X23288156Y-1546800D01*
X23089090Y-3409494D01*
X22741281Y-5250232D01*
X22246963Y-7057152D01*
X21609327Y-8818602D01*
X20832483Y-10523234D01*
X19921417Y-12160093D01*
X18882023Y-13718600D01*
X17720992Y-15188721D01*
X16445785Y-16561007D01*
X15064639Y-17826593D01*
X13586439Y-18977340D01*
X12012041Y-20011526D01*
X11676797Y-20209000D01*
X11631550Y-20233185D01*
X11531052Y-20315662D01*
X11448575Y-20416161D01*
X11387290Y-20530818D01*
X11349550Y-20655228D01*
X11340000Y-20752192D01*
X11340001Y-40970597D01*
X11268827Y-41768083D01*
X11065344Y-42511890D01*
X10733363Y-43207904D01*
X10283374Y-43834130D01*
X9729597Y-44370777D01*
X9089549Y-44800871D01*
X8383447Y-45110829D01*
X7628543Y-45292065D01*
X6975793Y-45340000D01*
X-6970608Y-45340000D01*
X-7768083Y-45268827D01*
X-8511890Y-45065344D01*
X-9207904Y-44733363D01*
X-9834130Y-44283374D01*
X-10370777Y-43729597D01*
X-10800871Y-43089549D01*
X-11059665Y-42500000D01*
X-5088072Y-42500000D01*
X-5088072Y-44000000D01*
X-5075812Y-44124482D01*
X-5039502Y-44244180D01*
X-4980537Y-44354494D01*
X-4901185Y-44451185D01*
X-4804494Y-44530537D01*
X-4694180Y-44589502D01*
X-4574482Y-44625812D01*
X-4450000Y-44638072D01*
X-3550000Y-44638072D01*
X-3425518Y-44625812D01*
X-3305820Y-44589502D01*
X-3195506Y-44530537D01*
X-3098815Y-44451185D01*
X-3019463Y-44354494D01*
X-2960498Y-44244180D01*
X-2924188Y-44124482D01*
X-2911928Y-44000000D01*
X-2911928Y-42500000D01*
X-1088072Y-42500000D01*
X-1088072Y-44000000D01*
X-1075812Y-44124482D01*
X-1039502Y-44244180D01*
X-980537Y-44354494D01*
X-901185Y-44451185D01*
X-804494Y-44530537D01*
X-694180Y-44589502D01*
X-574482Y-44625812D01*
X-450000Y-44638072D01*
X450000Y-44638072D01*
X574482Y-44625812D01*
X694180Y-44589502D01*
X804494Y-44530537D01*
X901185Y-44451185D01*
X980537Y-44354494D01*
X1000000Y-44318082D01*
X1019463Y-44354494D01*
X1098815Y-44451185D01*
X1195506Y-44530537D01*
X1305820Y-44589502D01*
X1425518Y-44625812D01*
X1550000Y-44638072D01*
X2450000Y-44638072D01*
X2574482Y-44625812D01*
X2694180Y-44589502D01*
X2804494Y-44530537D01*
X2901185Y-44451185D01*
X2980537Y-44354494D01*
X3000000Y-44318082D01*
X3019463Y-44354494D01*
X3098815Y-44451185D01*
X3195506Y-44530537D01*
X3305820Y-44589502D01*
X3425518Y-44625812D01*
X3550000Y-44638072D01*
X4450000Y-44638072D01*
X4574482Y-44625812D01*
X4694180Y-44589502D01*
X4804494Y-44530537D01*
X4901185Y-44451185D01*
X4980537Y-44354494D01*
X5039502Y-44244180D01*
X5075812Y-44124482D01*
X5088072Y-44000000D01*
X5088072Y-42500000D01*
X5075812Y-42375518D01*
X5039502Y-42255820D01*
X4980537Y-42145506D01*
X4901185Y-42048815D01*
X4804494Y-41969463D01*
X4694180Y-41910498D01*
X4574482Y-41874188D01*
X4450000Y-41861928D01*
X3550000Y-41861928D01*
X3425518Y-41874188D01*
X3305820Y-41910498D01*
X3195506Y-41969463D01*
X3098815Y-42048815D01*
X3019463Y-42145506D01*
X3000000Y-42181918D01*
X2980537Y-42145506D01*
X2901185Y-42048815D01*
X2804494Y-41969463D01*
X2694180Y-41910498D01*
X2574482Y-41874188D01*
X2450000Y-41861928D01*
X1550000Y-41861928D01*
X1425518Y-41874188D01*
X1305820Y-41910498D01*
X1195506Y-41969463D01*
X1098815Y-42048815D01*
X1019463Y-42145506D01*
X1000000Y-42181918D01*
X980537Y-42145506D01*
X901185Y-42048815D01*
X804494Y-41969463D01*
X694180Y-41910498D01*
X574482Y-41874188D01*
X450000Y-41861928D01*
X-450000Y-41861928D01*
X-574482Y-41874188D01*
X-694180Y-41910498D01*
X-804494Y-41969463D01*
X-901185Y-42048815D01*
X-980537Y-42145506D01*
X-1039502Y-42255820D01*
X-1075812Y-42375518D01*
X-1088072Y-42500000D01*
X-2911928Y-42500000D01*
X-2924188Y-42375518D01*
X-2960498Y-42255820D01*
X-3019463Y-42145506D01*
X-3098815Y-42048815D01*
X-3195506Y-41969463D01*
X-3305820Y-41910498D01*
X-3425518Y-41874188D01*
X-3550000Y-41861928D01*
X-4450000Y-41861928D01*
X-4574482Y-41874188D01*
X-4694180Y-41910498D01*
X-4804494Y-41969463D01*
X-4901185Y-42048815D01*
X-4980537Y-42145506D01*
X-5039502Y-42255820D01*
X-5075812Y-42375518D01*
X-5088072Y-42500000D01*
X-11059665Y-42500000D01*
X-11110829Y-42383447D01*
X-11292065Y-41628543D01*
X-11340000Y-40975793D01*
X-11340000Y-21624000D01*
X-11066072Y-21624000D01*
X-11066072Y-22524000D01*
X-11053812Y-22648482D01*
X-11017502Y-22768180D01*
X-10958537Y-22878494D01*
X-10879185Y-22975185D01*
X-10782494Y-23054537D01*
X-10672180Y-23113502D01*
X-10628086Y-23126878D01*
X-10627827Y-23128974D01*
X-10623061Y-23150201D01*
X-10619342Y-23171631D01*
X-10613542Y-23192590D01*
X-10610080Y-23208009D01*
X-10606359Y-23229451D01*
X-10600559Y-23250408D01*
X-10595795Y-23271624D01*
X-10588969Y-23292287D01*
X-10584755Y-23307512D01*
X-10579990Y-23328732D01*
X-10573165Y-23349391D01*
X-10567363Y-23370356D01*
X-10559537Y-23390643D01*
X-10554586Y-23405632D01*
X-10548782Y-23426603D01*
X-10540951Y-23446904D01*
X-10534129Y-23467554D01*
X-10525315Y-23487437D01*
X-10519631Y-23502174D01*
X-10512810Y-23522821D01*
X-10503992Y-23542714D01*
X-10496164Y-23563008D01*
X-10486390Y-23582426D01*
X-10479980Y-23596888D01*
X-10472150Y-23617185D01*
X-10462379Y-23636597D01*
X-10453565Y-23656481D01*
X-10442835Y-23675423D01*
X-10435734Y-23689529D01*
X-10426923Y-23709407D01*
X-10416200Y-23728336D01*
X-10406415Y-23747775D01*
X-10394780Y-23766148D01*
X-10387000Y-23779881D01*
X-10377221Y-23799310D01*
X-10365583Y-23817688D01*
X-10354861Y-23836616D01*
X-10342337Y-23854398D01*
X-10333884Y-23867748D01*
X-10323157Y-23886683D01*
X-10310635Y-23904463D01*
X-10299004Y-23922830D01*
X-10285618Y-23939983D01*
X-10276513Y-23952911D01*
X-10264880Y-23971281D01*
X-10251499Y-23988427D01*
X-10238971Y-24006215D01*
X-10224764Y-24022685D01*
X-10215047Y-24035135D01*
X-10202526Y-24052914D01*
X-10188321Y-24069381D01*
X-10174932Y-24086538D01*
X-10159932Y-24102293D01*
X-10149624Y-24114243D01*
X-10136248Y-24131383D01*
X-10121245Y-24147142D01*
X-10107031Y-24163620D01*
X-10091284Y-24178613D01*
X-10087886Y-24182181D01*
X-10080978Y-24190599D01*
X-10057926Y-24213651D01*
X-10035438Y-24237272D01*
X-10027190Y-24244388D01*
X-9130381Y-25141197D01*
X-9123272Y-25149438D01*
X-9099671Y-25171907D01*
X-9076600Y-25194978D01*
X-9068175Y-25201892D01*
X-9064613Y-25205284D01*
X-9049620Y-25221031D01*
X-9033142Y-25235245D01*
X-9017383Y-25250248D01*
X-9000243Y-25263624D01*
X-8988293Y-25273932D01*
X-8972538Y-25288932D01*
X-8955381Y-25302321D01*
X-8938914Y-25316526D01*
X-8921137Y-25329046D01*
X-8908685Y-25338764D01*
X-8892215Y-25352971D01*
X-8874427Y-25365499D01*
X-8857281Y-25378880D01*
X-8838909Y-25390514D01*
X-8825983Y-25399618D01*
X-8808830Y-25413004D01*
X-8790463Y-25424635D01*
X-8772683Y-25437157D01*
X-8753748Y-25447884D01*
X-8740401Y-25456336D01*
X-8722616Y-25468861D01*
X-8703688Y-25479583D01*
X-8685310Y-25491221D01*
X-8665881Y-25501000D01*
X-8652149Y-25508779D01*
X-8633775Y-25520415D01*
X-8614335Y-25530201D01*
X-8595407Y-25540923D01*
X-8575533Y-25549733D01*
X-8561417Y-25556838D01*
X-8542481Y-25567565D01*
X-8522604Y-25576376D01*
X-8503184Y-25586151D01*
X-8482876Y-25593985D01*
X-8468426Y-25600390D01*
X-8449008Y-25610164D01*
X-8428714Y-25617992D01*
X-8408821Y-25626810D01*
X-8388174Y-25633631D01*
X-8373437Y-25639315D01*
X-8353554Y-25648129D01*
X-8332904Y-25654951D01*
X-8312603Y-25662782D01*
X-8291632Y-25668586D01*
X-8276649Y-25673535D01*
X-8256357Y-25681363D01*
X-8235386Y-25687167D01*
X-8214732Y-25693990D01*
X-8193518Y-25698754D01*
X-8178284Y-25702970D01*
X-8157624Y-25709795D01*
X-8136409Y-25714559D01*
X-8115451Y-25720359D01*
X-8094008Y-25724080D01*
X-8078590Y-25727542D01*
X-8057631Y-25733342D01*
X-8036201Y-25737061D01*
X-8014974Y-25741827D01*
X-7993387Y-25744489D01*
X-7977823Y-25747190D01*
X-7956594Y-25751957D01*
X-7935010Y-25754619D01*
X-7913583Y-25758337D01*
X-7891889Y-25759937D01*
X-7876200Y-25761872D01*
X-7854786Y-25765588D01*
X-7833102Y-25767188D01*
X-7811492Y-25769853D01*
X-7789742Y-25770387D01*
X-7774013Y-25771547D01*
X-7752426Y-25774210D01*
X-7730679Y-25774744D01*
X-7708981Y-25776345D01*
X-7687234Y-25775811D01*
X-7682321Y-25775932D01*
X-7671477Y-25777000D01*
X-7638840Y-25777000D01*
X-7606271Y-25777800D01*
X-7595423Y-25777000D01*
X3807157Y-25777000D01*
X3833800Y-25777654D01*
X3849546Y-25778815D01*
X3865224Y-25780749D01*
X3880786Y-25783449D01*
X3896196Y-25786910D01*
X3911431Y-25791126D01*
X3926424Y-25796079D01*
X3941159Y-25801763D01*
X3955597Y-25808163D01*
X3969722Y-25815273D01*
X3983463Y-25823057D01*
X3996798Y-25831501D01*
X4009721Y-25840602D01*
X4022171Y-25850319D01*
X4034138Y-25860641D01*
X4053439Y-25879017D01*
X4734997Y-26560576D01*
X4722992Y-26554159D01*
X4527894Y-26494976D01*
X4325000Y-26474993D01*
X4122105Y-26494976D01*
X3927007Y-26554159D01*
X3747203Y-26650266D01*
X3589604Y-26779604D01*
X3460266Y-26937203D01*
X3364159Y-27117008D01*
X3351074Y-27160143D01*
X3301898Y-27139774D01*
X3101939Y-27100000D01*
X2898061Y-27100000D01*
X2698102Y-27139774D01*
X2542000Y-27204434D01*
X2540514Y-27200583D01*
X2530735Y-27181155D01*
X2521917Y-27161262D01*
X2513146Y-27145779D01*
X2505937Y-27129516D01*
X2495219Y-27110596D01*
X2485436Y-27091160D01*
X2475913Y-27076122D01*
X2467914Y-27060230D01*
X2456279Y-27041857D01*
X2445556Y-27022927D01*
X2435303Y-27008368D01*
X2426526Y-26992876D01*
X2414010Y-26975106D01*
X2402376Y-26956733D01*
X2391422Y-26942697D01*
X2381914Y-26927681D01*
X2368520Y-26910517D01*
X2355986Y-26892721D01*
X2344376Y-26879262D01*
X2334122Y-26864703D01*
X2319928Y-26848248D01*
X2306549Y-26831104D01*
X2294259Y-26818195D01*
X2283308Y-26804163D01*
X2268312Y-26788412D01*
X2254105Y-26771943D01*
X2246524Y-26764726D01*
X2244399Y-26762136D01*
X2221336Y-26739073D01*
X2198837Y-26715442D01*
X2190600Y-26708337D01*
X2015653Y-26533390D01*
X2008546Y-26525151D01*
X1984931Y-26502668D01*
X1961863Y-26479600D01*
X1959269Y-26477471D01*
X1952052Y-26469891D01*
X1935572Y-26455675D01*
X1919822Y-26440680D01*
X1905799Y-26429737D01*
X1892908Y-26417463D01*
X1875767Y-26404086D01*
X1859293Y-26389875D01*
X1844737Y-26379624D01*
X1831261Y-26367999D01*
X1813484Y-26355479D01*
X1796334Y-26342095D01*
X1781293Y-26332570D01*
X1767265Y-26321623D01*
X1748888Y-26309986D01*
X1731105Y-26297462D01*
X1715619Y-26288690D01*
X1701070Y-26278443D01*
X1682148Y-26267724D01*
X1663768Y-26256085D01*
X1647870Y-26248083D01*
X1632838Y-26238564D01*
X1613414Y-26228787D01*
X1594482Y-26218062D01*
X1578213Y-26210851D01*
X1562736Y-26202083D01*
X1542853Y-26193270D01*
X1523415Y-26183485D01*
X1506820Y-26177084D01*
X1490928Y-26169084D01*
X1470621Y-26161251D01*
X1450743Y-26152439D01*
X1433845Y-26146856D01*
X1417569Y-26139642D01*
X1396928Y-26132823D01*
X1376635Y-26124995D01*
X1359475Y-26120246D01*
X1342863Y-26113838D01*
X1321896Y-26108036D01*
X1301249Y-26101215D01*
X1283889Y-26097317D01*
X1266996Y-26091736D01*
X1245763Y-26086968D01*
X1224797Y-26081166D01*
X1207267Y-26078124D01*
X1190108Y-26073376D01*
X1168686Y-26069659D01*
X1147470Y-26064895D01*
X1129803Y-26062716D01*
X1112451Y-26058819D01*
X1090844Y-26056154D01*
X1069410Y-26052435D01*
X1051678Y-26051127D01*
X1034134Y-26048083D01*
X1012445Y-26046483D01*
X990870Y-26043822D01*
X973069Y-26043385D01*
X955395Y-26041205D01*
X933647Y-26040671D01*
X911963Y-26039072D01*
X901501Y-26039329D01*
X898162Y-26039000D01*
X865534Y-26039000D01*
X832931Y-26038200D01*
X822087Y-26039000D01*
X-822087Y-26039000D01*
X-832931Y-26038200D01*
X-865534Y-26039000D01*
X-898162Y-26039000D01*
X-901502Y-26039329D01*
X-911964Y-26039072D01*
X-933648Y-26040671D01*
X-955395Y-26041205D01*
X-973069Y-26043385D01*
X-990871Y-26043822D01*
X-1012447Y-26046483D01*
X-1034134Y-26048083D01*
X-1051678Y-26051127D01*
X-1069410Y-26052435D01*
X-1090844Y-26056154D01*
X-1112451Y-26058819D01*
X-1129803Y-26062716D01*
X-1147470Y-26064895D01*
X-1168683Y-26069659D01*
X-1190109Y-26073376D01*
X-1207269Y-26078125D01*
X-1224797Y-26081166D01*
X-1245763Y-26086968D01*
X-1266996Y-26091736D01*
X-1283889Y-26097317D01*
X-1301249Y-26101215D01*
X-1321896Y-26108036D01*
X-1342863Y-26113838D01*
X-1359476Y-26120246D01*
X-1376635Y-26124995D01*
X-1396928Y-26132823D01*
X-1417569Y-26139642D01*
X-1433845Y-26146856D01*
X-1450743Y-26152439D01*
X-1470624Y-26161252D01*
X-1490928Y-26169084D01*
X-1506820Y-26177084D01*
X-1523415Y-26183485D01*
X-1542843Y-26193264D01*
X-1562736Y-26202082D01*
X-1578219Y-26210853D01*
X-1594482Y-26218062D01*
X-1613402Y-26228780D01*
X-1632838Y-26238563D01*
X-1647876Y-26248086D01*
X-1663768Y-26256085D01*
X-1682141Y-26267720D01*
X-1701071Y-26278443D01*
X-1715620Y-26288689D01*
X-1731104Y-26297461D01*
X-1748891Y-26309988D01*
X-1767265Y-26321623D01*
X-1781293Y-26332571D01*
X-1796334Y-26342095D01*
X-1813485Y-26355480D01*
X-1831261Y-26367999D01*
X-1844738Y-26379624D01*
X-1859293Y-26389875D01*
X-1875760Y-26404079D01*
X-1892909Y-26417463D01*
X-1905800Y-26429736D01*
X-1919822Y-26440679D01*
X-1935581Y-26455683D01*
X-1952052Y-26469891D01*
X-1959269Y-26477471D01*
X-1961863Y-26479600D01*
X-1984925Y-26502662D01*
X-2008546Y-26525151D01*
X-2015653Y-26533390D01*
X-2190605Y-26708342D01*
X-2198836Y-26715442D01*
X-2221326Y-26739063D01*
X-2244399Y-26762136D01*
X-2246521Y-26764722D01*
X-2254106Y-26771943D01*
X-2268315Y-26788415D01*
X-2283308Y-26804162D01*
X-2294268Y-26818205D01*
X-2306548Y-26831104D01*
X-2319919Y-26848238D01*
X-2334122Y-26864703D01*
X-2344376Y-26879262D01*
X-2355986Y-26892721D01*
X-2368517Y-26910513D01*
X-2381914Y-26927680D01*
X-2391426Y-26942701D01*
X-2402376Y-26956733D01*
X-2414003Y-26975094D01*
X-2426527Y-26992876D01*
X-2435310Y-27008379D01*
X-2445556Y-27022928D01*
X-2456275Y-27041850D01*
X-2467914Y-27060230D01*
X-2475916Y-27076128D01*
X-2485435Y-27091160D01*
X-2495212Y-27110584D01*
X-2505937Y-27129516D01*
X-2513148Y-27145785D01*
X-2521916Y-27161262D01*
X-2530729Y-27181145D01*
X-2540514Y-27200583D01*
X-2542000Y-27204434D01*
X-2698102Y-27139774D01*
X-2898061Y-27100000D01*
X-3101939Y-27100000D01*
X-3301898Y-27139774D01*
X-3351074Y-27160143D01*
X-3364159Y-27117007D01*
X-3460266Y-26937203D01*
X-3589604Y-26779604D01*
X-3747203Y-26650266D01*
X-3927008Y-26554159D01*
X-4122106Y-26494976D01*
X-4325000Y-26474993D01*
X-4527895Y-26494976D01*
X-4722993Y-26554159D01*
X-4902797Y-26650266D01*
X-5060396Y-26779604D01*
X-5189734Y-26937203D01*
X-5285841Y-27117008D01*
X-5345024Y-27312106D01*
X-5360000Y-27464163D01*
X-5360000Y-28265838D01*
X-5345024Y-28417895D01*
X-5285840Y-28612993D01*
X-5189733Y-28792797D01*
X-5060395Y-28950396D01*
X-4902796Y-29079734D01*
X-4722992Y-29175841D01*
X-4527894Y-29235024D01*
X-4325000Y-29255007D01*
X-4122105Y-29235024D01*
X-3927007Y-29175841D01*
X-3747203Y-29079734D01*
X-3613399Y-28969924D01*
X-3490256Y-29052205D01*
X-3301898Y-29130226D01*
X-3101939Y-29170000D01*
X-2898061Y-29170000D01*
X-2698102Y-29130226D01*
X-2685000Y-29124799D01*
X-2685000Y-29229160D01*
X-2685654Y-29255813D01*
X-2686814Y-29271542D01*
X-2688748Y-29287225D01*
X-2691448Y-29302781D01*
X-2694912Y-29318211D01*
X-2699123Y-29333427D01*
X-2704077Y-29348422D01*
X-2709760Y-29363154D01*
X-2716165Y-29377605D01*
X-2723268Y-29391717D01*
X-2731052Y-29405457D01*
X-2739506Y-29418807D01*
X-2748602Y-29431722D01*
X-2758321Y-29444176D01*
X-2768630Y-29456128D01*
X-2787014Y-29475436D01*
X-3269506Y-29957928D01*
X-3567500Y-29957928D01*
X-3691982Y-29970188D01*
X-3811680Y-30006498D01*
X-3921994Y-30065463D01*
X-4018685Y-30144815D01*
X-4098037Y-30241506D01*
X-4157002Y-30351820D01*
X-4158573Y-30357000D01*
X-4547411Y-30357000D01*
X-4558256Y-30356200D01*
X-4590844Y-30357000D01*
X-4623477Y-30357000D01*
X-4634312Y-30358067D01*
X-4639228Y-30358188D01*
X-4660967Y-30357654D01*
X-4682660Y-30359254D01*
X-4704412Y-30359788D01*
X-4725999Y-30362450D01*
X-4741757Y-30363613D01*
X-4763506Y-30364147D01*
X-4785083Y-30366808D01*
X-4806772Y-30368408D01*
X-4828211Y-30372128D01*
X-4843894Y-30374062D01*
X-4865583Y-30375662D01*
X-4887010Y-30379380D01*
X-4908609Y-30382044D01*
X-4929840Y-30386812D01*
X-4945387Y-30389510D01*
X-4966974Y-30392172D01*
X-4988201Y-30396938D01*
X-5009631Y-30400657D01*
X-5030590Y-30406457D01*
X-5046004Y-30409918D01*
X-5067437Y-30413637D01*
X-5088401Y-30419438D01*
X-5109624Y-30424204D01*
X-5130275Y-30431026D01*
X-5145514Y-30435243D01*
X-5166732Y-30440008D01*
X-5187374Y-30446827D01*
X-5208343Y-30452630D01*
X-5228648Y-30460463D01*
X-5243632Y-30465412D01*
X-5264603Y-30471216D01*
X-5284904Y-30479047D01*
X-5305554Y-30485869D01*
X-5325437Y-30494683D01*
X-5340179Y-30500369D01*
X-5360834Y-30507193D01*
X-5380721Y-30516008D01*
X-5401008Y-30523834D01*
X-5420432Y-30533611D01*
X-5434878Y-30540015D01*
X-5455173Y-30547843D01*
X-5474606Y-30557625D01*
X-5494493Y-30566440D01*
X-5513416Y-30577160D01*
X-5527530Y-30584264D01*
X-5547407Y-30593075D01*
X-5566326Y-30603792D01*
X-5585763Y-30613576D01*
X-5604146Y-30625217D01*
X-5617898Y-30633007D01*
X-5637321Y-30642784D01*
X-5655684Y-30654412D01*
X-5674616Y-30665137D01*
X-5692412Y-30677670D01*
X-5705741Y-30686111D01*
X-5724672Y-30696835D01*
X-5742464Y-30709366D01*
X-5760840Y-30721002D01*
X-5777981Y-30734379D01*
X-5790906Y-30743482D01*
X-5809281Y-30755118D01*
X-5826420Y-30768493D01*
X-5844205Y-30781019D01*
X-5860683Y-30795233D01*
X-5873137Y-30804952D01*
X-5890914Y-30817472D01*
X-5907381Y-30831677D01*
X-5924538Y-30845066D01*
X-5940293Y-30860066D01*
X-5952247Y-30870378D01*
X-5969391Y-30883757D01*
X-5985144Y-30898754D01*
X-6001620Y-30912967D01*
X-6016620Y-30928722D01*
X-6020182Y-30932114D01*
X-6028599Y-30939021D01*
X-6051665Y-30962087D01*
X-6075279Y-30984569D01*
X-6082387Y-30992809D01*
X-6599191Y-31509613D01*
X-6607431Y-31516721D01*
X-6629913Y-31540335D01*
X-6652978Y-31563400D01*
X-6659885Y-31571816D01*
X-6663277Y-31575379D01*
X-6679031Y-31590378D01*
X-6693243Y-31606854D01*
X-6708241Y-31622607D01*
X-6721620Y-31639751D01*
X-6731932Y-31651705D01*
X-6746932Y-31667460D01*
X-6760321Y-31684617D01*
X-6774526Y-31701084D01*
X-6787047Y-31718863D01*
X-6796764Y-31731313D01*
X-6810971Y-31747783D01*
X-6823499Y-31765571D01*
X-6836880Y-31782717D01*
X-6848513Y-31801087D01*
X-6857618Y-31814015D01*
X-6871004Y-31831168D01*
X-6882635Y-31849535D01*
X-6895157Y-31867315D01*
X-6905884Y-31886250D01*
X-6914337Y-31899600D01*
X-6926861Y-31917382D01*
X-6937583Y-31936310D01*
X-6949221Y-31954688D01*
X-6959000Y-31974117D01*
X-6966780Y-31987850D01*
X-6978415Y-32006223D01*
X-6988200Y-32025662D01*
X-6998923Y-32044591D01*
X-7007734Y-32064469D01*
X-7014832Y-32078569D01*
X-7025559Y-32097505D01*
X-7034376Y-32117396D01*
X-7044150Y-32136813D01*
X-7051977Y-32157103D01*
X-7058388Y-32171566D01*
X-7068165Y-32190990D01*
X-7075991Y-32211277D01*
X-7084806Y-32231164D01*
X-7091630Y-32251819D01*
X-7097319Y-32266567D01*
X-7106137Y-32286462D01*
X-7112956Y-32307104D01*
X-7120783Y-32327395D01*
X-7126589Y-32348374D01*
X-7131538Y-32363357D01*
X-7139362Y-32383639D01*
X-7145168Y-32404619D01*
X-7151995Y-32425285D01*
X-7156756Y-32446490D01*
X-7160969Y-32461710D01*
X-7167795Y-32482374D01*
X-7172559Y-32503588D01*
X-7178358Y-32524543D01*
X-7182079Y-32545986D01*
X-7185540Y-32561401D01*
X-7191343Y-32582369D01*
X-7195063Y-32603806D01*
X-7199827Y-32625024D01*
X-7202489Y-32646610D01*
X-7205188Y-32662160D01*
X-7209955Y-32683390D01*
X-7212620Y-32704996D01*
X-7216337Y-32726419D01*
X-7217936Y-32748100D01*
X-7219872Y-32763793D01*
X-7223591Y-32785228D01*
X-7225190Y-32806912D01*
X-7227852Y-32828492D01*
X-7228386Y-32850244D01*
X-7229548Y-32865990D01*
X-7232210Y-32887573D01*
X-7232745Y-32909334D01*
X-7234345Y-32931034D01*
X-7233811Y-32952767D01*
X-7233932Y-32957681D01*
X-7235000Y-32968524D01*
X-7235000Y-33001160D01*
X-7235800Y-33033730D01*
X-7235000Y-33044579D01*
X-7234999Y-37567409D01*
X-7235800Y-37578271D01*
X-7234999Y-37610881D01*
X-7234999Y-37643477D01*
X-7233932Y-37654307D01*
X-7233811Y-37659233D01*
X-7234345Y-37680965D01*
X-7232745Y-37702664D01*
X-7232210Y-37724427D01*
X-7229547Y-37746011D01*
X-7228386Y-37761755D01*
X-7227852Y-37783507D01*
X-7225190Y-37805087D01*
X-7223591Y-37826771D01*
X-7219872Y-37848206D01*
X-7217937Y-37863895D01*
X-7216337Y-37885583D01*
X-7212619Y-37907010D01*
X-7209955Y-37928609D01*
X-7205187Y-37949840D01*
X-7202489Y-37965387D01*
X-7199827Y-37986974D01*
X-7195061Y-38008201D01*
X-7191342Y-38029631D01*
X-7185542Y-38050590D01*
X-7182080Y-38066009D01*
X-7178359Y-38087451D01*
X-7172559Y-38108408D01*
X-7167795Y-38129624D01*
X-7160969Y-38150287D01*
X-7156755Y-38165512D01*
X-7151990Y-38186732D01*
X-7145165Y-38207391D01*
X-7139363Y-38228356D01*
X-7131537Y-38248643D01*
X-7126586Y-38263632D01*
X-7120782Y-38284603D01*
X-7112951Y-38304904D01*
X-7106129Y-38325554D01*
X-7097315Y-38345437D01*
X-7091631Y-38360174D01*
X-7084810Y-38380821D01*
X-7075992Y-38400714D01*
X-7068164Y-38421008D01*
X-7058390Y-38440426D01*
X-7051980Y-38454888D01*
X-7044150Y-38475185D01*
X-7034379Y-38494597D01*
X-7025565Y-38514481D01*
X-7014835Y-38533423D01*
X-7007734Y-38547529D01*
X-6998923Y-38567407D01*
X-6988200Y-38586336D01*
X-6978415Y-38605775D01*
X-6966780Y-38624148D01*
X-6959000Y-38637881D01*
X-6949221Y-38657310D01*
X-6937583Y-38675688D01*
X-6926861Y-38694616D01*
X-6914337Y-38712398D01*
X-6905884Y-38725748D01*
X-6895157Y-38744683D01*
X-6882635Y-38762463D01*
X-6871004Y-38780830D01*
X-6857618Y-38797983D01*
X-6848513Y-38810911D01*
X-6836880Y-38829281D01*
X-6823499Y-38846427D01*
X-6810971Y-38864215D01*
X-6796764Y-38880685D01*
X-6787047Y-38893135D01*
X-6774526Y-38910914D01*
X-6760321Y-38927381D01*
X-6746932Y-38944538D01*
X-6731932Y-38960293D01*
X-6721624Y-38972243D01*
X-6708248Y-38989383D01*
X-6693245Y-39005142D01*
X-6679031Y-39021620D01*
X-6663284Y-39036613D01*
X-6659886Y-39040181D01*
X-6652978Y-39048599D01*
X-6629926Y-39071651D01*
X-6607438Y-39095272D01*
X-6599189Y-39102388D01*
X-6082387Y-39619190D01*
X-6075272Y-39627438D01*
X-6051651Y-39649926D01*
X-6028599Y-39672978D01*
X-6020181Y-39679887D01*
X-6016613Y-39683284D01*
X-6001620Y-39699031D01*
X-5985142Y-39713245D01*
X-5969383Y-39728248D01*
X-5952243Y-39741624D01*
X-5940293Y-39751932D01*
X-5924538Y-39766932D01*
X-5907381Y-39780321D01*
X-5890914Y-39794526D01*
X-5873137Y-39807046D01*
X-5860685Y-39816764D01*
X-5844215Y-39830971D01*
X-5826427Y-39843499D01*
X-5809281Y-39856880D01*
X-5790909Y-39868514D01*
X-5777983Y-39877618D01*
X-5760830Y-39891004D01*
X-5742463Y-39902635D01*
X-5724683Y-39915157D01*
X-5705748Y-39925884D01*
X-5692401Y-39934336D01*
X-5674616Y-39946861D01*
X-5655688Y-39957583D01*
X-5637310Y-39969221D01*
X-5617881Y-39979000D01*
X-5604149Y-39986779D01*
X-5585775Y-39998415D01*
X-5566335Y-40008201D01*
X-5547407Y-40018923D01*
X-5527533Y-40027733D01*
X-5513417Y-40034838D01*
X-5494481Y-40045565D01*
X-5474604Y-40054376D01*
X-5455184Y-40064151D01*
X-5434876Y-40071985D01*
X-5420426Y-40078390D01*
X-5401008Y-40088164D01*
X-5380714Y-40095992D01*
X-5360821Y-40104810D01*
X-5340174Y-40111631D01*
X-5325437Y-40117315D01*
X-5305554Y-40126129D01*
X-5284904Y-40132951D01*
X-5264603Y-40140782D01*
X-5243632Y-40146586D01*
X-5228649Y-40151535D01*
X-5208357Y-40159363D01*
X-5187386Y-40165167D01*
X-5166732Y-40171990D01*
X-5145518Y-40176754D01*
X-5130284Y-40180970D01*
X-5109624Y-40187795D01*
X-5088409Y-40192559D01*
X-5067451Y-40198359D01*
X-5046008Y-40202080D01*
X-5030590Y-40205542D01*
X-5009631Y-40211342D01*
X-4988201Y-40215061D01*
X-4966974Y-40219827D01*
X-4945387Y-40222489D01*
X-4929823Y-40225190D01*
X-4908594Y-40229957D01*
X-4887010Y-40232619D01*
X-4865583Y-40236337D01*
X-4843889Y-40237937D01*
X-4828200Y-40239872D01*
X-4806786Y-40243588D01*
X-4785102Y-40245188D01*
X-4763492Y-40247853D01*
X-4741742Y-40248387D01*
X-4726013Y-40249547D01*
X-4704426Y-40252210D01*
X-4682679Y-40252744D01*
X-4660981Y-40254345D01*
X-4639234Y-40253811D01*
X-4634321Y-40253932D01*
X-4623477Y-40255000D01*
X-4590840Y-40255000D01*
X-4558271Y-40255800D01*
X-4547423Y-40255000D01*
X-3807523Y-40255000D01*
X-3835000Y-40393137D01*
X-3835000Y-40606863D01*
X-3793304Y-40816483D01*
X-3711515Y-41013940D01*
X-3592775Y-41191647D01*
X-3441647Y-41342775D01*
X-3263940Y-41461515D01*
X-3066483Y-41543304D01*
X-2856863Y-41585000D01*
X-2643137Y-41585000D01*
X-2433517Y-41543304D01*
X-2236060Y-41461515D01*
X-2058353Y-41342775D01*
X-1907225Y-41191647D01*
X-1788485Y-41013940D01*
X-1706696Y-40816483D01*
X-1665000Y-40606863D01*
X-1665000Y-40393137D01*
X1665000Y-40393137D01*
X1665000Y-40606863D01*
X1706696Y-40816483D01*
X1788485Y-41013940D01*
X1907225Y-41191647D01*
X2058353Y-41342775D01*
X2236060Y-41461515D01*
X2433517Y-41543304D01*
X2643137Y-41585000D01*
X2856863Y-41585000D01*
X3066483Y-41543304D01*
X3263940Y-41461515D01*
X3441647Y-41342775D01*
X3592775Y-41191647D01*
X3711515Y-41013940D01*
X3793304Y-40816483D01*
X3835000Y-40606863D01*
X3835000Y-40393137D01*
X3793304Y-40183517D01*
X3711515Y-39986060D01*
X3592775Y-39808353D01*
X3441647Y-39657225D01*
X3263940Y-39538485D01*
X3066483Y-39456696D01*
X2856863Y-39415000D01*
X2643137Y-39415000D01*
X2433517Y-39456696D01*
X2236060Y-39538485D01*
X2058353Y-39657225D01*
X1907225Y-39808353D01*
X1788485Y-39986060D01*
X1706696Y-40183517D01*
X1665000Y-40393137D01*
X-1665000Y-40393137D01*
X-1692477Y-40255000D01*
X483423Y-40255000D01*
X494271Y-40255800D01*
X526841Y-40255000D01*
X559477Y-40255000D01*
X570321Y-40253932D01*
X575233Y-40253811D01*
X596965Y-40254345D01*
X618664Y-40252745D01*
X640427Y-40252210D01*
X662011Y-40249547D01*
X677755Y-40248386D01*
X699507Y-40247852D01*
X721087Y-40245190D01*
X742771Y-40243591D01*
X764206Y-40239872D01*
X779895Y-40237937D01*
X801583Y-40236337D01*
X823010Y-40232619D01*
X844609Y-40229955D01*
X865840Y-40225187D01*
X881387Y-40222489D01*
X902974Y-40219827D01*
X924201Y-40215061D01*
X945631Y-40211342D01*
X966590Y-40205542D01*
X982009Y-40202080D01*
X1003451Y-40198359D01*
X1024408Y-40192559D01*
X1045624Y-40187795D01*
X1066287Y-40180969D01*
X1081512Y-40176755D01*
X1102732Y-40171990D01*
X1123391Y-40165165D01*
X1144356Y-40159363D01*
X1164643Y-40151537D01*
X1179632Y-40146586D01*
X1200603Y-40140782D01*
X1220904Y-40132951D01*
X1241554Y-40126129D01*
X1261437Y-40117315D01*
X1276174Y-40111631D01*
X1296821Y-40104810D01*
X1316714Y-40095992D01*
X1337008Y-40088164D01*
X1356426Y-40078390D01*
X1370888Y-40071980D01*
X1391185Y-40064150D01*
X1410597Y-40054379D01*
X1430481Y-40045565D01*
X1449423Y-40034835D01*
X1463529Y-40027734D01*
X1483407Y-40018923D01*
X1502336Y-40008200D01*
X1521775Y-39998415D01*
X1540148Y-39986780D01*
X1553881Y-39979000D01*
X1573310Y-39969221D01*
X1591688Y-39957583D01*
X1610616Y-39946861D01*
X1628398Y-39934337D01*
X1641748Y-39925884D01*
X1660683Y-39915157D01*
X1678463Y-39902635D01*
X1696830Y-39891004D01*
X1713983Y-39877618D01*
X1726911Y-39868513D01*
X1745281Y-39856880D01*
X1762427Y-39843499D01*
X1780215Y-39830971D01*
X1796685Y-39816764D01*
X1809135Y-39807047D01*
X1826914Y-39794526D01*
X1843381Y-39780321D01*
X1860538Y-39766932D01*
X1876293Y-39751932D01*
X1888243Y-39741624D01*
X1905383Y-39728248D01*
X1921142Y-39713245D01*
X1937620Y-39699031D01*
X1952613Y-39683284D01*
X1956181Y-39679886D01*
X1964599Y-39672978D01*
X1987652Y-39649925D01*
X2011272Y-39627438D01*
X2018387Y-39619190D01*
X2504915Y-39132664D01*
X2574482Y-39125812D01*
X2694180Y-39089502D01*
X2804494Y-39030537D01*
X2901185Y-38951185D01*
X2980537Y-38854494D01*
X3000000Y-38818082D01*
X3019463Y-38854494D01*
X3098815Y-38951185D01*
X3195506Y-39030537D01*
X3305820Y-39089502D01*
X3425518Y-39125812D01*
X3550000Y-39138072D01*
X4450000Y-39138072D01*
X4574482Y-39125812D01*
X4694180Y-39089502D01*
X4804494Y-39030537D01*
X4901185Y-38951185D01*
X4980537Y-38854494D01*
X5039502Y-38744180D01*
X5075812Y-38624482D01*
X5083286Y-38548597D01*
X5090675Y-38545747D01*
X5105394Y-38540395D01*
X5125267Y-38534896D01*
X5145561Y-38527068D01*
X5166220Y-38520243D01*
X5186103Y-38511429D01*
X5189793Y-38510006D01*
X5210446Y-38503183D01*
X5230323Y-38494372D01*
X5250617Y-38486544D01*
X5270052Y-38476762D01*
X5273672Y-38475157D01*
X5293959Y-38467331D01*
X5313373Y-38457558D01*
X5333272Y-38448738D01*
X5352212Y-38438008D01*
X5355719Y-38436243D01*
X5375603Y-38427429D01*
X5394532Y-38416706D01*
X5413965Y-38406924D01*
X5432342Y-38395287D01*
X5435751Y-38393356D01*
X5455198Y-38383567D01*
X5473593Y-38371919D01*
X5492500Y-38361208D01*
X5510267Y-38348695D01*
X5513642Y-38346558D01*
X5532558Y-38335842D01*
X5550319Y-38323333D01*
X5568707Y-38311689D01*
X5585876Y-38298290D01*
X5589070Y-38296040D01*
X5607453Y-38284400D01*
X5624622Y-38271002D01*
X5642402Y-38258479D01*
X5658856Y-38244285D01*
X5661980Y-38241847D01*
X5679771Y-38229317D01*
X5696229Y-38215120D01*
X5713370Y-38201743D01*
X5729137Y-38186732D01*
X5732114Y-38184164D01*
X5749248Y-38170793D01*
X5765018Y-38155780D01*
X5781502Y-38141560D01*
X5793615Y-38128837D01*
X5799888Y-38123689D01*
X5822942Y-38100635D01*
X5846555Y-38078155D01*
X5853671Y-38069906D01*
X6091190Y-37832387D01*
X6099438Y-37825272D01*
X6121926Y-37801651D01*
X6144978Y-37778599D01*
X6151886Y-37770181D01*
X6155284Y-37766613D01*
X6171031Y-37751620D01*
X6185245Y-37735142D01*
X6200248Y-37719383D01*
X6213624Y-37702243D01*
X6223932Y-37690293D01*
X6238932Y-37674538D01*
X6252321Y-37657381D01*
X6266526Y-37640914D01*
X6279046Y-37623137D01*
X6288764Y-37610685D01*
X6302971Y-37594215D01*
X6315499Y-37576427D01*
X6328880Y-37559281D01*
X6340514Y-37540909D01*
X6349618Y-37527983D01*
X6363004Y-37510830D01*
X6374635Y-37492463D01*
X6387157Y-37474683D01*
X6397884Y-37455748D01*
X6406336Y-37442401D01*
X6418861Y-37424616D01*
X6429583Y-37405688D01*
X6441221Y-37387310D01*
X6451000Y-37367881D01*
X6458779Y-37354149D01*
X6470415Y-37335775D01*
X6480201Y-37316335D01*
X6490923Y-37297407D01*
X6499733Y-37277533D01*
X6506838Y-37263417D01*
X6517565Y-37244481D01*
X6526376Y-37224604D01*
X6536151Y-37205184D01*
X6543985Y-37184876D01*
X6550390Y-37170426D01*
X6560164Y-37151008D01*
X6567992Y-37130714D01*
X6576810Y-37110821D01*
X6583631Y-37090174D01*
X6589315Y-37075437D01*
X6598129Y-37055554D01*
X6604951Y-37034904D01*
X6612782Y-37014603D01*
X6618586Y-36993632D01*
X6623535Y-36978649D01*
X6631363Y-36958357D01*
X6637167Y-36937386D01*
X6643990Y-36916732D01*
X6648754Y-36895518D01*
X6652970Y-36880284D01*
X6659795Y-36859624D01*
X6664559Y-36838409D01*
X6670359Y-36817451D01*
X6674080Y-36796008D01*
X6677542Y-36780590D01*
X6683342Y-36759631D01*
X6687061Y-36738201D01*
X6691827Y-36716974D01*
X6694489Y-36695387D01*
X6697187Y-36679840D01*
X6701955Y-36658609D01*
X6704619Y-36637010D01*
X6708337Y-36615583D01*
X6709937Y-36593894D01*
X6711871Y-36578211D01*
X6715591Y-36556772D01*
X6717191Y-36535083D01*
X6719852Y-36513506D01*
X6720386Y-36491757D01*
X6721548Y-36476007D01*
X6724210Y-36454426D01*
X6724744Y-36432668D01*
X6726345Y-36410967D01*
X6725811Y-36389233D01*
X6725932Y-36384321D01*
X6727000Y-36373477D01*
X6727000Y-36340840D01*
X6727800Y-36308271D01*
X6727000Y-36297423D01*
X6727000Y-32138127D01*
X6747122Y-32071794D01*
X6762072Y-31920000D01*
X6762072Y-31580000D01*
X6747122Y-31428206D01*
X6727000Y-31361873D01*
X6727000Y-30269477D01*
X6731282Y-30226000D01*
X6727000Y-30182523D01*
X6727000Y-26948578D01*
X6727800Y-26937730D01*
X6727000Y-26905160D01*
X6727000Y-26872523D01*
X6725932Y-26861679D01*
X6725811Y-26856766D01*
X6726345Y-26835032D01*
X6724744Y-26813331D01*
X6724210Y-26791573D01*
X6721548Y-26769992D01*
X6720386Y-26754242D01*
X6719852Y-26732493D01*
X6717191Y-26710916D01*
X6715591Y-26689227D01*
X6711871Y-26667788D01*
X6709936Y-26652101D01*
X6708337Y-26630419D01*
X6704620Y-26608995D01*
X6701955Y-26587390D01*
X6697188Y-26566161D01*
X6694489Y-26550610D01*
X6691827Y-26529024D01*
X6687063Y-26507806D01*
X6683343Y-26486369D01*
X6677540Y-26465400D01*
X6674079Y-26449987D01*
X6670358Y-26428543D01*
X6664559Y-26407588D01*
X6659795Y-26386374D01*
X6652969Y-26365711D01*
X6648756Y-26350490D01*
X6643995Y-26329285D01*
X6637168Y-26308619D01*
X6631362Y-26287639D01*
X6623538Y-26267356D01*
X6618589Y-26252374D01*
X6612783Y-26231395D01*
X6604956Y-26211104D01*
X6598137Y-26190462D01*
X6589319Y-26170567D01*
X6583630Y-26155819D01*
X6576806Y-26135164D01*
X6567991Y-26115277D01*
X6560165Y-26094990D01*
X6550388Y-26075566D01*
X6543982Y-26061115D01*
X6536151Y-26040814D01*
X6526373Y-26021389D01*
X6517559Y-26001505D01*
X6506834Y-25982573D01*
X6499733Y-25968465D01*
X6490923Y-25948591D01*
X6480201Y-25929663D01*
X6470415Y-25910223D01*
X6458779Y-25891849D01*
X6451000Y-25878117D01*
X6441221Y-25858688D01*
X6429583Y-25840310D01*
X6418861Y-25821382D01*
X6406336Y-25803597D01*
X6397884Y-25790250D01*
X6387157Y-25771315D01*
X6374635Y-25753535D01*
X6363004Y-25735168D01*
X6349618Y-25718015D01*
X6340514Y-25705089D01*
X6328880Y-25686717D01*
X6315499Y-25669571D01*
X6302971Y-25651783D01*
X6288764Y-25635313D01*
X6279046Y-25622861D01*
X6266526Y-25605084D01*
X6252321Y-25588617D01*
X6238932Y-25571460D01*
X6223932Y-25555705D01*
X6213620Y-25543751D01*
X6200241Y-25526607D01*
X6185242Y-25510853D01*
X6171031Y-25494378D01*
X6155281Y-25479383D01*
X6151888Y-25475819D01*
X6144978Y-25467399D01*
X6121909Y-25444330D01*
X6099431Y-25420720D01*
X6091191Y-25413612D01*
X5320387Y-24642808D01*
X5313279Y-24634569D01*
X5289665Y-24612087D01*
X5266599Y-24589021D01*
X5258183Y-24582114D01*
X5254620Y-24578722D01*
X5239620Y-24562967D01*
X5223144Y-24548754D01*
X5207391Y-24533757D01*
X5190247Y-24520378D01*
X5178293Y-24510066D01*
X5162538Y-24495066D01*
X5145381Y-24481677D01*
X5128914Y-24467472D01*
X5111135Y-24454951D01*
X5098681Y-24445231D01*
X5082205Y-24431019D01*
X5064421Y-24418494D01*
X5047281Y-24405118D01*
X5028905Y-24393482D01*
X5015985Y-24384382D01*
X4998840Y-24371002D01*
X4980459Y-24359362D01*
X4962673Y-24346836D01*
X4943756Y-24336120D01*
X4930401Y-24327663D01*
X4912616Y-24315137D01*
X4893697Y-24304419D01*
X4875321Y-24292783D01*
X4855882Y-24282998D01*
X4842146Y-24275217D01*
X4823763Y-24263576D01*
X4804327Y-24253793D01*
X4785407Y-24243075D01*
X4765527Y-24234263D01*
X4751420Y-24227162D01*
X4732493Y-24216440D01*
X4712599Y-24207622D01*
X4693172Y-24197843D01*
X4672884Y-24190017D01*
X4658432Y-24183611D01*
X4639008Y-24173834D01*
X4618721Y-24166008D01*
X4598834Y-24157193D01*
X4578179Y-24150369D01*
X4563437Y-24144683D01*
X4543554Y-24135869D01*
X4522904Y-24129047D01*
X4502603Y-24121216D01*
X4481632Y-24115412D01*
X4466648Y-24110463D01*
X4446343Y-24102630D01*
X4425374Y-24096827D01*
X4404732Y-24090008D01*
X4383511Y-24085243D01*
X4368276Y-24081027D01*
X4347624Y-24074204D01*
X4326401Y-24069438D01*
X4305437Y-24063637D01*
X4284004Y-24059918D01*
X4268590Y-24056457D01*
X4247631Y-24050657D01*
X4226201Y-24046938D01*
X4204974Y-24042172D01*
X4183387Y-24039510D01*
X4167840Y-24036812D01*
X4146609Y-24032044D01*
X4125010Y-24029380D01*
X4103583Y-24025662D01*
X4081895Y-24024062D01*
X4066206Y-24022127D01*
X4044771Y-24018408D01*
X4023087Y-24016809D01*
X4001507Y-24014147D01*
X3979755Y-24013613D01*
X3964001Y-24012451D01*
X3942412Y-24009788D01*
X3920658Y-24009254D01*
X3898965Y-24007654D01*
X3877227Y-24008188D01*
X3872312Y-24008067D01*
X3861477Y-24007000D01*
X3828844Y-24007000D01*
X3796256Y-24006200D01*
X3785411Y-24007000D01*
X-7617152Y-24007000D01*
X-7643782Y-24006346D01*
X-7659543Y-24005183D01*
X-7675238Y-24003247D01*
X-7690786Y-24000550D01*
X-7706195Y-23997089D01*
X-7721420Y-23992876D01*
X-7736424Y-23987919D01*
X-7751166Y-23982233D01*
X-7765603Y-23975833D01*
X-7779709Y-23968733D01*
X-7793464Y-23960941D01*
X-7806805Y-23952493D01*
X-7819717Y-23943399D01*
X-7832171Y-23933679D01*
X-7844138Y-23923357D01*
X-7863430Y-23904990D01*
X-8740759Y-23027662D01*
X-8676815Y-22975185D01*
X-8597463Y-22878494D01*
X-8538498Y-22768180D01*
X-8502188Y-22648482D01*
X-8489928Y-22524000D01*
X-8489928Y-21624000D01*
X-8502188Y-21499518D01*
X-8538498Y-21379820D01*
X-8597463Y-21269506D01*
X-8676815Y-21172815D01*
X-8773506Y-21093463D01*
X-8883820Y-21034498D01*
X-9003518Y-20998188D01*
X-9128000Y-20985928D01*
X-10428000Y-20985928D01*
X-10552482Y-20998188D01*
X-10672180Y-21034498D01*
X-10782494Y-21093463D01*
X-10879185Y-21172815D01*
X-10958537Y-21269506D01*
X-11017502Y-21379820D01*
X-11053812Y-21499518D01*
X-11066072Y-21624000D01*
X-11340000Y-21624000D01*
X-11340000Y-20752191D01*
X-11349550Y-20655227D01*
X-11387290Y-20530817D01*
X-11448575Y-20416160D01*
X-11531052Y-20315662D01*
X-11631551Y-20233185D01*
X-11667651Y-20213889D01*
X-13253170Y-19211565D01*
X-14751226Y-18086793D01*
X-15218509Y-17673376D01*
X-13103864Y-17673376D01*
X-13088914Y-17825170D01*
X-13044637Y-17971131D01*
X-12972735Y-18105650D01*
X-12875972Y-18223556D01*
X-12635556Y-18463972D01*
X-12517650Y-18560735D01*
X-12383131Y-18632637D01*
X-12237170Y-18676914D01*
X-12085376Y-18691864D01*
X-11933582Y-18676914D01*
X-11787621Y-18632637D01*
X-11670481Y-18570024D01*
X-11709821Y-18628901D01*
X-11742237Y-18707159D01*
X-11743588Y-18709687D01*
X-11744420Y-18712429D01*
X-11776836Y-18790688D01*
X-11793359Y-18873754D01*
X-11794195Y-18876510D01*
X-11794477Y-18879376D01*
X-11811000Y-18962441D01*
X-11811000Y-19047147D01*
X-11811281Y-19050000D01*
X-11811000Y-19052853D01*
X-11811000Y-19137559D01*
X-11794477Y-19220624D01*
X-11794195Y-19223490D01*
X-11793359Y-19226246D01*
X-11776836Y-19309312D01*
X-11744420Y-19387571D01*
X-11743588Y-19390313D01*
X-11742237Y-19392841D01*
X-11709821Y-19471099D01*
X-11662766Y-19541521D01*
X-11661410Y-19544059D01*
X-11659584Y-19546283D01*
X-11612531Y-19616704D01*
X-11528643Y-19700592D01*
X-11526817Y-19702817D01*
X-11524592Y-19704643D01*
X-11488704Y-19740531D01*
X-11446508Y-19768725D01*
X-11392059Y-19813411D01*
X-11238313Y-19895589D01*
X-11071490Y-19946195D01*
X-10941477Y-19959000D01*
X-10941467Y-19959000D01*
X-10898001Y-19963281D01*
X-10889631Y-19962457D01*
X-10879185Y-19975185D01*
X-10782494Y-20054537D01*
X-10672180Y-20113502D01*
X-10552482Y-20149812D01*
X-10428000Y-20162072D01*
X-9128000Y-20162072D01*
X-9003518Y-20149812D01*
X-8883820Y-20113502D01*
X-8773506Y-20054537D01*
X-8676815Y-19975185D01*
X-8597463Y-19878494D01*
X-8538498Y-19768180D01*
X-8502188Y-19648482D01*
X-8489928Y-19524000D01*
X-8489928Y-18624000D01*
X-8502188Y-18499518D01*
X-8538498Y-18379820D01*
X-8597463Y-18269506D01*
X-8676815Y-18172815D01*
X-8773506Y-18093463D01*
X-8883820Y-18034498D01*
X-8927205Y-18021337D01*
X-8991179Y-17866891D01*
X-9088469Y-17721286D01*
X-9212296Y-17597459D01*
X-9357901Y-17500169D01*
X-9519688Y-17433154D01*
X-9691441Y-17398990D01*
X-9866559Y-17398990D01*
X-10038312Y-17433154D01*
X-10200099Y-17500169D01*
X-10345704Y-17597459D01*
X-10469531Y-17721286D01*
X-10566821Y-17866891D01*
X-10631083Y-18022031D01*
X-10672180Y-18034498D01*
X-10782494Y-18093463D01*
X-10864788Y-18161000D01*
X-10919147Y-18161000D01*
X-10922000Y-18160719D01*
X-10924853Y-18161000D01*
X-11009559Y-18161000D01*
X-11092624Y-18177523D01*
X-11095490Y-18177805D01*
X-11098246Y-18178641D01*
X-11181312Y-18195164D01*
X-11259571Y-18227580D01*
X-11262313Y-18228412D01*
X-11264841Y-18229763D01*
X-11329443Y-18256522D01*
X-11240443Y-18148076D01*
X-11168541Y-18013557D01*
X-11162155Y-17992505D01*
X-11117296Y-17962531D01*
X-10993469Y-17838704D01*
X-10896179Y-17693099D01*
X-10829164Y-17531312D01*
X-10795000Y-17359559D01*
X-10795000Y-17184441D01*
X-10829164Y-17012688D01*
X-10896179Y-16850901D01*
X-10993469Y-16705296D01*
X-11117296Y-16581469D01*
X-11262901Y-16484179D01*
X-11424688Y-16417164D01*
X-11596441Y-16383000D01*
X-11771559Y-16383000D01*
X-11943312Y-16417164D01*
X-12105099Y-16484179D01*
X-12250704Y-16581469D01*
X-12374531Y-16705296D01*
X-12404505Y-16750155D01*
X-12425557Y-16756541D01*
X-12560076Y-16828443D01*
X-12677982Y-16925206D01*
X-12875972Y-17123196D01*
X-12972735Y-17241102D01*
X-13044637Y-17375621D01*
X-13088914Y-17521582D01*
X-13103864Y-17673376D01*
X-15218509Y-17673376D01*
X-16154259Y-16845495D01*
X-17453209Y-15495685D01*
X-18639721Y-14046052D01*
X-19706162Y-12505916D01*
X-20645652Y-10885212D01*
X-21452128Y-9194400D01*
X-22120413Y-7444335D01*
X-22646186Y-5646333D01*
X-23026069Y-3811942D01*
X-23257613Y-1952999D01*
X-23339326Y-81471D01*
X-23296003Y1100000D01*
X-21838072Y1100000D01*
X-21838072Y-1100000D01*
X-21825812Y-1224482D01*
X-21789502Y-1344180D01*
X-21730537Y-1454494D01*
X-21651185Y-1551185D01*
X-21554494Y-1630537D01*
X-21444180Y-1689502D01*
X-21324482Y-1725812D01*
X-21200000Y-1738072D01*
X-19000000Y-1738072D01*
X-18875518Y-1725812D01*
X-18755820Y-1689502D01*
X-18645506Y-1630537D01*
X-18605047Y-1597333D01*
X-18597920Y-1749223D01*
X-18352400Y-3483074D01*
X-17945599Y-5186315D01*
X-17381092Y-6843979D01*
X-16663839Y-8441498D01*
X-15800143Y-9964832D01*
X-14797595Y-11400596D01*
X-14268418Y-12024612D01*
X-14337328Y-12031399D01*
X-14457026Y-12067709D01*
X-14567340Y-12126674D01*
X-14664031Y-12206026D01*
X-16219666Y-13761661D01*
X-16299018Y-13858352D01*
X-16357983Y-13968666D01*
X-16394293Y-14088364D01*
X-16406553Y-14212846D01*
X-16394293Y-14337328D01*
X-16357983Y-14457026D01*
X-16299018Y-14567340D01*
X-16219666Y-14664031D01*
X-14664031Y-16219666D01*
X-14567340Y-16299018D01*
X-14457026Y-16357983D01*
X-14337328Y-16394293D01*
X-14212846Y-16406553D01*
X-14088364Y-16394293D01*
X-13968666Y-16357983D01*
X-13858352Y-16299018D01*
X-13761661Y-16219666D01*
X-12206026Y-14664031D01*
X-12126674Y-14567340D01*
X-12067709Y-14457026D01*
X-12031399Y-14337328D01*
X-12025056Y-14272924D01*
X-11050569Y-15060788D01*
X-9591698Y-16029402D01*
X-8048535Y-16857149D01*
X-6434641Y-17536756D01*
X-4764199Y-18062248D01*
X-3051889Y-18429009D01*
X-1593783Y-18600721D01*
X-1630537Y-18645506D01*
X-1689502Y-18755820D01*
X-1725812Y-18875518D01*
X-1738072Y-19000000D01*
X-1738072Y-21200000D01*
X-1725812Y-21324482D01*
X-1689502Y-21444180D01*
X-1630537Y-21554494D01*
X-1551185Y-21651185D01*
X-1454494Y-21730537D01*
X-1344180Y-21789502D01*
X-1224482Y-21825812D01*
X-1100000Y-21838072D01*
X1100000Y-21838072D01*
X1224482Y-21825812D01*
X1344180Y-21789502D01*
X1454494Y-21730537D01*
X1551185Y-21651185D01*
X1630537Y-21554494D01*
X1689502Y-21444180D01*
X1725812Y-21324482D01*
X1738072Y-21200000D01*
X1738072Y-19000000D01*
X1725812Y-18875518D01*
X1689502Y-18755820D01*
X1630537Y-18645506D01*
X1588130Y-18593832D01*
X2184725Y-18551802D01*
X3912344Y-18265705D01*
X5605581Y-17819087D01*
X7249556Y-17215875D01*
X8829821Y-16461369D01*
X10332490Y-15562199D01*
X11744356Y-14526269D01*
X12025397Y-14276383D01*
X12031399Y-14337328D01*
X12067709Y-14457026D01*
X12126674Y-14567340D01*
X12206026Y-14664031D01*
X13761661Y-16219666D01*
X13858352Y-16299018D01*
X13968666Y-16357983D01*
X14088364Y-16394293D01*
X14212846Y-16406553D01*
X14337328Y-16394293D01*
X14457026Y-16357983D01*
X14567340Y-16299018D01*
X14664031Y-16219666D01*
X16219666Y-14664031D01*
X16299018Y-14567340D01*
X16357983Y-14457026D01*
X16394293Y-14337328D01*
X16406553Y-14212846D01*
X16394293Y-14088364D01*
X16357983Y-13968666D01*
X16299018Y-13858352D01*
X16219666Y-13761661D01*
X14664031Y-12206026D01*
X14567340Y-12126674D01*
X14457026Y-12067709D01*
X14337328Y-12031399D01*
X14289326Y-12026671D01*
X15315703Y-10694468D01*
X16249851Y-9213292D01*
X17041195Y-7651148D01*
X17682781Y-6021766D01*
X18168969Y-4339464D01*
X18495489Y-2619027D01*
X18592549Y-1587076D01*
X18645506Y-1630537D01*
X18755820Y-1689502D01*
X18875518Y-1725812D01*
X19000000Y-1738072D01*
X21200000Y-1738072D01*
X21324482Y-1725812D01*
X21444180Y-1689502D01*
X21554494Y-1630537D01*
X21651185Y-1551185D01*
X21730537Y-1454494D01*
X21789502Y-1344180D01*
X21825812Y-1224482D01*
X21838072Y-1100000D01*
X21838072Y1100000D01*
X21825812Y1224482D01*
X21789502Y1344180D01*
X21730537Y1454494D01*
X21651185Y1551185D01*
X21554494Y1630537D01*
X21444180Y1689502D01*
X21324482Y1725812D01*
X21200000Y1738072D01*
X19000000Y1738072D01*
X18875518Y1725812D01*
X18755820Y1689502D01*
X18645506Y1630537D01*
X18592549Y1587076D01*
X18495489Y2619027D01*
X18168969Y4339464D01*
X17682781Y6021766D01*
X17041195Y7651148D01*
X16249851Y9213292D01*
X15315703Y10694468D01*
X14289326Y12026671D01*
X14337328Y12031399D01*
X14457026Y12067709D01*
X14567340Y12126674D01*
X14664031Y12206026D01*
X16219666Y13761661D01*
X16299018Y13858352D01*
X16357983Y13968666D01*
X16394293Y14088364D01*
X16406553Y14212846D01*
X16394293Y14337328D01*
X16357983Y14457026D01*
X16299018Y14567340D01*
X16219666Y14664031D01*
X14664031Y16219666D01*
X14567340Y16299018D01*
X14457026Y16357983D01*
X14337328Y16394293D01*
X14212846Y16406553D01*
X14088364Y16394293D01*
X13968666Y16357983D01*
X13858352Y16299018D01*
X13761661Y16219666D01*
X12206026Y14664031D01*
X12126674Y14567340D01*
X12067709Y14457026D01*
X12031399Y14337328D01*
X12025397Y14276383D01*
X11744356Y14526269D01*
X10332490Y15562199D01*
X8829821Y16461369D01*
X7249556Y17215875D01*
X5605581Y17819087D01*
X3912344Y18265705D01*
X2184725Y18551802D01*
X1588130Y18593832D01*
X1630537Y18645506D01*
X1689502Y18755820D01*
X1725812Y18875518D01*
X1738072Y19000000D01*
X1738072Y21200000D01*
X1725812Y21324482D01*
X1689502Y21444180D01*
X1630537Y21554494D01*
X1551185Y21651185D01*
X1454494Y21730537D01*
X1344180Y21789502D01*
X1224482Y21825812D01*
X1100000Y21838072D01*
X-1100000Y21838072D01*
X-1224482Y21825812D01*
X-1344180Y21789502D01*
X-1454494Y21730537D01*
X-1551185Y21651185D01*
X-1630537Y21554494D01*
X-1689502Y21444180D01*
X-1725812Y21324482D01*
X-1738072Y21200000D01*
X-1738072Y19000000D01*
X-1725812Y18875518D01*
X-1689502Y18755820D01*
X-1630537Y18645506D01*
X-1593783Y18600721D01*
X-3051889Y18429009D01*
X-4764199Y18062248D01*
X-6434641Y17536756D01*
X-8048535Y16857149D01*
X-9591698Y16029402D01*
X-11050569Y15060788D01*
X-12025056Y14272924D01*
X-12031399Y14337328D01*
X-12067709Y14457026D01*
X-12126674Y14567340D01*
X-12206026Y14664031D01*
X-13761661Y16219666D01*
X-13858352Y16299018D01*
X-13968666Y16357983D01*
X-14088364Y16394293D01*
X-14212846Y16406553D01*
X-14337328Y16394293D01*
X-14457026Y16357983D01*
X-14567340Y16299018D01*
X-14664031Y16219666D01*
X-16219666Y14664031D01*
X-16299018Y14567340D01*
X-16357983Y14457026D01*
X-16394293Y14337328D01*
X-16406553Y14212846D01*
X-16394293Y14088364D01*
X-16357983Y13968666D01*
X-16299018Y13858352D01*
X-16219666Y13761661D01*
X-14664031Y12206026D01*
X-14567340Y12126674D01*
X-14457026Y12067709D01*
X-14337328Y12031399D01*
X-14268418Y12024612D01*
X-14797595Y11400596D01*
X-15800143Y9964832D01*
X-16663839Y8441498D01*
X-17381092Y6843979D01*
X-17945599Y5186315D01*
X-18352400Y3483074D01*
X-18597920Y1749223D01*
X-18605047Y1597333D01*
X-18645506Y1630537D01*
X-18755820Y1689502D01*
X-18875518Y1725812D01*
X-19000000Y1738072D01*
X-21200000Y1738072D01*
X-21324482Y1725812D01*
X-21444180Y1689502D01*
X-21554494Y1630537D01*
X-21651185Y1551185D01*
X-21730537Y1454494D01*
X-21789502Y1344180D01*
X-21825812Y1224482D01*
X-21838072Y1100000D01*
X-23296003Y1100000D01*
X-23270680Y1790580D01*
X-23052120Y3651098D01*
X-22685050Y5488101D01*
X-22171847Y7289720D01*
X-21515791Y9044419D01*
X-20721142Y10740813D01*
X-19792993Y12368032D01*
X-18737332Y13915573D01*
X-17560964Y15373461D01*
X-16271463Y16732312D01*
X-14877139Y17983367D01*
X-13386970Y19118572D01*
X-11810561Y20130609D01*
X-10158061Y21012962D01*
X-8440122Y21759943D01*
X-6667815Y22366740D01*
X-4852548Y22829446D01*
X-3006023Y23145077D01*
X-1140131Y23311604D01*
X733110Y23327952D01*
X2601626Y23194014D01*
%TA.AperFunction,Conductor*%
D23*
G36*
X2601626Y23194014D02*
G01*
X4453381Y22910657D01*
X6276451Y22479701D01*
X8059077Y21903928D01*
X9789796Y21187040D01*
X11457434Y20333666D01*
X13051265Y19349296D01*
X14561016Y18240274D01*
X15976967Y17013739D01*
X17289981Y15677605D01*
X18491619Y14240463D01*
X19574124Y12711587D01*
X20530532Y11100812D01*
X21354669Y9418539D01*
X22041241Y7675577D01*
X22585817Y5883165D01*
X22984888Y4052858D01*
X23235887Y2196435D01*
X23337193Y325874D01*
X23288156Y-1546800D01*
X23089090Y-3409494D01*
X22741281Y-5250232D01*
X22246963Y-7057152D01*
X21609327Y-8818602D01*
X20832483Y-10523234D01*
X19921417Y-12160093D01*
X18882023Y-13718600D01*
X17720992Y-15188721D01*
X16445785Y-16561007D01*
X15064639Y-17826593D01*
X13586439Y-18977340D01*
X12012041Y-20011526D01*
X11676797Y-20209000D01*
X11631550Y-20233185D01*
X11531052Y-20315662D01*
X11448575Y-20416161D01*
X11387290Y-20530818D01*
X11349550Y-20655228D01*
X11340000Y-20752192D01*
X11340001Y-40970597D01*
X11268827Y-41768083D01*
X11065344Y-42511890D01*
X10733363Y-43207904D01*
X10283374Y-43834130D01*
X9729597Y-44370777D01*
X9089549Y-44800871D01*
X8383447Y-45110829D01*
X7628543Y-45292065D01*
X6975793Y-45340000D01*
X-6970608Y-45340000D01*
X-7768083Y-45268827D01*
X-8511890Y-45065344D01*
X-9207904Y-44733363D01*
X-9834130Y-44283374D01*
X-10370777Y-43729597D01*
X-10800871Y-43089549D01*
X-11059665Y-42500000D01*
X-5088072Y-42500000D01*
X-5088072Y-44000000D01*
X-5075812Y-44124482D01*
X-5039502Y-44244180D01*
X-4980537Y-44354494D01*
X-4901185Y-44451185D01*
X-4804494Y-44530537D01*
X-4694180Y-44589502D01*
X-4574482Y-44625812D01*
X-4450000Y-44638072D01*
X-3550000Y-44638072D01*
X-3425518Y-44625812D01*
X-3305820Y-44589502D01*
X-3195506Y-44530537D01*
X-3098815Y-44451185D01*
X-3019463Y-44354494D01*
X-2960498Y-44244180D01*
X-2924188Y-44124482D01*
X-2911928Y-44000000D01*
X-2911928Y-42500000D01*
X-1088072Y-42500000D01*
X-1088072Y-44000000D01*
X-1075812Y-44124482D01*
X-1039502Y-44244180D01*
X-980537Y-44354494D01*
X-901185Y-44451185D01*
X-804494Y-44530537D01*
X-694180Y-44589502D01*
X-574482Y-44625812D01*
X-450000Y-44638072D01*
X450000Y-44638072D01*
X574482Y-44625812D01*
X694180Y-44589502D01*
X804494Y-44530537D01*
X901185Y-44451185D01*
X980537Y-44354494D01*
X1000000Y-44318082D01*
X1019463Y-44354494D01*
X1098815Y-44451185D01*
X1195506Y-44530537D01*
X1305820Y-44589502D01*
X1425518Y-44625812D01*
X1550000Y-44638072D01*
X2450000Y-44638072D01*
X2574482Y-44625812D01*
X2694180Y-44589502D01*
X2804494Y-44530537D01*
X2901185Y-44451185D01*
X2980537Y-44354494D01*
X3000000Y-44318082D01*
X3019463Y-44354494D01*
X3098815Y-44451185D01*
X3195506Y-44530537D01*
X3305820Y-44589502D01*
X3425518Y-44625812D01*
X3550000Y-44638072D01*
X4450000Y-44638072D01*
X4574482Y-44625812D01*
X4694180Y-44589502D01*
X4804494Y-44530537D01*
X4901185Y-44451185D01*
X4980537Y-44354494D01*
X5039502Y-44244180D01*
X5075812Y-44124482D01*
X5088072Y-44000000D01*
X5088072Y-42500000D01*
X5075812Y-42375518D01*
X5039502Y-42255820D01*
X4980537Y-42145506D01*
X4901185Y-42048815D01*
X4804494Y-41969463D01*
X4694180Y-41910498D01*
X4574482Y-41874188D01*
X4450000Y-41861928D01*
X3550000Y-41861928D01*
X3425518Y-41874188D01*
X3305820Y-41910498D01*
X3195506Y-41969463D01*
X3098815Y-42048815D01*
X3019463Y-42145506D01*
X3000000Y-42181918D01*
X2980537Y-42145506D01*
X2901185Y-42048815D01*
X2804494Y-41969463D01*
X2694180Y-41910498D01*
X2574482Y-41874188D01*
X2450000Y-41861928D01*
X1550000Y-41861928D01*
X1425518Y-41874188D01*
X1305820Y-41910498D01*
X1195506Y-41969463D01*
X1098815Y-42048815D01*
X1019463Y-42145506D01*
X1000000Y-42181918D01*
X980537Y-42145506D01*
X901185Y-42048815D01*
X804494Y-41969463D01*
X694180Y-41910498D01*
X574482Y-41874188D01*
X450000Y-41861928D01*
X-450000Y-41861928D01*
X-574482Y-41874188D01*
X-694180Y-41910498D01*
X-804494Y-41969463D01*
X-901185Y-42048815D01*
X-980537Y-42145506D01*
X-1039502Y-42255820D01*
X-1075812Y-42375518D01*
X-1088072Y-42500000D01*
X-2911928Y-42500000D01*
X-2924188Y-42375518D01*
X-2960498Y-42255820D01*
X-3019463Y-42145506D01*
X-3098815Y-42048815D01*
X-3195506Y-41969463D01*
X-3305820Y-41910498D01*
X-3425518Y-41874188D01*
X-3550000Y-41861928D01*
X-4450000Y-41861928D01*
X-4574482Y-41874188D01*
X-4694180Y-41910498D01*
X-4804494Y-41969463D01*
X-4901185Y-42048815D01*
X-4980537Y-42145506D01*
X-5039502Y-42255820D01*
X-5075812Y-42375518D01*
X-5088072Y-42500000D01*
X-11059665Y-42500000D01*
X-11110829Y-42383447D01*
X-11292065Y-41628543D01*
X-11340000Y-40975793D01*
X-11340000Y-21624000D01*
X-11066072Y-21624000D01*
X-11066072Y-22524000D01*
X-11053812Y-22648482D01*
X-11017502Y-22768180D01*
X-10958537Y-22878494D01*
X-10879185Y-22975185D01*
X-10782494Y-23054537D01*
X-10672180Y-23113502D01*
X-10628086Y-23126878D01*
X-10627827Y-23128974D01*
X-10623061Y-23150201D01*
X-10619342Y-23171631D01*
X-10613542Y-23192590D01*
X-10610080Y-23208009D01*
X-10606359Y-23229451D01*
X-10600559Y-23250408D01*
X-10595795Y-23271624D01*
X-10588969Y-23292287D01*
X-10584755Y-23307512D01*
X-10579990Y-23328732D01*
X-10573165Y-23349391D01*
X-10567363Y-23370356D01*
X-10559537Y-23390643D01*
X-10554586Y-23405632D01*
X-10548782Y-23426603D01*
X-10540951Y-23446904D01*
X-10534129Y-23467554D01*
X-10525315Y-23487437D01*
X-10519631Y-23502174D01*
X-10512810Y-23522821D01*
X-10503992Y-23542714D01*
X-10496164Y-23563008D01*
X-10486390Y-23582426D01*
X-10479980Y-23596888D01*
X-10472150Y-23617185D01*
X-10462379Y-23636597D01*
X-10453565Y-23656481D01*
X-10442835Y-23675423D01*
X-10435734Y-23689529D01*
X-10426923Y-23709407D01*
X-10416200Y-23728336D01*
X-10406415Y-23747775D01*
X-10394780Y-23766148D01*
X-10387000Y-23779881D01*
X-10377221Y-23799310D01*
X-10365583Y-23817688D01*
X-10354861Y-23836616D01*
X-10342337Y-23854398D01*
X-10333884Y-23867748D01*
X-10323157Y-23886683D01*
X-10310635Y-23904463D01*
X-10299004Y-23922830D01*
X-10285618Y-23939983D01*
X-10276513Y-23952911D01*
X-10264880Y-23971281D01*
X-10251499Y-23988427D01*
X-10238971Y-24006215D01*
X-10224764Y-24022685D01*
X-10215047Y-24035135D01*
X-10202526Y-24052914D01*
X-10188321Y-24069381D01*
X-10174932Y-24086538D01*
X-10159932Y-24102293D01*
X-10149624Y-24114243D01*
X-10136248Y-24131383D01*
X-10121245Y-24147142D01*
X-10107031Y-24163620D01*
X-10091284Y-24178613D01*
X-10087886Y-24182181D01*
X-10080978Y-24190599D01*
X-10057926Y-24213651D01*
X-10035438Y-24237272D01*
X-10027190Y-24244388D01*
X-9130381Y-25141197D01*
X-9123272Y-25149438D01*
X-9099671Y-25171907D01*
X-9076600Y-25194978D01*
X-9068175Y-25201892D01*
X-9064613Y-25205284D01*
X-9049620Y-25221031D01*
X-9033142Y-25235245D01*
X-9017383Y-25250248D01*
X-9000243Y-25263624D01*
X-8988293Y-25273932D01*
X-8972538Y-25288932D01*
X-8955381Y-25302321D01*
X-8938914Y-25316526D01*
X-8921137Y-25329046D01*
X-8908685Y-25338764D01*
X-8892215Y-25352971D01*
X-8874427Y-25365499D01*
X-8857281Y-25378880D01*
X-8838909Y-25390514D01*
X-8825983Y-25399618D01*
X-8808830Y-25413004D01*
X-8790463Y-25424635D01*
X-8772683Y-25437157D01*
X-8753748Y-25447884D01*
X-8740401Y-25456336D01*
X-8722616Y-25468861D01*
X-8703688Y-25479583D01*
X-8685310Y-25491221D01*
X-8665881Y-25501000D01*
X-8652149Y-25508779D01*
X-8633775Y-25520415D01*
X-8614335Y-25530201D01*
X-8595407Y-25540923D01*
X-8575533Y-25549733D01*
X-8561417Y-25556838D01*
X-8542481Y-25567565D01*
X-8522604Y-25576376D01*
X-8503184Y-25586151D01*
X-8482876Y-25593985D01*
X-8468426Y-25600390D01*
X-8449008Y-25610164D01*
X-8428714Y-25617992D01*
X-8408821Y-25626810D01*
X-8388174Y-25633631D01*
X-8373437Y-25639315D01*
X-8353554Y-25648129D01*
X-8332904Y-25654951D01*
X-8312603Y-25662782D01*
X-8291632Y-25668586D01*
X-8276649Y-25673535D01*
X-8256357Y-25681363D01*
X-8235386Y-25687167D01*
X-8214732Y-25693990D01*
X-8193518Y-25698754D01*
X-8178284Y-25702970D01*
X-8157624Y-25709795D01*
X-8136409Y-25714559D01*
X-8115451Y-25720359D01*
X-8094008Y-25724080D01*
X-8078590Y-25727542D01*
X-8057631Y-25733342D01*
X-8036201Y-25737061D01*
X-8014974Y-25741827D01*
X-7993387Y-25744489D01*
X-7977823Y-25747190D01*
X-7956594Y-25751957D01*
X-7935010Y-25754619D01*
X-7913583Y-25758337D01*
X-7891889Y-25759937D01*
X-7876200Y-25761872D01*
X-7854786Y-25765588D01*
X-7833102Y-25767188D01*
X-7811492Y-25769853D01*
X-7789742Y-25770387D01*
X-7774013Y-25771547D01*
X-7752426Y-25774210D01*
X-7730679Y-25774744D01*
X-7708981Y-25776345D01*
X-7687234Y-25775811D01*
X-7682321Y-25775932D01*
X-7671477Y-25777000D01*
X-7638840Y-25777000D01*
X-7606271Y-25777800D01*
X-7595423Y-25777000D01*
X3807157Y-25777000D01*
X3833800Y-25777654D01*
X3849546Y-25778815D01*
X3865224Y-25780749D01*
X3880786Y-25783449D01*
X3896196Y-25786910D01*
X3911431Y-25791126D01*
X3926424Y-25796079D01*
X3941159Y-25801763D01*
X3955597Y-25808163D01*
X3969722Y-25815273D01*
X3983463Y-25823057D01*
X3996798Y-25831501D01*
X4009721Y-25840602D01*
X4022171Y-25850319D01*
X4034138Y-25860641D01*
X4053439Y-25879017D01*
X4734997Y-26560576D01*
X4722992Y-26554159D01*
X4527894Y-26494976D01*
X4325000Y-26474993D01*
X4122105Y-26494976D01*
X3927007Y-26554159D01*
X3747203Y-26650266D01*
X3589604Y-26779604D01*
X3460266Y-26937203D01*
X3364159Y-27117008D01*
X3351074Y-27160143D01*
X3301898Y-27139774D01*
X3101939Y-27100000D01*
X2898061Y-27100000D01*
X2698102Y-27139774D01*
X2542000Y-27204434D01*
X2540514Y-27200583D01*
X2530735Y-27181155D01*
X2521917Y-27161262D01*
X2513146Y-27145779D01*
X2505937Y-27129516D01*
X2495219Y-27110596D01*
X2485436Y-27091160D01*
X2475913Y-27076122D01*
X2467914Y-27060230D01*
X2456279Y-27041857D01*
X2445556Y-27022927D01*
X2435303Y-27008368D01*
X2426526Y-26992876D01*
X2414010Y-26975106D01*
X2402376Y-26956733D01*
X2391422Y-26942697D01*
X2381914Y-26927681D01*
X2368520Y-26910517D01*
X2355986Y-26892721D01*
X2344376Y-26879262D01*
X2334122Y-26864703D01*
X2319928Y-26848248D01*
X2306549Y-26831104D01*
X2294259Y-26818195D01*
X2283308Y-26804163D01*
X2268312Y-26788412D01*
X2254105Y-26771943D01*
X2246524Y-26764726D01*
X2244399Y-26762136D01*
X2221336Y-26739073D01*
X2198837Y-26715442D01*
X2190600Y-26708337D01*
X2015653Y-26533390D01*
X2008546Y-26525151D01*
X1984931Y-26502668D01*
X1961863Y-26479600D01*
X1959269Y-26477471D01*
X1952052Y-26469891D01*
X1935572Y-26455675D01*
X1919822Y-26440680D01*
X1905799Y-26429737D01*
X1892908Y-26417463D01*
X1875767Y-26404086D01*
X1859293Y-26389875D01*
X1844737Y-26379624D01*
X1831261Y-26367999D01*
X1813484Y-26355479D01*
X1796334Y-26342095D01*
X1781293Y-26332570D01*
X1767265Y-26321623D01*
X1748888Y-26309986D01*
X1731105Y-26297462D01*
X1715619Y-26288690D01*
X1701070Y-26278443D01*
X1682148Y-26267724D01*
X1663768Y-26256085D01*
X1647870Y-26248083D01*
X1632838Y-26238564D01*
X1613414Y-26228787D01*
X1594482Y-26218062D01*
X1578213Y-26210851D01*
X1562736Y-26202083D01*
X1542853Y-26193270D01*
X1523415Y-26183485D01*
X1506820Y-26177084D01*
X1490928Y-26169084D01*
X1470621Y-26161251D01*
X1450743Y-26152439D01*
X1433845Y-26146856D01*
X1417569Y-26139642D01*
X1396928Y-26132823D01*
X1376635Y-26124995D01*
X1359475Y-26120246D01*
X1342863Y-26113838D01*
X1321896Y-26108036D01*
X1301249Y-26101215D01*
X1283889Y-26097317D01*
X1266996Y-26091736D01*
X1245763Y-26086968D01*
X1224797Y-26081166D01*
X1207267Y-26078124D01*
X1190108Y-26073376D01*
X1168686Y-26069659D01*
X1147470Y-26064895D01*
X1129803Y-26062716D01*
X1112451Y-26058819D01*
X1090844Y-26056154D01*
X1069410Y-26052435D01*
X1051678Y-26051127D01*
X1034134Y-26048083D01*
X1012445Y-26046483D01*
X990870Y-26043822D01*
X973069Y-26043385D01*
X955395Y-26041205D01*
X933647Y-26040671D01*
X911963Y-26039072D01*
X901501Y-26039329D01*
X898162Y-26039000D01*
X865534Y-26039000D01*
X832931Y-26038200D01*
X822087Y-26039000D01*
X-822087Y-26039000D01*
X-832931Y-26038200D01*
X-865534Y-26039000D01*
X-898162Y-26039000D01*
X-901502Y-26039329D01*
X-911964Y-26039072D01*
X-933648Y-26040671D01*
X-955395Y-26041205D01*
X-973069Y-26043385D01*
X-990871Y-26043822D01*
X-1012447Y-26046483D01*
X-1034134Y-26048083D01*
X-1051678Y-26051127D01*
X-1069410Y-26052435D01*
X-1090844Y-26056154D01*
X-1112451Y-26058819D01*
X-1129803Y-26062716D01*
X-1147470Y-26064895D01*
X-1168683Y-26069659D01*
X-1190109Y-26073376D01*
X-1207269Y-26078125D01*
X-1224797Y-26081166D01*
X-1245763Y-26086968D01*
X-1266996Y-26091736D01*
X-1283889Y-26097317D01*
X-1301249Y-26101215D01*
X-1321896Y-26108036D01*
X-1342863Y-26113838D01*
X-1359476Y-26120246D01*
X-1376635Y-26124995D01*
X-1396928Y-26132823D01*
X-1417569Y-26139642D01*
X-1433845Y-26146856D01*
X-1450743Y-26152439D01*
X-1470624Y-26161252D01*
X-1490928Y-26169084D01*
X-1506820Y-26177084D01*
X-1523415Y-26183485D01*
X-1542843Y-26193264D01*
X-1562736Y-26202082D01*
X-1578219Y-26210853D01*
X-1594482Y-26218062D01*
X-1613402Y-26228780D01*
X-1632838Y-26238563D01*
X-1647876Y-26248086D01*
X-1663768Y-26256085D01*
X-1682141Y-26267720D01*
X-1701071Y-26278443D01*
X-1715620Y-26288689D01*
X-1731104Y-26297461D01*
X-1748891Y-26309988D01*
X-1767265Y-26321623D01*
X-1781293Y-26332571D01*
X-1796334Y-26342095D01*
X-1813485Y-26355480D01*
X-1831261Y-26367999D01*
X-1844738Y-26379624D01*
X-1859293Y-26389875D01*
X-1875760Y-26404079D01*
X-1892909Y-26417463D01*
X-1905800Y-26429736D01*
X-1919822Y-26440679D01*
X-1935581Y-26455683D01*
X-1952052Y-26469891D01*
X-1959269Y-26477471D01*
X-1961863Y-26479600D01*
X-1984925Y-26502662D01*
X-2008546Y-26525151D01*
X-2015653Y-26533390D01*
X-2190605Y-26708342D01*
X-2198836Y-26715442D01*
X-2221326Y-26739063D01*
X-2244399Y-26762136D01*
X-2246521Y-26764722D01*
X-2254106Y-26771943D01*
X-2268315Y-26788415D01*
X-2283308Y-26804162D01*
X-2294268Y-26818205D01*
X-2306548Y-26831104D01*
X-2319919Y-26848238D01*
X-2334122Y-26864703D01*
X-2344376Y-26879262D01*
X-2355986Y-26892721D01*
X-2368517Y-26910513D01*
X-2381914Y-26927680D01*
X-2391426Y-26942701D01*
X-2402376Y-26956733D01*
X-2414003Y-26975094D01*
X-2426527Y-26992876D01*
X-2435310Y-27008379D01*
X-2445556Y-27022928D01*
X-2456275Y-27041850D01*
X-2467914Y-27060230D01*
X-2475916Y-27076128D01*
X-2485435Y-27091160D01*
X-2495212Y-27110584D01*
X-2505937Y-27129516D01*
X-2513148Y-27145785D01*
X-2521916Y-27161262D01*
X-2530729Y-27181145D01*
X-2540514Y-27200583D01*
X-2542000Y-27204434D01*
X-2698102Y-27139774D01*
X-2898061Y-27100000D01*
X-3101939Y-27100000D01*
X-3301898Y-27139774D01*
X-3351074Y-27160143D01*
X-3364159Y-27117007D01*
X-3460266Y-26937203D01*
X-3589604Y-26779604D01*
X-3747203Y-26650266D01*
X-3927008Y-26554159D01*
X-4122106Y-26494976D01*
X-4325000Y-26474993D01*
X-4527895Y-26494976D01*
X-4722993Y-26554159D01*
X-4902797Y-26650266D01*
X-5060396Y-26779604D01*
X-5189734Y-26937203D01*
X-5285841Y-27117008D01*
X-5345024Y-27312106D01*
X-5360000Y-27464163D01*
X-5360000Y-28265838D01*
X-5345024Y-28417895D01*
X-5285840Y-28612993D01*
X-5189733Y-28792797D01*
X-5060395Y-28950396D01*
X-4902796Y-29079734D01*
X-4722992Y-29175841D01*
X-4527894Y-29235024D01*
X-4325000Y-29255007D01*
X-4122105Y-29235024D01*
X-3927007Y-29175841D01*
X-3747203Y-29079734D01*
X-3613399Y-28969924D01*
X-3490256Y-29052205D01*
X-3301898Y-29130226D01*
X-3101939Y-29170000D01*
X-2898061Y-29170000D01*
X-2698102Y-29130226D01*
X-2685000Y-29124799D01*
X-2685000Y-29229160D01*
X-2685654Y-29255813D01*
X-2686814Y-29271542D01*
X-2688748Y-29287225D01*
X-2691448Y-29302781D01*
X-2694912Y-29318211D01*
X-2699123Y-29333427D01*
X-2704077Y-29348422D01*
X-2709760Y-29363154D01*
X-2716165Y-29377605D01*
X-2723268Y-29391717D01*
X-2731052Y-29405457D01*
X-2739506Y-29418807D01*
X-2748602Y-29431722D01*
X-2758321Y-29444176D01*
X-2768630Y-29456128D01*
X-2787014Y-29475436D01*
X-3269506Y-29957928D01*
X-3567500Y-29957928D01*
X-3691982Y-29970188D01*
X-3811680Y-30006498D01*
X-3921994Y-30065463D01*
X-4018685Y-30144815D01*
X-4098037Y-30241506D01*
X-4157002Y-30351820D01*
X-4158573Y-30357000D01*
X-4547411Y-30357000D01*
X-4558256Y-30356200D01*
X-4590844Y-30357000D01*
X-4623477Y-30357000D01*
X-4634312Y-30358067D01*
X-4639228Y-30358188D01*
X-4660967Y-30357654D01*
X-4682660Y-30359254D01*
X-4704412Y-30359788D01*
X-4725999Y-30362450D01*
X-4741757Y-30363613D01*
X-4763506Y-30364147D01*
X-4785083Y-30366808D01*
X-4806772Y-30368408D01*
X-4828211Y-30372128D01*
X-4843894Y-30374062D01*
X-4865583Y-30375662D01*
X-4887010Y-30379380D01*
X-4908609Y-30382044D01*
X-4929840Y-30386812D01*
X-4945387Y-30389510D01*
X-4966974Y-30392172D01*
X-4988201Y-30396938D01*
X-5009631Y-30400657D01*
X-5030590Y-30406457D01*
X-5046004Y-30409918D01*
X-5067437Y-30413637D01*
X-5088401Y-30419438D01*
X-5109624Y-30424204D01*
X-5130275Y-30431026D01*
X-5145514Y-30435243D01*
X-5166732Y-30440008D01*
X-5187374Y-30446827D01*
X-5208343Y-30452630D01*
X-5228648Y-30460463D01*
X-5243632Y-30465412D01*
X-5264603Y-30471216D01*
X-5284904Y-30479047D01*
X-5305554Y-30485869D01*
X-5325437Y-30494683D01*
X-5340179Y-30500369D01*
X-5360834Y-30507193D01*
X-5380721Y-30516008D01*
X-5401008Y-30523834D01*
X-5420432Y-30533611D01*
X-5434878Y-30540015D01*
X-5455173Y-30547843D01*
X-5474606Y-30557625D01*
X-5494493Y-30566440D01*
X-5513416Y-30577160D01*
X-5527530Y-30584264D01*
X-5547407Y-30593075D01*
X-5566326Y-30603792D01*
X-5585763Y-30613576D01*
X-5604146Y-30625217D01*
X-5617898Y-30633007D01*
X-5637321Y-30642784D01*
X-5655684Y-30654412D01*
X-5674616Y-30665137D01*
X-5692412Y-30677670D01*
X-5705741Y-30686111D01*
X-5724672Y-30696835D01*
X-5742464Y-30709366D01*
X-5760840Y-30721002D01*
X-5777981Y-30734379D01*
X-5790906Y-30743482D01*
X-5809281Y-30755118D01*
X-5826420Y-30768493D01*
X-5844205Y-30781019D01*
X-5860683Y-30795233D01*
X-5873137Y-30804952D01*
X-5890914Y-30817472D01*
X-5907381Y-30831677D01*
X-5924538Y-30845066D01*
X-5940293Y-30860066D01*
X-5952247Y-30870378D01*
X-5969391Y-30883757D01*
X-5985144Y-30898754D01*
X-6001620Y-30912967D01*
X-6016620Y-30928722D01*
X-6020182Y-30932114D01*
X-6028599Y-30939021D01*
X-6051665Y-30962087D01*
X-6075279Y-30984569D01*
X-6082387Y-30992809D01*
X-6599191Y-31509613D01*
X-6607431Y-31516721D01*
X-6629913Y-31540335D01*
X-6652978Y-31563400D01*
X-6659885Y-31571816D01*
X-6663277Y-31575379D01*
X-6679031Y-31590378D01*
X-6693243Y-31606854D01*
X-6708241Y-31622607D01*
X-6721620Y-31639751D01*
X-6731932Y-31651705D01*
X-6746932Y-31667460D01*
X-6760321Y-31684617D01*
X-6774526Y-31701084D01*
X-6787047Y-31718863D01*
X-6796764Y-31731313D01*
X-6810971Y-31747783D01*
X-6823499Y-31765571D01*
X-6836880Y-31782717D01*
X-6848513Y-31801087D01*
X-6857618Y-31814015D01*
X-6871004Y-31831168D01*
X-6882635Y-31849535D01*
X-6895157Y-31867315D01*
X-6905884Y-31886250D01*
X-6914337Y-31899600D01*
X-6926861Y-31917382D01*
X-6937583Y-31936310D01*
X-6949221Y-31954688D01*
X-6959000Y-31974117D01*
X-6966780Y-31987850D01*
X-6978415Y-32006223D01*
X-6988200Y-32025662D01*
X-6998923Y-32044591D01*
X-7007734Y-32064469D01*
X-7014832Y-32078569D01*
X-7025559Y-32097505D01*
X-7034376Y-32117396D01*
X-7044150Y-32136813D01*
X-7051977Y-32157103D01*
X-7058388Y-32171566D01*
X-7068165Y-32190990D01*
X-7075991Y-32211277D01*
X-7084806Y-32231164D01*
X-7091630Y-32251819D01*
X-7097319Y-32266567D01*
X-7106137Y-32286462D01*
X-7112956Y-32307104D01*
X-7120783Y-32327395D01*
X-7126589Y-32348374D01*
X-7131538Y-32363357D01*
X-7139362Y-32383639D01*
X-7145168Y-32404619D01*
X-7151995Y-32425285D01*
X-7156756Y-32446490D01*
X-7160969Y-32461710D01*
X-7167795Y-32482374D01*
X-7172559Y-32503588D01*
X-7178358Y-32524543D01*
X-7182079Y-32545986D01*
X-7185540Y-32561401D01*
X-7191343Y-32582369D01*
X-7195063Y-32603806D01*
X-7199827Y-32625024D01*
X-7202489Y-32646610D01*
X-7205188Y-32662160D01*
X-7209955Y-32683390D01*
X-7212620Y-32704996D01*
X-7216337Y-32726419D01*
X-7217936Y-32748100D01*
X-7219872Y-32763793D01*
X-7223591Y-32785228D01*
X-7225190Y-32806912D01*
X-7227852Y-32828492D01*
X-7228386Y-32850244D01*
X-7229548Y-32865990D01*
X-7232210Y-32887573D01*
X-7232745Y-32909334D01*
X-7234345Y-32931034D01*
X-7233811Y-32952767D01*
X-7233932Y-32957681D01*
X-7235000Y-32968524D01*
X-7235000Y-33001160D01*
X-7235800Y-33033730D01*
X-7235000Y-33044579D01*
X-7234999Y-37567409D01*
X-7235800Y-37578271D01*
X-7234999Y-37610881D01*
X-7234999Y-37643477D01*
X-7233932Y-37654307D01*
X-7233811Y-37659233D01*
X-7234345Y-37680965D01*
X-7232745Y-37702664D01*
X-7232210Y-37724427D01*
X-7229547Y-37746011D01*
X-7228386Y-37761755D01*
X-7227852Y-37783507D01*
X-7225190Y-37805087D01*
X-7223591Y-37826771D01*
X-7219872Y-37848206D01*
X-7217937Y-37863895D01*
X-7216337Y-37885583D01*
X-7212619Y-37907010D01*
X-7209955Y-37928609D01*
X-7205187Y-37949840D01*
X-7202489Y-37965387D01*
X-7199827Y-37986974D01*
X-7195061Y-38008201D01*
X-7191342Y-38029631D01*
X-7185542Y-38050590D01*
X-7182080Y-38066009D01*
X-7178359Y-38087451D01*
X-7172559Y-38108408D01*
X-7167795Y-38129624D01*
X-7160969Y-38150287D01*
X-7156755Y-38165512D01*
X-7151990Y-38186732D01*
X-7145165Y-38207391D01*
X-7139363Y-38228356D01*
X-7131537Y-38248643D01*
X-7126586Y-38263632D01*
X-7120782Y-38284603D01*
X-7112951Y-38304904D01*
X-7106129Y-38325554D01*
X-7097315Y-38345437D01*
X-7091631Y-38360174D01*
X-7084810Y-38380821D01*
X-7075992Y-38400714D01*
X-7068164Y-38421008D01*
X-7058390Y-38440426D01*
X-7051980Y-38454888D01*
X-7044150Y-38475185D01*
X-7034379Y-38494597D01*
X-7025565Y-38514481D01*
X-7014835Y-38533423D01*
X-7007734Y-38547529D01*
X-6998923Y-38567407D01*
X-6988200Y-38586336D01*
X-6978415Y-38605775D01*
X-6966780Y-38624148D01*
X-6959000Y-38637881D01*
X-6949221Y-38657310D01*
X-6937583Y-38675688D01*
X-6926861Y-38694616D01*
X-6914337Y-38712398D01*
X-6905884Y-38725748D01*
X-6895157Y-38744683D01*
X-6882635Y-38762463D01*
X-6871004Y-38780830D01*
X-6857618Y-38797983D01*
X-6848513Y-38810911D01*
X-6836880Y-38829281D01*
X-6823499Y-38846427D01*
X-6810971Y-38864215D01*
X-6796764Y-38880685D01*
X-6787047Y-38893135D01*
X-6774526Y-38910914D01*
X-6760321Y-38927381D01*
X-6746932Y-38944538D01*
X-6731932Y-38960293D01*
X-6721624Y-38972243D01*
X-6708248Y-38989383D01*
X-6693245Y-39005142D01*
X-6679031Y-39021620D01*
X-6663284Y-39036613D01*
X-6659886Y-39040181D01*
X-6652978Y-39048599D01*
X-6629926Y-39071651D01*
X-6607438Y-39095272D01*
X-6599189Y-39102388D01*
X-6082387Y-39619190D01*
X-6075272Y-39627438D01*
X-6051651Y-39649926D01*
X-6028599Y-39672978D01*
X-6020181Y-39679887D01*
X-6016613Y-39683284D01*
X-6001620Y-39699031D01*
X-5985142Y-39713245D01*
X-5969383Y-39728248D01*
X-5952243Y-39741624D01*
X-5940293Y-39751932D01*
X-5924538Y-39766932D01*
X-5907381Y-39780321D01*
X-5890914Y-39794526D01*
X-5873137Y-39807046D01*
X-5860685Y-39816764D01*
X-5844215Y-39830971D01*
X-5826427Y-39843499D01*
X-5809281Y-39856880D01*
X-5790909Y-39868514D01*
X-5777983Y-39877618D01*
X-5760830Y-39891004D01*
X-5742463Y-39902635D01*
X-5724683Y-39915157D01*
X-5705748Y-39925884D01*
X-5692401Y-39934336D01*
X-5674616Y-39946861D01*
X-5655688Y-39957583D01*
X-5637310Y-39969221D01*
X-5617881Y-39979000D01*
X-5604149Y-39986779D01*
X-5585775Y-39998415D01*
X-5566335Y-40008201D01*
X-5547407Y-40018923D01*
X-5527533Y-40027733D01*
X-5513417Y-40034838D01*
X-5494481Y-40045565D01*
X-5474604Y-40054376D01*
X-5455184Y-40064151D01*
X-5434876Y-40071985D01*
X-5420426Y-40078390D01*
X-5401008Y-40088164D01*
X-5380714Y-40095992D01*
X-5360821Y-40104810D01*
X-5340174Y-40111631D01*
X-5325437Y-40117315D01*
X-5305554Y-40126129D01*
X-5284904Y-40132951D01*
X-5264603Y-40140782D01*
X-5243632Y-40146586D01*
X-5228649Y-40151535D01*
X-5208357Y-40159363D01*
X-5187386Y-40165167D01*
X-5166732Y-40171990D01*
X-5145518Y-40176754D01*
X-5130284Y-40180970D01*
X-5109624Y-40187795D01*
X-5088409Y-40192559D01*
X-5067451Y-40198359D01*
X-5046008Y-40202080D01*
X-5030590Y-40205542D01*
X-5009631Y-40211342D01*
X-4988201Y-40215061D01*
X-4966974Y-40219827D01*
X-4945387Y-40222489D01*
X-4929823Y-40225190D01*
X-4908594Y-40229957D01*
X-4887010Y-40232619D01*
X-4865583Y-40236337D01*
X-4843889Y-40237937D01*
X-4828200Y-40239872D01*
X-4806786Y-40243588D01*
X-4785102Y-40245188D01*
X-4763492Y-40247853D01*
X-4741742Y-40248387D01*
X-4726013Y-40249547D01*
X-4704426Y-40252210D01*
X-4682679Y-40252744D01*
X-4660981Y-40254345D01*
X-4639234Y-40253811D01*
X-4634321Y-40253932D01*
X-4623477Y-40255000D01*
X-4590840Y-40255000D01*
X-4558271Y-40255800D01*
X-4547423Y-40255000D01*
X-3807523Y-40255000D01*
X-3835000Y-40393137D01*
X-3835000Y-40606863D01*
X-3793304Y-40816483D01*
X-3711515Y-41013940D01*
X-3592775Y-41191647D01*
X-3441647Y-41342775D01*
X-3263940Y-41461515D01*
X-3066483Y-41543304D01*
X-2856863Y-41585000D01*
X-2643137Y-41585000D01*
X-2433517Y-41543304D01*
X-2236060Y-41461515D01*
X-2058353Y-41342775D01*
X-1907225Y-41191647D01*
X-1788485Y-41013940D01*
X-1706696Y-40816483D01*
X-1665000Y-40606863D01*
X-1665000Y-40393137D01*
X1665000Y-40393137D01*
X1665000Y-40606863D01*
X1706696Y-40816483D01*
X1788485Y-41013940D01*
X1907225Y-41191647D01*
X2058353Y-41342775D01*
X2236060Y-41461515D01*
X2433517Y-41543304D01*
X2643137Y-41585000D01*
X2856863Y-41585000D01*
X3066483Y-41543304D01*
X3263940Y-41461515D01*
X3441647Y-41342775D01*
X3592775Y-41191647D01*
X3711515Y-41013940D01*
X3793304Y-40816483D01*
X3835000Y-40606863D01*
X3835000Y-40393137D01*
X3793304Y-40183517D01*
X3711515Y-39986060D01*
X3592775Y-39808353D01*
X3441647Y-39657225D01*
X3263940Y-39538485D01*
X3066483Y-39456696D01*
X2856863Y-39415000D01*
X2643137Y-39415000D01*
X2433517Y-39456696D01*
X2236060Y-39538485D01*
X2058353Y-39657225D01*
X1907225Y-39808353D01*
X1788485Y-39986060D01*
X1706696Y-40183517D01*
X1665000Y-40393137D01*
X-1665000Y-40393137D01*
X-1692477Y-40255000D01*
X483423Y-40255000D01*
X494271Y-40255800D01*
X526841Y-40255000D01*
X559477Y-40255000D01*
X570321Y-40253932D01*
X575233Y-40253811D01*
X596965Y-40254345D01*
X618664Y-40252745D01*
X640427Y-40252210D01*
X662011Y-40249547D01*
X677755Y-40248386D01*
X699507Y-40247852D01*
X721087Y-40245190D01*
X742771Y-40243591D01*
X764206Y-40239872D01*
X779895Y-40237937D01*
X801583Y-40236337D01*
X823010Y-40232619D01*
X844609Y-40229955D01*
X865840Y-40225187D01*
X881387Y-40222489D01*
X902974Y-40219827D01*
X924201Y-40215061D01*
X945631Y-40211342D01*
X966590Y-40205542D01*
X982009Y-40202080D01*
X1003451Y-40198359D01*
X1024408Y-40192559D01*
X1045624Y-40187795D01*
X1066287Y-40180969D01*
X1081512Y-40176755D01*
X1102732Y-40171990D01*
X1123391Y-40165165D01*
X1144356Y-40159363D01*
X1164643Y-40151537D01*
X1179632Y-40146586D01*
X1200603Y-40140782D01*
X1220904Y-40132951D01*
X1241554Y-40126129D01*
X1261437Y-40117315D01*
X1276174Y-40111631D01*
X1296821Y-40104810D01*
X1316714Y-40095992D01*
X1337008Y-40088164D01*
X1356426Y-40078390D01*
X1370888Y-40071980D01*
X1391185Y-40064150D01*
X1410597Y-40054379D01*
X1430481Y-40045565D01*
X1449423Y-40034835D01*
X1463529Y-40027734D01*
X1483407Y-40018923D01*
X1502336Y-40008200D01*
X1521775Y-39998415D01*
X1540148Y-39986780D01*
X1553881Y-39979000D01*
X1573310Y-39969221D01*
X1591688Y-39957583D01*
X1610616Y-39946861D01*
X1628398Y-39934337D01*
X1641748Y-39925884D01*
X1660683Y-39915157D01*
X1678463Y-39902635D01*
X1696830Y-39891004D01*
X1713983Y-39877618D01*
X1726911Y-39868513D01*
X1745281Y-39856880D01*
X1762427Y-39843499D01*
X1780215Y-39830971D01*
X1796685Y-39816764D01*
X1809135Y-39807047D01*
X1826914Y-39794526D01*
X1843381Y-39780321D01*
X1860538Y-39766932D01*
X1876293Y-39751932D01*
X1888243Y-39741624D01*
X1905383Y-39728248D01*
X1921142Y-39713245D01*
X1937620Y-39699031D01*
X1952613Y-39683284D01*
X1956181Y-39679886D01*
X1964599Y-39672978D01*
X1987652Y-39649925D01*
X2011272Y-39627438D01*
X2018387Y-39619190D01*
X2504915Y-39132664D01*
X2574482Y-39125812D01*
X2694180Y-39089502D01*
X2804494Y-39030537D01*
X2901185Y-38951185D01*
X2980537Y-38854494D01*
X3000000Y-38818082D01*
X3019463Y-38854494D01*
X3098815Y-38951185D01*
X3195506Y-39030537D01*
X3305820Y-39089502D01*
X3425518Y-39125812D01*
X3550000Y-39138072D01*
X4450000Y-39138072D01*
X4574482Y-39125812D01*
X4694180Y-39089502D01*
X4804494Y-39030537D01*
X4901185Y-38951185D01*
X4980537Y-38854494D01*
X5039502Y-38744180D01*
X5075812Y-38624482D01*
X5083286Y-38548597D01*
X5090675Y-38545747D01*
X5105394Y-38540395D01*
X5125267Y-38534896D01*
X5145561Y-38527068D01*
X5166220Y-38520243D01*
X5186103Y-38511429D01*
X5189793Y-38510006D01*
X5210446Y-38503183D01*
X5230323Y-38494372D01*
X5250617Y-38486544D01*
X5270052Y-38476762D01*
X5273672Y-38475157D01*
X5293959Y-38467331D01*
X5313373Y-38457558D01*
X5333272Y-38448738D01*
X5352212Y-38438008D01*
X5355719Y-38436243D01*
X5375603Y-38427429D01*
X5394532Y-38416706D01*
X5413965Y-38406924D01*
X5432342Y-38395287D01*
X5435751Y-38393356D01*
X5455198Y-38383567D01*
X5473593Y-38371919D01*
X5492500Y-38361208D01*
X5510267Y-38348695D01*
X5513642Y-38346558D01*
X5532558Y-38335842D01*
X5550319Y-38323333D01*
X5568707Y-38311689D01*
X5585876Y-38298290D01*
X5589070Y-38296040D01*
X5607453Y-38284400D01*
X5624622Y-38271002D01*
X5642402Y-38258479D01*
X5658856Y-38244285D01*
X5661980Y-38241847D01*
X5679771Y-38229317D01*
X5696229Y-38215120D01*
X5713370Y-38201743D01*
X5729137Y-38186732D01*
X5732114Y-38184164D01*
X5749248Y-38170793D01*
X5765018Y-38155780D01*
X5781502Y-38141560D01*
X5793615Y-38128837D01*
X5799888Y-38123689D01*
X5822942Y-38100635D01*
X5846555Y-38078155D01*
X5853671Y-38069906D01*
X6091190Y-37832387D01*
X6099438Y-37825272D01*
X6121926Y-37801651D01*
X6144978Y-37778599D01*
X6151886Y-37770181D01*
X6155284Y-37766613D01*
X6171031Y-37751620D01*
X6185245Y-37735142D01*
X6200248Y-37719383D01*
X6213624Y-37702243D01*
X6223932Y-37690293D01*
X6238932Y-37674538D01*
X6252321Y-37657381D01*
X6266526Y-37640914D01*
X6279046Y-37623137D01*
X6288764Y-37610685D01*
X6302971Y-37594215D01*
X6315499Y-37576427D01*
X6328880Y-37559281D01*
X6340514Y-37540909D01*
X6349618Y-37527983D01*
X6363004Y-37510830D01*
X6374635Y-37492463D01*
X6387157Y-37474683D01*
X6397884Y-37455748D01*
X6406336Y-37442401D01*
X6418861Y-37424616D01*
X6429583Y-37405688D01*
X6441221Y-37387310D01*
X6451000Y-37367881D01*
X6458779Y-37354149D01*
X6470415Y-37335775D01*
X6480201Y-37316335D01*
X6490923Y-37297407D01*
X6499733Y-37277533D01*
X6506838Y-37263417D01*
X6517565Y-37244481D01*
X6526376Y-37224604D01*
X6536151Y-37205184D01*
X6543985Y-37184876D01*
X6550390Y-37170426D01*
X6560164Y-37151008D01*
X6567992Y-37130714D01*
X6576810Y-37110821D01*
X6583631Y-37090174D01*
X6589315Y-37075437D01*
X6598129Y-37055554D01*
X6604951Y-37034904D01*
X6612782Y-37014603D01*
X6618586Y-36993632D01*
X6623535Y-36978649D01*
X6631363Y-36958357D01*
X6637167Y-36937386D01*
X6643990Y-36916732D01*
X6648754Y-36895518D01*
X6652970Y-36880284D01*
X6659795Y-36859624D01*
X6664559Y-36838409D01*
X6670359Y-36817451D01*
X6674080Y-36796008D01*
X6677542Y-36780590D01*
X6683342Y-36759631D01*
X6687061Y-36738201D01*
X6691827Y-36716974D01*
X6694489Y-36695387D01*
X6697187Y-36679840D01*
X6701955Y-36658609D01*
X6704619Y-36637010D01*
X6708337Y-36615583D01*
X6709937Y-36593894D01*
X6711871Y-36578211D01*
X6715591Y-36556772D01*
X6717191Y-36535083D01*
X6719852Y-36513506D01*
X6720386Y-36491757D01*
X6721548Y-36476007D01*
X6724210Y-36454426D01*
X6724744Y-36432668D01*
X6726345Y-36410967D01*
X6725811Y-36389233D01*
X6725932Y-36384321D01*
X6727000Y-36373477D01*
X6727000Y-36340840D01*
X6727800Y-36308271D01*
X6727000Y-36297423D01*
X6727000Y-32138127D01*
X6747122Y-32071794D01*
X6762072Y-31920000D01*
X6762072Y-31580000D01*
X6747122Y-31428206D01*
X6727000Y-31361873D01*
X6727000Y-30269477D01*
X6731282Y-30226000D01*
X6727000Y-30182523D01*
X6727000Y-26948578D01*
X6727800Y-26937730D01*
X6727000Y-26905160D01*
X6727000Y-26872523D01*
X6725932Y-26861679D01*
X6725811Y-26856766D01*
X6726345Y-26835032D01*
X6724744Y-26813331D01*
X6724210Y-26791573D01*
X6721548Y-26769992D01*
X6720386Y-26754242D01*
X6719852Y-26732493D01*
X6717191Y-26710916D01*
X6715591Y-26689227D01*
X6711871Y-26667788D01*
X6709936Y-26652101D01*
X6708337Y-26630419D01*
X6704620Y-26608995D01*
X6701955Y-26587390D01*
X6697188Y-26566161D01*
X6694489Y-26550610D01*
X6691827Y-26529024D01*
X6687063Y-26507806D01*
X6683343Y-26486369D01*
X6677540Y-26465400D01*
X6674079Y-26449987D01*
X6670358Y-26428543D01*
X6664559Y-26407588D01*
X6659795Y-26386374D01*
X6652969Y-26365711D01*
X6648756Y-26350490D01*
X6643995Y-26329285D01*
X6637168Y-26308619D01*
X6631362Y-26287639D01*
X6623538Y-26267356D01*
X6618589Y-26252374D01*
X6612783Y-26231395D01*
X6604956Y-26211104D01*
X6598137Y-26190462D01*
X6589319Y-26170567D01*
X6583630Y-26155819D01*
X6576806Y-26135164D01*
X6567991Y-26115277D01*
X6560165Y-26094990D01*
X6550388Y-26075566D01*
X6543982Y-26061115D01*
X6536151Y-26040814D01*
X6526373Y-26021389D01*
X6517559Y-26001505D01*
X6506834Y-25982573D01*
X6499733Y-25968465D01*
X6490923Y-25948591D01*
X6480201Y-25929663D01*
X6470415Y-25910223D01*
X6458779Y-25891849D01*
X6451000Y-25878117D01*
X6441221Y-25858688D01*
X6429583Y-25840310D01*
X6418861Y-25821382D01*
X6406336Y-25803597D01*
X6397884Y-25790250D01*
X6387157Y-25771315D01*
X6374635Y-25753535D01*
X6363004Y-25735168D01*
X6349618Y-25718015D01*
X6340514Y-25705089D01*
X6328880Y-25686717D01*
X6315499Y-25669571D01*
X6302971Y-25651783D01*
X6288764Y-25635313D01*
X6279046Y-25622861D01*
X6266526Y-25605084D01*
X6252321Y-25588617D01*
X6238932Y-25571460D01*
X6223932Y-25555705D01*
X6213620Y-25543751D01*
X6200241Y-25526607D01*
X6185242Y-25510853D01*
X6171031Y-25494378D01*
X6155281Y-25479383D01*
X6151888Y-25475819D01*
X6144978Y-25467399D01*
X6121909Y-25444330D01*
X6099431Y-25420720D01*
X6091191Y-25413612D01*
X5320387Y-24642808D01*
X5313279Y-24634569D01*
X5289665Y-24612087D01*
X5266599Y-24589021D01*
X5258183Y-24582114D01*
X5254620Y-24578722D01*
X5239620Y-24562967D01*
X5223144Y-24548754D01*
X5207391Y-24533757D01*
X5190247Y-24520378D01*
X5178293Y-24510066D01*
X5162538Y-24495066D01*
X5145381Y-24481677D01*
X5128914Y-24467472D01*
X5111135Y-24454951D01*
X5098681Y-24445231D01*
X5082205Y-24431019D01*
X5064421Y-24418494D01*
X5047281Y-24405118D01*
X5028905Y-24393482D01*
X5015985Y-24384382D01*
X4998840Y-24371002D01*
X4980459Y-24359362D01*
X4962673Y-24346836D01*
X4943756Y-24336120D01*
X4930401Y-24327663D01*
X4912616Y-24315137D01*
X4893697Y-24304419D01*
X4875321Y-24292783D01*
X4855882Y-24282998D01*
X4842146Y-24275217D01*
X4823763Y-24263576D01*
X4804327Y-24253793D01*
X4785407Y-24243075D01*
X4765527Y-24234263D01*
X4751420Y-24227162D01*
X4732493Y-24216440D01*
X4712599Y-24207622D01*
X4693172Y-24197843D01*
X4672884Y-24190017D01*
X4658432Y-24183611D01*
X4639008Y-24173834D01*
X4618721Y-24166008D01*
X4598834Y-24157193D01*
X4578179Y-24150369D01*
X4563437Y-24144683D01*
X4543554Y-24135869D01*
X4522904Y-24129047D01*
X4502603Y-24121216D01*
X4481632Y-24115412D01*
X4466648Y-24110463D01*
X4446343Y-24102630D01*
X4425374Y-24096827D01*
X4404732Y-24090008D01*
X4383511Y-24085243D01*
X4368276Y-24081027D01*
X4347624Y-24074204D01*
X4326401Y-24069438D01*
X4305437Y-24063637D01*
X4284004Y-24059918D01*
X4268590Y-24056457D01*
X4247631Y-24050657D01*
X4226201Y-24046938D01*
X4204974Y-24042172D01*
X4183387Y-24039510D01*
X4167840Y-24036812D01*
X4146609Y-24032044D01*
X4125010Y-24029380D01*
X4103583Y-24025662D01*
X4081895Y-24024062D01*
X4066206Y-24022127D01*
X4044771Y-24018408D01*
X4023087Y-24016809D01*
X4001507Y-24014147D01*
X3979755Y-24013613D01*
X3964001Y-24012451D01*
X3942412Y-24009788D01*
X3920658Y-24009254D01*
X3898965Y-24007654D01*
X3877227Y-24008188D01*
X3872312Y-24008067D01*
X3861477Y-24007000D01*
X3828844Y-24007000D01*
X3796256Y-24006200D01*
X3785411Y-24007000D01*
X-7617152Y-24007000D01*
X-7643782Y-24006346D01*
X-7659543Y-24005183D01*
X-7675238Y-24003247D01*
X-7690786Y-24000550D01*
X-7706195Y-23997089D01*
X-7721420Y-23992876D01*
X-7736424Y-23987919D01*
X-7751166Y-23982233D01*
X-7765603Y-23975833D01*
X-7779709Y-23968733D01*
X-7793464Y-23960941D01*
X-7806805Y-23952493D01*
X-7819717Y-23943399D01*
X-7832171Y-23933679D01*
X-7844138Y-23923357D01*
X-7863430Y-23904990D01*
X-8740759Y-23027662D01*
X-8676815Y-22975185D01*
X-8597463Y-22878494D01*
X-8538498Y-22768180D01*
X-8502188Y-22648482D01*
X-8489928Y-22524000D01*
X-8489928Y-21624000D01*
X-8502188Y-21499518D01*
X-8538498Y-21379820D01*
X-8597463Y-21269506D01*
X-8676815Y-21172815D01*
X-8773506Y-21093463D01*
X-8883820Y-21034498D01*
X-9003518Y-20998188D01*
X-9128000Y-20985928D01*
X-10428000Y-20985928D01*
X-10552482Y-20998188D01*
X-10672180Y-21034498D01*
X-10782494Y-21093463D01*
X-10879185Y-21172815D01*
X-10958537Y-21269506D01*
X-11017502Y-21379820D01*
X-11053812Y-21499518D01*
X-11066072Y-21624000D01*
X-11340000Y-21624000D01*
X-11340000Y-20752191D01*
X-11349550Y-20655227D01*
X-11387290Y-20530817D01*
X-11448575Y-20416160D01*
X-11531052Y-20315662D01*
X-11631551Y-20233185D01*
X-11667651Y-20213889D01*
X-13253170Y-19211565D01*
X-14751226Y-18086793D01*
X-15218509Y-17673376D01*
X-13103864Y-17673376D01*
X-13088914Y-17825170D01*
X-13044637Y-17971131D01*
X-12972735Y-18105650D01*
X-12875972Y-18223556D01*
X-12635556Y-18463972D01*
X-12517650Y-18560735D01*
X-12383131Y-18632637D01*
X-12237170Y-18676914D01*
X-12085376Y-18691864D01*
X-11933582Y-18676914D01*
X-11787621Y-18632637D01*
X-11670481Y-18570024D01*
X-11709821Y-18628901D01*
X-11742237Y-18707159D01*
X-11743588Y-18709687D01*
X-11744420Y-18712429D01*
X-11776836Y-18790688D01*
X-11793359Y-18873754D01*
X-11794195Y-18876510D01*
X-11794477Y-18879376D01*
X-11811000Y-18962441D01*
X-11811000Y-19047147D01*
X-11811281Y-19050000D01*
X-11811000Y-19052853D01*
X-11811000Y-19137559D01*
X-11794477Y-19220624D01*
X-11794195Y-19223490D01*
X-11793359Y-19226246D01*
X-11776836Y-19309312D01*
X-11744420Y-19387571D01*
X-11743588Y-19390313D01*
X-11742237Y-19392841D01*
X-11709821Y-19471099D01*
X-11662766Y-19541521D01*
X-11661410Y-19544059D01*
X-11659584Y-19546283D01*
X-11612531Y-19616704D01*
X-11528643Y-19700592D01*
X-11526817Y-19702817D01*
X-11524592Y-19704643D01*
X-11488704Y-19740531D01*
X-11446508Y-19768725D01*
X-11392059Y-19813411D01*
X-11238313Y-19895589D01*
X-11071490Y-19946195D01*
X-10941477Y-19959000D01*
X-10941467Y-19959000D01*
X-10898001Y-19963281D01*
X-10889631Y-19962457D01*
X-10879185Y-19975185D01*
X-10782494Y-20054537D01*
X-10672180Y-20113502D01*
X-10552482Y-20149812D01*
X-10428000Y-20162072D01*
X-9128000Y-20162072D01*
X-9003518Y-20149812D01*
X-8883820Y-20113502D01*
X-8773506Y-20054537D01*
X-8676815Y-19975185D01*
X-8597463Y-19878494D01*
X-8538498Y-19768180D01*
X-8502188Y-19648482D01*
X-8489928Y-19524000D01*
X-8489928Y-18624000D01*
X-8502188Y-18499518D01*
X-8538498Y-18379820D01*
X-8597463Y-18269506D01*
X-8676815Y-18172815D01*
X-8773506Y-18093463D01*
X-8883820Y-18034498D01*
X-8927205Y-18021337D01*
X-8991179Y-17866891D01*
X-9088469Y-17721286D01*
X-9212296Y-17597459D01*
X-9357901Y-17500169D01*
X-9519688Y-17433154D01*
X-9691441Y-17398990D01*
X-9866559Y-17398990D01*
X-10038312Y-17433154D01*
X-10200099Y-17500169D01*
X-10345704Y-17597459D01*
X-10469531Y-17721286D01*
X-10566821Y-17866891D01*
X-10631083Y-18022031D01*
X-10672180Y-18034498D01*
X-10782494Y-18093463D01*
X-10864788Y-18161000D01*
X-10919147Y-18161000D01*
X-10922000Y-18160719D01*
X-10924853Y-18161000D01*
X-11009559Y-18161000D01*
X-11092624Y-18177523D01*
X-11095490Y-18177805D01*
X-11098246Y-18178641D01*
X-11181312Y-18195164D01*
X-11259571Y-18227580D01*
X-11262313Y-18228412D01*
X-11264841Y-18229763D01*
X-11329443Y-18256522D01*
X-11240443Y-18148076D01*
X-11168541Y-18013557D01*
X-11162155Y-17992505D01*
X-11117296Y-17962531D01*
X-10993469Y-17838704D01*
X-10896179Y-17693099D01*
X-10829164Y-17531312D01*
X-10795000Y-17359559D01*
X-10795000Y-17184441D01*
X-10829164Y-17012688D01*
X-10896179Y-16850901D01*
X-10993469Y-16705296D01*
X-11117296Y-16581469D01*
X-11262901Y-16484179D01*
X-11424688Y-16417164D01*
X-11596441Y-16383000D01*
X-11771559Y-16383000D01*
X-11943312Y-16417164D01*
X-12105099Y-16484179D01*
X-12250704Y-16581469D01*
X-12374531Y-16705296D01*
X-12404505Y-16750155D01*
X-12425557Y-16756541D01*
X-12560076Y-16828443D01*
X-12677982Y-16925206D01*
X-12875972Y-17123196D01*
X-12972735Y-17241102D01*
X-13044637Y-17375621D01*
X-13088914Y-17521582D01*
X-13103864Y-17673376D01*
X-15218509Y-17673376D01*
X-16154259Y-16845495D01*
X-17453209Y-15495685D01*
X-18639721Y-14046052D01*
X-19706162Y-12505916D01*
X-20645652Y-10885212D01*
X-21452128Y-9194400D01*
X-22120413Y-7444335D01*
X-22646186Y-5646333D01*
X-23026069Y-3811942D01*
X-23257613Y-1952999D01*
X-23339326Y-81471D01*
X-23296003Y1100000D01*
X-21838072Y1100000D01*
X-21838072Y-1100000D01*
X-21825812Y-1224482D01*
X-21789502Y-1344180D01*
X-21730537Y-1454494D01*
X-21651185Y-1551185D01*
X-21554494Y-1630537D01*
X-21444180Y-1689502D01*
X-21324482Y-1725812D01*
X-21200000Y-1738072D01*
X-19000000Y-1738072D01*
X-18875518Y-1725812D01*
X-18755820Y-1689502D01*
X-18645506Y-1630537D01*
X-18605047Y-1597333D01*
X-18597920Y-1749223D01*
X-18352400Y-3483074D01*
X-17945599Y-5186315D01*
X-17381092Y-6843979D01*
X-16663839Y-8441498D01*
X-15800143Y-9964832D01*
X-14797595Y-11400596D01*
X-14268418Y-12024612D01*
X-14337328Y-12031399D01*
X-14457026Y-12067709D01*
X-14567340Y-12126674D01*
X-14664031Y-12206026D01*
X-16219666Y-13761661D01*
X-16299018Y-13858352D01*
X-16357983Y-13968666D01*
X-16394293Y-14088364D01*
X-16406553Y-14212846D01*
X-16394293Y-14337328D01*
X-16357983Y-14457026D01*
X-16299018Y-14567340D01*
X-16219666Y-14664031D01*
X-14664031Y-16219666D01*
X-14567340Y-16299018D01*
X-14457026Y-16357983D01*
X-14337328Y-16394293D01*
X-14212846Y-16406553D01*
X-14088364Y-16394293D01*
X-13968666Y-16357983D01*
X-13858352Y-16299018D01*
X-13761661Y-16219666D01*
X-12206026Y-14664031D01*
X-12126674Y-14567340D01*
X-12067709Y-14457026D01*
X-12031399Y-14337328D01*
X-12025056Y-14272924D01*
X-11050569Y-15060788D01*
X-9591698Y-16029402D01*
X-8048535Y-16857149D01*
X-6434641Y-17536756D01*
X-4764199Y-18062248D01*
X-3051889Y-18429009D01*
X-1593783Y-18600721D01*
X-1630537Y-18645506D01*
X-1689502Y-18755820D01*
X-1725812Y-18875518D01*
X-1738072Y-19000000D01*
X-1738072Y-21200000D01*
X-1725812Y-21324482D01*
X-1689502Y-21444180D01*
X-1630537Y-21554494D01*
X-1551185Y-21651185D01*
X-1454494Y-21730537D01*
X-1344180Y-21789502D01*
X-1224482Y-21825812D01*
X-1100000Y-21838072D01*
X1100000Y-21838072D01*
X1224482Y-21825812D01*
X1344180Y-21789502D01*
X1454494Y-21730537D01*
X1551185Y-21651185D01*
X1630537Y-21554494D01*
X1689502Y-21444180D01*
X1725812Y-21324482D01*
X1738072Y-21200000D01*
X1738072Y-19000000D01*
X1725812Y-18875518D01*
X1689502Y-18755820D01*
X1630537Y-18645506D01*
X1588130Y-18593832D01*
X2184725Y-18551802D01*
X3912344Y-18265705D01*
X5605581Y-17819087D01*
X7249556Y-17215875D01*
X8829821Y-16461369D01*
X10332490Y-15562199D01*
X11744356Y-14526269D01*
X12025397Y-14276383D01*
X12031399Y-14337328D01*
X12067709Y-14457026D01*
X12126674Y-14567340D01*
X12206026Y-14664031D01*
X13761661Y-16219666D01*
X13858352Y-16299018D01*
X13968666Y-16357983D01*
X14088364Y-16394293D01*
X14212846Y-16406553D01*
X14337328Y-16394293D01*
X14457026Y-16357983D01*
X14567340Y-16299018D01*
X14664031Y-16219666D01*
X16219666Y-14664031D01*
X16299018Y-14567340D01*
X16357983Y-14457026D01*
X16394293Y-14337328D01*
X16406553Y-14212846D01*
X16394293Y-14088364D01*
X16357983Y-13968666D01*
X16299018Y-13858352D01*
X16219666Y-13761661D01*
X14664031Y-12206026D01*
X14567340Y-12126674D01*
X14457026Y-12067709D01*
X14337328Y-12031399D01*
X14289326Y-12026671D01*
X15315703Y-10694468D01*
X16249851Y-9213292D01*
X17041195Y-7651148D01*
X17682781Y-6021766D01*
X18168969Y-4339464D01*
X18495489Y-2619027D01*
X18592549Y-1587076D01*
X18645506Y-1630537D01*
X18755820Y-1689502D01*
X18875518Y-1725812D01*
X19000000Y-1738072D01*
X21200000Y-1738072D01*
X21324482Y-1725812D01*
X21444180Y-1689502D01*
X21554494Y-1630537D01*
X21651185Y-1551185D01*
X21730537Y-1454494D01*
X21789502Y-1344180D01*
X21825812Y-1224482D01*
X21838072Y-1100000D01*
X21838072Y1100000D01*
X21825812Y1224482D01*
X21789502Y1344180D01*
X21730537Y1454494D01*
X21651185Y1551185D01*
X21554494Y1630537D01*
X21444180Y1689502D01*
X21324482Y1725812D01*
X21200000Y1738072D01*
X19000000Y1738072D01*
X18875518Y1725812D01*
X18755820Y1689502D01*
X18645506Y1630537D01*
X18592549Y1587076D01*
X18495489Y2619027D01*
X18168969Y4339464D01*
X17682781Y6021766D01*
X17041195Y7651148D01*
X16249851Y9213292D01*
X15315703Y10694468D01*
X14289326Y12026671D01*
X14337328Y12031399D01*
X14457026Y12067709D01*
X14567340Y12126674D01*
X14664031Y12206026D01*
X16219666Y13761661D01*
X16299018Y13858352D01*
X16357983Y13968666D01*
X16394293Y14088364D01*
X16406553Y14212846D01*
X16394293Y14337328D01*
X16357983Y14457026D01*
X16299018Y14567340D01*
X16219666Y14664031D01*
X14664031Y16219666D01*
X14567340Y16299018D01*
X14457026Y16357983D01*
X14337328Y16394293D01*
X14212846Y16406553D01*
X14088364Y16394293D01*
X13968666Y16357983D01*
X13858352Y16299018D01*
X13761661Y16219666D01*
X12206026Y14664031D01*
X12126674Y14567340D01*
X12067709Y14457026D01*
X12031399Y14337328D01*
X12025397Y14276383D01*
X11744356Y14526269D01*
X10332490Y15562199D01*
X8829821Y16461369D01*
X7249556Y17215875D01*
X5605581Y17819087D01*
X3912344Y18265705D01*
X2184725Y18551802D01*
X1588130Y18593832D01*
X1630537Y18645506D01*
X1689502Y18755820D01*
X1725812Y18875518D01*
X1738072Y19000000D01*
X1738072Y21200000D01*
X1725812Y21324482D01*
X1689502Y21444180D01*
X1630537Y21554494D01*
X1551185Y21651185D01*
X1454494Y21730537D01*
X1344180Y21789502D01*
X1224482Y21825812D01*
X1100000Y21838072D01*
X-1100000Y21838072D01*
X-1224482Y21825812D01*
X-1344180Y21789502D01*
X-1454494Y21730537D01*
X-1551185Y21651185D01*
X-1630537Y21554494D01*
X-1689502Y21444180D01*
X-1725812Y21324482D01*
X-1738072Y21200000D01*
X-1738072Y19000000D01*
X-1725812Y18875518D01*
X-1689502Y18755820D01*
X-1630537Y18645506D01*
X-1593783Y18600721D01*
X-3051889Y18429009D01*
X-4764199Y18062248D01*
X-6434641Y17536756D01*
X-8048535Y16857149D01*
X-9591698Y16029402D01*
X-11050569Y15060788D01*
X-12025056Y14272924D01*
X-12031399Y14337328D01*
X-12067709Y14457026D01*
X-12126674Y14567340D01*
X-12206026Y14664031D01*
X-13761661Y16219666D01*
X-13858352Y16299018D01*
X-13968666Y16357983D01*
X-14088364Y16394293D01*
X-14212846Y16406553D01*
X-14337328Y16394293D01*
X-14457026Y16357983D01*
X-14567340Y16299018D01*
X-14664031Y16219666D01*
X-16219666Y14664031D01*
X-16299018Y14567340D01*
X-16357983Y14457026D01*
X-16394293Y14337328D01*
X-16406553Y14212846D01*
X-16394293Y14088364D01*
X-16357983Y13968666D01*
X-16299018Y13858352D01*
X-16219666Y13761661D01*
X-14664031Y12206026D01*
X-14567340Y12126674D01*
X-14457026Y12067709D01*
X-14337328Y12031399D01*
X-14268418Y12024612D01*
X-14797595Y11400596D01*
X-15800143Y9964832D01*
X-16663839Y8441498D01*
X-17381092Y6843979D01*
X-17945599Y5186315D01*
X-18352400Y3483074D01*
X-18597920Y1749223D01*
X-18605047Y1597333D01*
X-18645506Y1630537D01*
X-18755820Y1689502D01*
X-18875518Y1725812D01*
X-19000000Y1738072D01*
X-21200000Y1738072D01*
X-21324482Y1725812D01*
X-21444180Y1689502D01*
X-21554494Y1630537D01*
X-21651185Y1551185D01*
X-21730537Y1454494D01*
X-21789502Y1344180D01*
X-21825812Y1224482D01*
X-21838072Y1100000D01*
X-23296003Y1100000D01*
X-23270680Y1790580D01*
X-23052120Y3651098D01*
X-22685050Y5488101D01*
X-22171847Y7289720D01*
X-21515791Y9044419D01*
X-20721142Y10740813D01*
X-19792993Y12368032D01*
X-18737332Y13915573D01*
X-17560964Y15373461D01*
X-16271463Y16732312D01*
X-14877139Y17983367D01*
X-13386970Y19118572D01*
X-11810561Y20130609D01*
X-10158061Y21012962D01*
X-8440122Y21759943D01*
X-6667815Y22366740D01*
X-4852548Y22829446D01*
X-3006023Y23145077D01*
X-1140131Y23311604D01*
X733110Y23327952D01*
X2601626Y23194014D01*
G37*
%TD.AperFunction*%
%TD*%
D24*
%TO.N,GND*%
X-11613168Y-17502797D02*
X-11648199Y-17514793D01*
X-11648202Y-17514794D01*
X-11686735Y-17527997D01*
X-11686952Y-17528073D01*
X-11721723Y-17540697D01*
X-11722193Y-17540878D01*
X-11754353Y-17554018D01*
X-11755050Y-17554328D01*
X-11785747Y-17569080D01*
X-11786573Y-17569515D01*
X-11816955Y-17586972D01*
X-11817776Y-17587487D01*
X-11848993Y-17608745D01*
X-11849704Y-17609265D01*
X-11882905Y-17635418D01*
X-11883461Y-17635883D01*
X-11919793Y-17668027D01*
X-11920201Y-17668404D01*
X-11951838Y-17698963D01*
X-12110963Y-17539838D01*
X-12080404Y-17508201D01*
X-12080027Y-17507793D01*
X-12047883Y-17471461D01*
X-12047418Y-17470905D01*
X-12021265Y-17437704D01*
X-12020745Y-17436993D01*
X-11999487Y-17405776D01*
X-11998972Y-17404955D01*
X-11981515Y-17374573D01*
X-11981080Y-17373747D01*
X-11966328Y-17343050D01*
X-11966018Y-17342353D01*
X-11952878Y-17310193D01*
X-11952697Y-17309723D01*
X-11940073Y-17274952D01*
X-11939997Y-17274735D01*
X-11926794Y-17236202D01*
X-11926793Y-17236199D01*
X-11914797Y-17201168D01*
X-11607154Y-17195154D01*
X-11613168Y-17502797D01*
%TA.AperFunction,Conductor*%
D23*
G36*
X-11613168Y-17502797D02*
G01*
X-11648199Y-17514793D01*
X-11648202Y-17514794D01*
X-11686735Y-17527997D01*
X-11686952Y-17528073D01*
X-11721723Y-17540697D01*
X-11722193Y-17540878D01*
X-11754353Y-17554018D01*
X-11755050Y-17554328D01*
X-11785747Y-17569080D01*
X-11786573Y-17569515D01*
X-11816955Y-17586972D01*
X-11817776Y-17587487D01*
X-11848993Y-17608745D01*
X-11849704Y-17609265D01*
X-11882905Y-17635418D01*
X-11883461Y-17635883D01*
X-11919793Y-17668027D01*
X-11920201Y-17668404D01*
X-11951838Y-17698963D01*
X-12110963Y-17539838D01*
X-12080404Y-17508201D01*
X-12080027Y-17507793D01*
X-12047883Y-17471461D01*
X-12047418Y-17470905D01*
X-12021265Y-17437704D01*
X-12020745Y-17436993D01*
X-11999487Y-17405776D01*
X-11998972Y-17404955D01*
X-11981515Y-17374573D01*
X-11981080Y-17373747D01*
X-11966328Y-17343050D01*
X-11966018Y-17342353D01*
X-11952878Y-17310193D01*
X-11952697Y-17309723D01*
X-11940073Y-17274952D01*
X-11939997Y-17274735D01*
X-11926794Y-17236202D01*
X-11926793Y-17236199D01*
X-11914797Y-17201168D01*
X-11607154Y-17195154D01*
X-11613168Y-17502797D01*
G37*
%TD.AperFunction*%
%TD*%
D24*
%TO.N,GND*%
X-11647052Y-17394271D02*
X-11681164Y-17429970D01*
X-11681641Y-17430498D01*
X-11715926Y-17470655D01*
X-11716481Y-17471354D01*
X-11743730Y-17508234D01*
X-11744313Y-17509094D01*
X-11765892Y-17543939D01*
X-11766420Y-17544879D01*
X-11783698Y-17578930D01*
X-11784100Y-17579802D01*
X-11798443Y-17614301D01*
X-11798691Y-17614948D01*
X-11811468Y-17651136D01*
X-11811583Y-17651477D01*
X-11824160Y-17690595D01*
X-11824175Y-17690639D01*
X-11837891Y-17733840D01*
X-11851302Y-17773955D01*
X-12192627Y-17780627D01*
X-12185955Y-17439302D01*
X-12145840Y-17425891D01*
X-12102639Y-17412175D01*
X-12102595Y-17412160D01*
X-12063477Y-17399583D01*
X-12063136Y-17399468D01*
X-12026948Y-17386691D01*
X-12026301Y-17386443D01*
X-11991802Y-17372100D01*
X-11990930Y-17371698D01*
X-11956879Y-17354420D01*
X-11955939Y-17353892D01*
X-11921094Y-17332313D01*
X-11920234Y-17331730D01*
X-11883354Y-17304481D01*
X-11882655Y-17303926D01*
X-11842498Y-17269641D01*
X-11841970Y-17269164D01*
X-11806271Y-17235052D01*
X-11647052Y-17394271D01*
%TA.AperFunction,Conductor*%
D23*
G36*
X-11647052Y-17394271D02*
G01*
X-11681164Y-17429970D01*
X-11681641Y-17430498D01*
X-11715926Y-17470655D01*
X-11716481Y-17471354D01*
X-11743730Y-17508234D01*
X-11744313Y-17509094D01*
X-11765892Y-17543939D01*
X-11766420Y-17544879D01*
X-11783698Y-17578930D01*
X-11784100Y-17579802D01*
X-11798443Y-17614301D01*
X-11798691Y-17614948D01*
X-11811468Y-17651136D01*
X-11811583Y-17651477D01*
X-11824160Y-17690595D01*
X-11824175Y-17690639D01*
X-11837891Y-17733840D01*
X-11851302Y-17773955D01*
X-12192627Y-17780627D01*
X-12185955Y-17439302D01*
X-12145840Y-17425891D01*
X-12102639Y-17412175D01*
X-12102595Y-17412160D01*
X-12063477Y-17399583D01*
X-12063136Y-17399468D01*
X-12026948Y-17386691D01*
X-12026301Y-17386443D01*
X-11991802Y-17372100D01*
X-11990930Y-17371698D01*
X-11956879Y-17354420D01*
X-11955939Y-17353892D01*
X-11921094Y-17332313D01*
X-11920234Y-17331730D01*
X-11883354Y-17304481D01*
X-11882655Y-17303926D01*
X-11842498Y-17269641D01*
X-11841970Y-17269164D01*
X-11806271Y-17235052D01*
X-11647052Y-17394271D01*
G37*
%TD.AperFunction*%
%TD*%
D24*
%TO.N,GND*%
X-9571322Y-19074000D02*
X-9976609Y-19463745D01*
X-10038750Y-19434022D01*
X-10038975Y-19433917D01*
X-10102140Y-19405205D01*
X-10102560Y-19405024D01*
X-10161345Y-19380819D01*
X-10161971Y-19380580D01*
X-10218911Y-19360581D01*
X-10219704Y-19360331D01*
X-10277334Y-19344236D01*
X-10278196Y-19344027D01*
X-10339053Y-19331534D01*
X-10339871Y-19331394D01*
X-10406488Y-19322202D01*
X-10407178Y-19322126D01*
X-10482093Y-19315934D01*
X-10482622Y-19315902D01*
X-10568369Y-19312408D01*
X-10568745Y-19312398D01*
X-10655300Y-19311440D01*
X-10655300Y-18836560D01*
X-10568745Y-18835601D01*
X-10568369Y-18835591D01*
X-10482622Y-18832097D01*
X-10482093Y-18832065D01*
X-10407178Y-18825873D01*
X-10406488Y-18825797D01*
X-10339871Y-18816605D01*
X-10339053Y-18816465D01*
X-10278196Y-18803972D01*
X-10277334Y-18803763D01*
X-10219704Y-18787668D01*
X-10218911Y-18787418D01*
X-10161971Y-18767419D01*
X-10161345Y-18767180D01*
X-10102560Y-18742975D01*
X-10102140Y-18742794D01*
X-10038975Y-18714082D01*
X-10038750Y-18713977D01*
X-9976609Y-18684254D01*
X-9571322Y-19074000D01*
%TA.AperFunction,Conductor*%
D23*
G36*
X-9571322Y-19074000D02*
G01*
X-9976609Y-19463745D01*
X-10038750Y-19434022D01*
X-10038975Y-19433917D01*
X-10102140Y-19405205D01*
X-10102560Y-19405024D01*
X-10161345Y-19380819D01*
X-10161971Y-19380580D01*
X-10218911Y-19360581D01*
X-10219704Y-19360331D01*
X-10277334Y-19344236D01*
X-10278196Y-19344027D01*
X-10339053Y-19331534D01*
X-10339871Y-19331394D01*
X-10406488Y-19322202D01*
X-10407178Y-19322126D01*
X-10482093Y-19315934D01*
X-10482622Y-19315902D01*
X-10568369Y-19312408D01*
X-10568745Y-19312398D01*
X-10655300Y-19311440D01*
X-10655300Y-18836560D01*
X-10568745Y-18835601D01*
X-10568369Y-18835591D01*
X-10482622Y-18832097D01*
X-10482093Y-18832065D01*
X-10407178Y-18825873D01*
X-10406488Y-18825797D01*
X-10339871Y-18816605D01*
X-10339053Y-18816465D01*
X-10278196Y-18803972D01*
X-10277334Y-18803763D01*
X-10219704Y-18787668D01*
X-10218911Y-18787418D01*
X-10161971Y-18767419D01*
X-10161345Y-18767180D01*
X-10102560Y-18742975D01*
X-10102140Y-18742794D01*
X-10038975Y-18714082D01*
X-10038750Y-18713977D01*
X-9976609Y-18684254D01*
X-9571322Y-19074000D01*
G37*
%TD.AperFunction*%
%TD*%
D24*
%TO.N,GND*%
X-9565266Y-18400251D02*
X-9581501Y-18433740D01*
X-9581502Y-18433743D01*
X-9599329Y-18470539D01*
X-9599427Y-18470746D01*
X-9615009Y-18504446D01*
X-9615210Y-18504904D01*
X-9628585Y-18537104D01*
X-9628855Y-18537812D01*
X-9640064Y-18570106D01*
X-9640335Y-18570991D01*
X-9649417Y-18604975D01*
X-9649630Y-18605912D01*
X-9656624Y-18643181D01*
X-9656755Y-18644043D01*
X-9661702Y-18686191D01*
X-9661766Y-18686905D01*
X-9664706Y-18735529D01*
X-9664727Y-18736078D01*
X-9665484Y-18780290D01*
X-9890518Y-18780290D01*
X-9891279Y-18736276D01*
X-9891301Y-18735721D01*
X-9894262Y-18687263D01*
X-9894327Y-18686541D01*
X-9899314Y-18644536D01*
X-9899448Y-18643662D01*
X-9906504Y-18606525D01*
X-9906723Y-18605576D01*
X-9915891Y-18571724D01*
X-9916170Y-18570826D01*
X-9927492Y-18538675D01*
X-9927770Y-18537955D01*
X-9941289Y-18505920D01*
X-9941498Y-18505452D01*
X-9957257Y-18471950D01*
X-9957361Y-18471735D01*
X-9975402Y-18435181D01*
X-9975406Y-18435173D01*
X-9991834Y-18401952D01*
X-9779432Y-18179314D01*
X-9565266Y-18400251D01*
%TA.AperFunction,Conductor*%
D23*
G36*
X-9565266Y-18400251D02*
G01*
X-9581501Y-18433740D01*
X-9581502Y-18433743D01*
X-9599329Y-18470539D01*
X-9599427Y-18470746D01*
X-9615009Y-18504446D01*
X-9615210Y-18504904D01*
X-9628585Y-18537104D01*
X-9628855Y-18537812D01*
X-9640064Y-18570106D01*
X-9640335Y-18570991D01*
X-9649417Y-18604975D01*
X-9649630Y-18605912D01*
X-9656624Y-18643181D01*
X-9656755Y-18644043D01*
X-9661702Y-18686191D01*
X-9661766Y-18686905D01*
X-9664706Y-18735529D01*
X-9664727Y-18736078D01*
X-9665484Y-18780290D01*
X-9890518Y-18780290D01*
X-9891279Y-18736276D01*
X-9891301Y-18735721D01*
X-9894262Y-18687263D01*
X-9894327Y-18686541D01*
X-9899314Y-18644536D01*
X-9899448Y-18643662D01*
X-9906504Y-18606525D01*
X-9906723Y-18605576D01*
X-9915891Y-18571724D01*
X-9916170Y-18570826D01*
X-9927492Y-18538675D01*
X-9927770Y-18537955D01*
X-9941289Y-18505920D01*
X-9941498Y-18505452D01*
X-9957257Y-18471950D01*
X-9957361Y-18471735D01*
X-9975402Y-18435181D01*
X-9975406Y-18435173D01*
X-9991834Y-18401952D01*
X-9779432Y-18179314D01*
X-9565266Y-18400251D01*
G37*
%TD.AperFunction*%
%TD*%
D24*
%TO.N,GND*%
X-9662366Y-18256718D02*
X-9638488Y-18309913D01*
X-9625784Y-18366170D01*
X-9622133Y-18423124D01*
X-9625354Y-18478251D01*
X-9633183Y-18528984D01*
X-9643310Y-18572797D01*
X-9653377Y-18607109D01*
X-9661067Y-18629522D01*
X-9664036Y-18637570D01*
X-9664594Y-18639576D01*
X-9778000Y-19231506D01*
X-9890351Y-18645082D01*
X-9890042Y-18644668D01*
X-9889737Y-18644243D01*
X-9880375Y-18630584D01*
X-9880044Y-18630074D01*
X-9867122Y-18609137D01*
X-9866738Y-18608471D01*
X-9852395Y-18581736D01*
X-9851956Y-18580835D01*
X-9838329Y-18549780D01*
X-9837856Y-18548524D01*
X-9827083Y-18514628D01*
X-9826653Y-18512836D01*
X-9820872Y-18477579D01*
X-9820714Y-18475037D01*
X-9822062Y-18439898D01*
X-9822645Y-18436553D01*
X-9833260Y-18403011D01*
X-9834240Y-18400723D01*
X-9835075Y-18399403D01*
X-9850757Y-18377707D01*
X-9691816Y-18218766D01*
X-9662366Y-18256718D01*
%TA.AperFunction,Conductor*%
D23*
G36*
X-9662366Y-18256718D02*
G01*
X-9638488Y-18309913D01*
X-9625784Y-18366170D01*
X-9622133Y-18423124D01*
X-9625354Y-18478251D01*
X-9633183Y-18528984D01*
X-9643310Y-18572797D01*
X-9653377Y-18607109D01*
X-9661067Y-18629522D01*
X-9664036Y-18637570D01*
X-9664594Y-18639576D01*
X-9778000Y-19231506D01*
X-9890351Y-18645082D01*
X-9890042Y-18644668D01*
X-9889737Y-18644243D01*
X-9880375Y-18630584D01*
X-9880044Y-18630074D01*
X-9867122Y-18609137D01*
X-9866738Y-18608471D01*
X-9852395Y-18581736D01*
X-9851956Y-18580835D01*
X-9838329Y-18549780D01*
X-9837856Y-18548524D01*
X-9827083Y-18514628D01*
X-9826653Y-18512836D01*
X-9820872Y-18477579D01*
X-9820714Y-18475037D01*
X-9822062Y-18439898D01*
X-9822645Y-18436553D01*
X-9833260Y-18403011D01*
X-9834240Y-18400723D01*
X-9835075Y-18399403D01*
X-9850757Y-18377707D01*
X-9691816Y-18218766D01*
X-9662366Y-18256718D01*
G37*
%TD.AperFunction*%
%TD*%
D24*
%TO.N,GND*%
X5005678Y-31750000D02*
X4757754Y-31988417D01*
X4754512Y-31987872D01*
X4753072Y-31987714D01*
X4733044Y-31986665D01*
X4732633Y-31986651D01*
X4703199Y-31986064D01*
X4703018Y-31986061D01*
X4665253Y-31985847D01*
X4665162Y-31985847D01*
X4620146Y-31985913D01*
X4620101Y-31985913D01*
X4568909Y-31986171D01*
X4568892Y-31986171D01*
X4512602Y-31986529D01*
X4452296Y-31986897D01*
X4389061Y-31987184D01*
X4336700Y-31987277D01*
X4336700Y-31512722D01*
X4389061Y-31512815D01*
X4452296Y-31513102D01*
X4512602Y-31513470D01*
X4568892Y-31513828D01*
X4568909Y-31513828D01*
X4620101Y-31514086D01*
X4620146Y-31514086D01*
X4665162Y-31514152D01*
X4665253Y-31514152D01*
X4703018Y-31513938D01*
X4703199Y-31513935D01*
X4732633Y-31513348D01*
X4733044Y-31513334D01*
X4753072Y-31512285D01*
X4754511Y-31512127D01*
X4757753Y-31511583D01*
X5005678Y-31750000D01*
%TA.AperFunction,Conductor*%
D23*
G36*
X5005678Y-31750000D02*
G01*
X4757754Y-31988417D01*
X4754512Y-31987872D01*
X4753072Y-31987714D01*
X4733044Y-31986665D01*
X4732633Y-31986651D01*
X4703199Y-31986064D01*
X4703018Y-31986061D01*
X4665253Y-31985847D01*
X4665162Y-31985847D01*
X4620146Y-31985913D01*
X4620101Y-31985913D01*
X4568909Y-31986171D01*
X4568892Y-31986171D01*
X4512602Y-31986529D01*
X4452296Y-31986897D01*
X4389061Y-31987184D01*
X4336700Y-31987277D01*
X4336700Y-31512722D01*
X4389061Y-31512815D01*
X4452296Y-31513102D01*
X4512602Y-31513470D01*
X4568892Y-31513828D01*
X4568909Y-31513828D01*
X4620101Y-31514086D01*
X4620146Y-31514086D01*
X4665162Y-31514152D01*
X4665253Y-31514152D01*
X4703018Y-31513938D01*
X4703199Y-31513935D01*
X4732633Y-31513348D01*
X4733044Y-31513334D01*
X4753072Y-31512285D01*
X4754511Y-31512127D01*
X4757753Y-31511583D01*
X5005678Y-31750000D01*
G37*
%TD.AperFunction*%
%TD*%
D24*
%TO.N,VBUS3*%
X4251420Y-37387153D02*
X4307659Y-37416789D01*
X4307807Y-37416866D01*
X4361098Y-37444060D01*
X4361659Y-37444329D01*
X4413646Y-37467725D01*
X4414673Y-37468135D01*
X4467089Y-37486429D01*
X4468572Y-37486847D01*
X4523151Y-37498733D01*
X4524949Y-37498992D01*
X4583425Y-37503163D01*
X4585287Y-37503159D01*
X4649393Y-37498311D01*
X4651073Y-37498070D01*
X4722544Y-37482896D01*
X4723915Y-37482524D01*
X4792986Y-37459545D01*
X4963907Y-37902655D01*
X4868954Y-37937178D01*
X4775549Y-37966906D01*
X4692953Y-37989727D01*
X4618429Y-38007877D01*
X4549193Y-38023598D01*
X4549124Y-38023614D01*
X4482730Y-38039077D01*
X4482378Y-38039164D01*
X4416240Y-38056576D01*
X4415658Y-38056745D01*
X4347132Y-38078328D01*
X4346433Y-38078570D01*
X4272874Y-38106543D01*
X4272173Y-38106834D01*
X4198764Y-38139894D01*
X3793322Y-37750000D01*
X4198462Y-37360396D01*
X4251420Y-37387153D01*
%TA.AperFunction,Conductor*%
D23*
G36*
X4251420Y-37387153D02*
G01*
X4307659Y-37416789D01*
X4307807Y-37416866D01*
X4361098Y-37444060D01*
X4361659Y-37444329D01*
X4413646Y-37467725D01*
X4414673Y-37468135D01*
X4467089Y-37486429D01*
X4468572Y-37486847D01*
X4523151Y-37498733D01*
X4524949Y-37498992D01*
X4583425Y-37503163D01*
X4585287Y-37503159D01*
X4649393Y-37498311D01*
X4651073Y-37498070D01*
X4722544Y-37482896D01*
X4723915Y-37482524D01*
X4792986Y-37459545D01*
X4963907Y-37902655D01*
X4868954Y-37937178D01*
X4775549Y-37966906D01*
X4692953Y-37989727D01*
X4618429Y-38007877D01*
X4549193Y-38023598D01*
X4549124Y-38023614D01*
X4482730Y-38039077D01*
X4482378Y-38039164D01*
X4416240Y-38056576D01*
X4415658Y-38056745D01*
X4347132Y-38078328D01*
X4346433Y-38078570D01*
X4272874Y-38106543D01*
X4272173Y-38106834D01*
X4198764Y-38139894D01*
X3793322Y-37750000D01*
X4198462Y-37360396D01*
X4251420Y-37387153D01*
G37*
%TD.AperFunction*%
%TD*%
D24*
%TO.N,VBUS3*%
X-9388347Y-22272513D02*
X-9417364Y-22331039D01*
X-9447742Y-22391402D01*
X-9447845Y-22391610D01*
X-9474956Y-22448023D01*
X-9475201Y-22448565D01*
X-9498420Y-22503314D01*
X-9498760Y-22504209D01*
X-9517462Y-22559581D01*
X-9517800Y-22560767D01*
X-9531361Y-22619046D01*
X-9531596Y-22620376D01*
X-9539393Y-22683849D01*
X-9539486Y-22685145D01*
X-9540892Y-22756097D01*
X-9540863Y-22757229D01*
X-9535255Y-22837947D01*
X-9535158Y-22838862D01*
X-9523653Y-22919430D01*
X-9991543Y-23000617D01*
X-10006948Y-22907794D01*
X-10020980Y-22816551D01*
X-10020979Y-22816551D01*
X-10032944Y-22736431D01*
X-10032958Y-22736340D01*
X-10044164Y-22664873D01*
X-10044212Y-22664590D01*
X-10055999Y-22599106D01*
X-10056096Y-22598622D01*
X-10069801Y-22536447D01*
X-10069960Y-22535806D01*
X-10086924Y-22474270D01*
X-10087140Y-22473566D01*
X-10108701Y-22409997D01*
X-10108948Y-22409331D01*
X-10136446Y-22341056D01*
X-10136687Y-22340497D01*
X-10167845Y-22272713D01*
X-9778000Y-21867322D01*
X-9388347Y-22272513D01*
%TA.AperFunction,Conductor*%
D23*
G36*
X-9388347Y-22272513D02*
G01*
X-9417364Y-22331039D01*
X-9447742Y-22391402D01*
X-9447845Y-22391610D01*
X-9474956Y-22448023D01*
X-9475201Y-22448565D01*
X-9498420Y-22503314D01*
X-9498760Y-22504209D01*
X-9517462Y-22559581D01*
X-9517800Y-22560767D01*
X-9531361Y-22619046D01*
X-9531596Y-22620376D01*
X-9539393Y-22683849D01*
X-9539486Y-22685145D01*
X-9540892Y-22756097D01*
X-9540863Y-22757229D01*
X-9535255Y-22837947D01*
X-9535158Y-22838862D01*
X-9523653Y-22919430D01*
X-9991543Y-23000617D01*
X-10006948Y-22907794D01*
X-10020980Y-22816551D01*
X-10020979Y-22816551D01*
X-10032944Y-22736431D01*
X-10032958Y-22736340D01*
X-10044164Y-22664873D01*
X-10044212Y-22664590D01*
X-10055999Y-22599106D01*
X-10056096Y-22598622D01*
X-10069801Y-22536447D01*
X-10069960Y-22535806D01*
X-10086924Y-22474270D01*
X-10087140Y-22473566D01*
X-10108701Y-22409997D01*
X-10108948Y-22409331D01*
X-10136446Y-22341056D01*
X-10136687Y-22340497D01*
X-10167845Y-22272713D01*
X-9778000Y-21867322D01*
X-9388347Y-22272513D01*
G37*
%TD.AperFunction*%
%TD*%
D24*
%TO.N,VBUS2*%
X2302709Y-38066884D02*
X2256163Y-38122227D01*
X2254853Y-38124105D01*
X2219150Y-38186647D01*
X2218286Y-38188488D01*
X2194592Y-38251736D01*
X2194174Y-38253073D01*
X2177884Y-38317392D01*
X2177754Y-38317958D01*
X2164293Y-38383572D01*
X2149132Y-38450544D01*
X2127816Y-38519034D01*
X2095801Y-38589754D01*
X2048481Y-38663350D01*
X1989476Y-38730867D01*
X1653771Y-38395162D01*
X1685962Y-38356935D01*
X1687436Y-38354766D01*
X1712058Y-38308937D01*
X1713169Y-38306093D01*
X1724713Y-38261269D01*
X1725113Y-38258236D01*
X1725578Y-38214101D01*
X1725340Y-38211514D01*
X1716726Y-38167757D01*
X1716217Y-38165917D01*
X1700523Y-38122226D01*
X1700053Y-38121091D01*
X1679280Y-38077152D01*
X1678991Y-38076580D01*
X1655139Y-38032080D01*
X1655076Y-38031964D01*
X1630230Y-37986751D01*
X1610452Y-37948404D01*
X1997523Y-37545898D01*
X2302709Y-38066884D01*
%TA.AperFunction,Conductor*%
D23*
G36*
X2302709Y-38066884D02*
G01*
X2256163Y-38122227D01*
X2254853Y-38124105D01*
X2219150Y-38186647D01*
X2218286Y-38188488D01*
X2194592Y-38251736D01*
X2194174Y-38253073D01*
X2177884Y-38317392D01*
X2177754Y-38317958D01*
X2164293Y-38383572D01*
X2149132Y-38450544D01*
X2127816Y-38519034D01*
X2095801Y-38589754D01*
X2048481Y-38663350D01*
X1989476Y-38730867D01*
X1653771Y-38395162D01*
X1685962Y-38356935D01*
X1687436Y-38354766D01*
X1712058Y-38308937D01*
X1713169Y-38306093D01*
X1724713Y-38261269D01*
X1725113Y-38258236D01*
X1725578Y-38214101D01*
X1725340Y-38211514D01*
X1716726Y-38167757D01*
X1716217Y-38165917D01*
X1700523Y-38122226D01*
X1700053Y-38121091D01*
X1679280Y-38077152D01*
X1678991Y-38076580D01*
X1655139Y-38032080D01*
X1655076Y-38031964D01*
X1630230Y-37986751D01*
X1610452Y-37948404D01*
X1997523Y-37545898D01*
X2302709Y-38066884D01*
G37*
%TD.AperFunction*%
%TD*%
D24*
%TO.N,VBUS2*%
X-1455180Y-28311892D02*
X-1478887Y-28362952D01*
X-1479105Y-28363448D01*
X-1501559Y-28417761D01*
X-1501813Y-28418429D01*
X-1519830Y-28470064D01*
X-1520081Y-28470867D01*
X-1534142Y-28521780D01*
X-1534346Y-28522635D01*
X-1544928Y-28574782D01*
X-1545064Y-28575584D01*
X-1552648Y-28630921D01*
X-1552722Y-28631585D01*
X-1557787Y-28692066D01*
X-1557818Y-28692558D01*
X-1560842Y-28760141D01*
X-1560853Y-28760467D01*
X-1562316Y-28837106D01*
X-1562318Y-28837293D01*
X-1562645Y-28912300D01*
X-2037355Y-28912300D01*
X-2037681Y-28837293D01*
X-2037683Y-28837106D01*
X-2039146Y-28760467D01*
X-2039157Y-28760141D01*
X-2042181Y-28692558D01*
X-2042212Y-28692066D01*
X-2047277Y-28631585D01*
X-2047351Y-28630921D01*
X-2054935Y-28575584D01*
X-2055071Y-28574782D01*
X-2065653Y-28522635D01*
X-2065857Y-28521780D01*
X-2079918Y-28470867D01*
X-2080169Y-28470064D01*
X-2098186Y-28418429D01*
X-2098440Y-28417761D01*
X-2120894Y-28363448D01*
X-2121112Y-28362952D01*
X-2144820Y-28311892D01*
X-1800000Y-27953322D01*
X-1455180Y-28311892D01*
%TA.AperFunction,Conductor*%
D23*
G36*
X-1455180Y-28311892D02*
G01*
X-1478887Y-28362952D01*
X-1479105Y-28363448D01*
X-1501559Y-28417761D01*
X-1501813Y-28418429D01*
X-1519830Y-28470064D01*
X-1520081Y-28470867D01*
X-1534142Y-28521780D01*
X-1534346Y-28522635D01*
X-1544928Y-28574782D01*
X-1545064Y-28575584D01*
X-1552648Y-28630921D01*
X-1552722Y-28631585D01*
X-1557787Y-28692066D01*
X-1557818Y-28692558D01*
X-1560842Y-28760141D01*
X-1560853Y-28760467D01*
X-1562316Y-28837106D01*
X-1562318Y-28837293D01*
X-1562645Y-28912300D01*
X-2037355Y-28912300D01*
X-2037681Y-28837293D01*
X-2037683Y-28837106D01*
X-2039146Y-28760467D01*
X-2039157Y-28760141D01*
X-2042181Y-28692558D01*
X-2042212Y-28692066D01*
X-2047277Y-28631585D01*
X-2047351Y-28630921D01*
X-2054935Y-28575584D01*
X-2055071Y-28574782D01*
X-2065653Y-28522635D01*
X-2065857Y-28521780D01*
X-2079918Y-28470867D01*
X-2080169Y-28470064D01*
X-2098186Y-28418429D01*
X-2098440Y-28417761D01*
X-2120894Y-28363448D01*
X-2121112Y-28362952D01*
X-2144820Y-28311892D01*
X-1800000Y-27953322D01*
X-1455180Y-28311892D01*
G37*
%TD.AperFunction*%
%TD*%
D24*
%TO.N,VBUS2*%
X1844236Y-27291636D02*
X1888315Y-27363043D01*
X1918332Y-27431555D01*
X1938431Y-27497754D01*
X1952652Y-27562154D01*
X1965009Y-27624968D01*
X1965114Y-27625453D01*
X1979645Y-27686613D01*
X1980009Y-27687859D01*
X2000808Y-27747503D01*
X2001597Y-27749304D01*
X2032788Y-27807711D01*
X2034052Y-27809634D01*
X2074294Y-27860221D01*
X1803786Y-28314556D01*
X1449807Y-27969484D01*
X1465075Y-27935804D01*
X1465107Y-27935731D01*
X1483483Y-27894514D01*
X1483671Y-27894071D01*
X1500062Y-27853203D01*
X1500374Y-27852334D01*
X1513371Y-27811586D01*
X1513724Y-27810224D01*
X1521916Y-27769364D01*
X1522149Y-27767475D01*
X1524124Y-27726274D01*
X1524024Y-27723963D01*
X1518372Y-27682190D01*
X1517793Y-27679751D01*
X1503104Y-27637176D01*
X1502101Y-27634975D01*
X1476964Y-27591368D01*
X1475760Y-27589632D01*
X1446287Y-27553885D01*
X1790016Y-27226618D01*
X1844236Y-27291636D01*
%TA.AperFunction,Conductor*%
D23*
G36*
X1844236Y-27291636D02*
G01*
X1888315Y-27363043D01*
X1918332Y-27431555D01*
X1938431Y-27497754D01*
X1952652Y-27562154D01*
X1965009Y-27624968D01*
X1965114Y-27625453D01*
X1979645Y-27686613D01*
X1980009Y-27687859D01*
X2000808Y-27747503D01*
X2001597Y-27749304D01*
X2032788Y-27807711D01*
X2034052Y-27809634D01*
X2074294Y-27860221D01*
X1803786Y-28314556D01*
X1449807Y-27969484D01*
X1465075Y-27935804D01*
X1465107Y-27935731D01*
X1483483Y-27894514D01*
X1483671Y-27894071D01*
X1500062Y-27853203D01*
X1500374Y-27852334D01*
X1513371Y-27811586D01*
X1513724Y-27810224D01*
X1521916Y-27769364D01*
X1522149Y-27767475D01*
X1524124Y-27726274D01*
X1524024Y-27723963D01*
X1518372Y-27682190D01*
X1517793Y-27679751D01*
X1503104Y-27637176D01*
X1502101Y-27634975D01*
X1476964Y-27591368D01*
X1475760Y-27589632D01*
X1446287Y-27553885D01*
X1790016Y-27226618D01*
X1844236Y-27291636D01*
G37*
%TD.AperFunction*%
%TD*%
D24*
%TO.N,VBUS2*%
X-1446287Y-27553885D02*
X-1475760Y-27589632D01*
X-1476964Y-27591368D01*
X-1502101Y-27634975D01*
X-1503104Y-27637176D01*
X-1517793Y-27679751D01*
X-1518372Y-27682190D01*
X-1524024Y-27723963D01*
X-1524124Y-27726274D01*
X-1522149Y-27767475D01*
X-1521916Y-27769364D01*
X-1513724Y-27810224D01*
X-1513371Y-27811586D01*
X-1500374Y-27852334D01*
X-1500062Y-27853203D01*
X-1483671Y-27894071D01*
X-1483483Y-27894514D01*
X-1465107Y-27935731D01*
X-1465075Y-27935804D01*
X-1449807Y-27969484D01*
X-1803786Y-28314556D01*
X-2074294Y-27860221D01*
X-2034052Y-27809634D01*
X-2032788Y-27807711D01*
X-2001597Y-27749304D01*
X-2000808Y-27747503D01*
X-1980009Y-27687859D01*
X-1979645Y-27686613D01*
X-1965114Y-27625453D01*
X-1965009Y-27624968D01*
X-1952652Y-27562154D01*
X-1938431Y-27497754D01*
X-1918332Y-27431555D01*
X-1888315Y-27363043D01*
X-1844236Y-27291636D01*
X-1790016Y-27226618D01*
X-1446287Y-27553885D01*
%TA.AperFunction,Conductor*%
D23*
G36*
X-1446287Y-27553885D02*
G01*
X-1475760Y-27589632D01*
X-1476964Y-27591368D01*
X-1502101Y-27634975D01*
X-1503104Y-27637176D01*
X-1517793Y-27679751D01*
X-1518372Y-27682190D01*
X-1524024Y-27723963D01*
X-1524124Y-27726274D01*
X-1522149Y-27767475D01*
X-1521916Y-27769364D01*
X-1513724Y-27810224D01*
X-1513371Y-27811586D01*
X-1500374Y-27852334D01*
X-1500062Y-27853203D01*
X-1483671Y-27894071D01*
X-1483483Y-27894514D01*
X-1465107Y-27935731D01*
X-1465075Y-27935804D01*
X-1449807Y-27969484D01*
X-1803786Y-28314556D01*
X-2074294Y-27860221D01*
X-2034052Y-27809634D01*
X-2032788Y-27807711D01*
X-2001597Y-27749304D01*
X-2000808Y-27747503D01*
X-1980009Y-27687859D01*
X-1979645Y-27686613D01*
X-1965114Y-27625453D01*
X-1965009Y-27624968D01*
X-1952652Y-27562154D01*
X-1938431Y-27497754D01*
X-1918332Y-27431555D01*
X-1888315Y-27363043D01*
X-1844236Y-27291636D01*
X-1790016Y-27226618D01*
X-1446287Y-27553885D01*
G37*
%TD.AperFunction*%
%TD*%
D24*
%TO.N,VBUS1*%
X-1446283Y-34553882D02*
X-1475756Y-34589630D01*
X-1476960Y-34591367D01*
X-1502097Y-34634975D01*
X-1503100Y-34637175D01*
X-1517789Y-34679750D01*
X-1518368Y-34682189D01*
X-1524020Y-34723962D01*
X-1524120Y-34726273D01*
X-1522145Y-34767475D01*
X-1521912Y-34769363D01*
X-1513722Y-34810222D01*
X-1513370Y-34811585D01*
X-1500374Y-34852334D01*
X-1500061Y-34853203D01*
X-1483670Y-34894070D01*
X-1483482Y-34894513D01*
X-1465106Y-34935730D01*
X-1465074Y-34935803D01*
X-1449806Y-34969484D01*
X-1803786Y-35314556D01*
X-2074300Y-34860227D01*
X-2034058Y-34809639D01*
X-2032794Y-34807715D01*
X-2001604Y-34749307D01*
X-2000815Y-34747507D01*
X-1980015Y-34687863D01*
X-1979651Y-34686617D01*
X-1965119Y-34625458D01*
X-1965014Y-34624974D01*
X-1952656Y-34562160D01*
X-1938433Y-34497757D01*
X-1918335Y-34431561D01*
X-1888317Y-34363049D01*
X-1844239Y-34291642D01*
X-1790019Y-34226622D01*
X-1446283Y-34553882D01*
%TA.AperFunction,Conductor*%
D23*
G36*
X-1446283Y-34553882D02*
G01*
X-1475756Y-34589630D01*
X-1476960Y-34591367D01*
X-1502097Y-34634975D01*
X-1503100Y-34637175D01*
X-1517789Y-34679750D01*
X-1518368Y-34682189D01*
X-1524020Y-34723962D01*
X-1524120Y-34726273D01*
X-1522145Y-34767475D01*
X-1521912Y-34769363D01*
X-1513722Y-34810222D01*
X-1513370Y-34811585D01*
X-1500374Y-34852334D01*
X-1500061Y-34853203D01*
X-1483670Y-34894070D01*
X-1483482Y-34894513D01*
X-1465106Y-34935730D01*
X-1465074Y-34935803D01*
X-1449806Y-34969484D01*
X-1803786Y-35314556D01*
X-2074300Y-34860227D01*
X-2034058Y-34809639D01*
X-2032794Y-34807715D01*
X-2001604Y-34749307D01*
X-2000815Y-34747507D01*
X-1980015Y-34687863D01*
X-1979651Y-34686617D01*
X-1965119Y-34625458D01*
X-1965014Y-34624974D01*
X-1952656Y-34562160D01*
X-1938433Y-34497757D01*
X-1918335Y-34431561D01*
X-1888317Y-34363049D01*
X-1844239Y-34291642D01*
X-1790019Y-34226622D01*
X-1446283Y-34553882D01*
G37*
%TD.AperFunction*%
%TD*%
D24*
%TO.N,VBUS1*%
X1844236Y-34291636D02*
X1888315Y-34363043D01*
X1918332Y-34431555D01*
X1938431Y-34497754D01*
X1952652Y-34562154D01*
X1965009Y-34624968D01*
X1965114Y-34625453D01*
X1979645Y-34686613D01*
X1980009Y-34687859D01*
X2000808Y-34747503D01*
X2001597Y-34749304D01*
X2032788Y-34807711D01*
X2034052Y-34809634D01*
X2074294Y-34860221D01*
X1803786Y-35314556D01*
X1449807Y-34969484D01*
X1465075Y-34935804D01*
X1465107Y-34935731D01*
X1483483Y-34894514D01*
X1483671Y-34894071D01*
X1500062Y-34853203D01*
X1500374Y-34852334D01*
X1513371Y-34811586D01*
X1513724Y-34810224D01*
X1521916Y-34769364D01*
X1522149Y-34767475D01*
X1524124Y-34726274D01*
X1524024Y-34723963D01*
X1518372Y-34682190D01*
X1517793Y-34679751D01*
X1503104Y-34637176D01*
X1502101Y-34634975D01*
X1476964Y-34591368D01*
X1475760Y-34589632D01*
X1446287Y-34553885D01*
X1790016Y-34226618D01*
X1844236Y-34291636D01*
%TA.AperFunction,Conductor*%
D23*
G36*
X1844236Y-34291636D02*
G01*
X1888315Y-34363043D01*
X1918332Y-34431555D01*
X1938431Y-34497754D01*
X1952652Y-34562154D01*
X1965009Y-34624968D01*
X1965114Y-34625453D01*
X1979645Y-34686613D01*
X1980009Y-34687859D01*
X2000808Y-34747503D01*
X2001597Y-34749304D01*
X2032788Y-34807711D01*
X2034052Y-34809634D01*
X2074294Y-34860221D01*
X1803786Y-35314556D01*
X1449807Y-34969484D01*
X1465075Y-34935804D01*
X1465107Y-34935731D01*
X1483483Y-34894514D01*
X1483671Y-34894071D01*
X1500062Y-34853203D01*
X1500374Y-34852334D01*
X1513371Y-34811586D01*
X1513724Y-34810224D01*
X1521916Y-34769364D01*
X1522149Y-34767475D01*
X1524124Y-34726274D01*
X1524024Y-34723963D01*
X1518372Y-34682190D01*
X1517793Y-34679751D01*
X1503104Y-34637176D01*
X1502101Y-34634975D01*
X1476964Y-34591368D01*
X1475760Y-34589632D01*
X1446287Y-34553885D01*
X1790016Y-34226618D01*
X1844236Y-34291636D01*
G37*
%TD.AperFunction*%
%TD*%
D24*
%TO.N,VBUS1*%
X205950Y-37762125D02*
X-241756Y-38114815D01*
X-313177Y-38072405D01*
X-313836Y-38072040D01*
X-386004Y-38034789D01*
X-386623Y-38034490D01*
X-454332Y-38004063D01*
X-454795Y-38003866D01*
X-520335Y-37977481D01*
X-520539Y-37977401D01*
X-586108Y-37952308D01*
X-654017Y-37925717D01*
X-726366Y-37894930D01*
X-805609Y-37857120D01*
X-894103Y-37809477D01*
X-983337Y-37755732D01*
X-729271Y-37354508D01*
X-671782Y-37387204D01*
X-670497Y-37387842D01*
X-608180Y-37414496D01*
X-606552Y-37415065D01*
X-548781Y-37430947D01*
X-546892Y-37431315D01*
X-492512Y-37437681D01*
X-490575Y-37437759D01*
X-438430Y-37435868D01*
X-436711Y-37435688D01*
X-385648Y-37426797D01*
X-384333Y-37426495D01*
X-333196Y-37411862D01*
X-332335Y-37411582D01*
X-279969Y-37392464D01*
X-279525Y-37392292D01*
X-224777Y-37369947D01*
X-224687Y-37369910D01*
X-174607Y-37349020D01*
X205950Y-37762125D01*
%TA.AperFunction,Conductor*%
D23*
G36*
X205950Y-37762125D02*
G01*
X-241756Y-38114815D01*
X-313177Y-38072405D01*
X-313836Y-38072040D01*
X-386004Y-38034789D01*
X-386623Y-38034490D01*
X-454332Y-38004063D01*
X-454795Y-38003866D01*
X-520335Y-37977481D01*
X-520539Y-37977401D01*
X-586108Y-37952308D01*
X-654017Y-37925717D01*
X-726366Y-37894930D01*
X-805609Y-37857120D01*
X-894103Y-37809477D01*
X-983337Y-37755732D01*
X-729271Y-37354508D01*
X-671782Y-37387204D01*
X-670497Y-37387842D01*
X-608180Y-37414496D01*
X-606552Y-37415065D01*
X-548781Y-37430947D01*
X-546892Y-37431315D01*
X-492512Y-37437681D01*
X-490575Y-37437759D01*
X-438430Y-37435868D01*
X-436711Y-37435688D01*
X-385648Y-37426797D01*
X-384333Y-37426495D01*
X-333196Y-37411862D01*
X-332335Y-37411582D01*
X-279969Y-37392464D01*
X-279525Y-37392292D01*
X-224777Y-37369947D01*
X-224687Y-37369910D01*
X-174607Y-37349020D01*
X205950Y-37762125D01*
G37*
%TD.AperFunction*%
%TD*%
D24*
%TO.N,VBUS1*%
X-1455180Y-35311892D02*
X-1478887Y-35362952D01*
X-1479105Y-35363448D01*
X-1501559Y-35417761D01*
X-1501813Y-35418429D01*
X-1519830Y-35470064D01*
X-1520081Y-35470867D01*
X-1534142Y-35521780D01*
X-1534346Y-35522635D01*
X-1544928Y-35574782D01*
X-1545064Y-35575584D01*
X-1552648Y-35630921D01*
X-1552722Y-35631585D01*
X-1557787Y-35692066D01*
X-1557818Y-35692558D01*
X-1560842Y-35760141D01*
X-1560853Y-35760467D01*
X-1562316Y-35837106D01*
X-1562318Y-35837293D01*
X-1562645Y-35912300D01*
X-2037355Y-35912300D01*
X-2037681Y-35837293D01*
X-2037683Y-35837106D01*
X-2039146Y-35760467D01*
X-2039157Y-35760141D01*
X-2042181Y-35692558D01*
X-2042212Y-35692066D01*
X-2047277Y-35631585D01*
X-2047351Y-35630921D01*
X-2054935Y-35575584D01*
X-2055071Y-35574782D01*
X-2065653Y-35522635D01*
X-2065857Y-35521780D01*
X-2079918Y-35470867D01*
X-2080169Y-35470064D01*
X-2098186Y-35418429D01*
X-2098440Y-35417761D01*
X-2120894Y-35363448D01*
X-2121112Y-35362952D01*
X-2144820Y-35311892D01*
X-1800000Y-34953322D01*
X-1455180Y-35311892D01*
%TA.AperFunction,Conductor*%
D23*
G36*
X-1455180Y-35311892D02*
G01*
X-1478887Y-35362952D01*
X-1479105Y-35363448D01*
X-1501559Y-35417761D01*
X-1501813Y-35418429D01*
X-1519830Y-35470064D01*
X-1520081Y-35470867D01*
X-1534142Y-35521780D01*
X-1534346Y-35522635D01*
X-1544928Y-35574782D01*
X-1545064Y-35575584D01*
X-1552648Y-35630921D01*
X-1552722Y-35631585D01*
X-1557787Y-35692066D01*
X-1557818Y-35692558D01*
X-1560842Y-35760141D01*
X-1560853Y-35760467D01*
X-1562316Y-35837106D01*
X-1562318Y-35837293D01*
X-1562645Y-35912300D01*
X-2037355Y-35912300D01*
X-2037681Y-35837293D01*
X-2037683Y-35837106D01*
X-2039146Y-35760467D01*
X-2039157Y-35760141D01*
X-2042181Y-35692558D01*
X-2042212Y-35692066D01*
X-2047277Y-35631585D01*
X-2047351Y-35630921D01*
X-2054935Y-35575584D01*
X-2055071Y-35574782D01*
X-2065653Y-35522635D01*
X-2065857Y-35521780D01*
X-2079918Y-35470867D01*
X-2080169Y-35470064D01*
X-2098186Y-35418429D01*
X-2098440Y-35417761D01*
X-2120894Y-35363448D01*
X-2121112Y-35362952D01*
X-2144820Y-35311892D01*
X-1800000Y-34953322D01*
X-1455180Y-35311892D01*
G37*
%TD.AperFunction*%
%TD*%
M02*
