%TF.GenerationSoftware,KiCad,Pcbnew,(5.1.10-1-10_14)*%
%TF.CreationDate,2021-10-20T22:44:44+08:00*%
%TF.ProjectId,led-ring,6c65642d-7269-46e6-972e-6b696361645f,rev?*%
%TF.SameCoordinates,Original*%
%TF.FileFunction,Legend,Top*%
%TF.FilePolarity,Positive*%
%FSLAX46Y46*%
G04 Gerber Fmt 4.6, Leading zero omitted, Abs format (unit mm)*
G04 Created by KiCad (PCBNEW (5.1.10-1-10_14)) date 2021-10-20 22:44:44*
%MOMM*%
%LPD*%
G01*
G04 APERTURE LIST*
%ADD10C,0.150000*%
%ADD11C,0.120000*%
G04 APERTURE END LIST*
D10*
X-6250000Y-45000000D02*
G75*
G02*
X-9000000Y-42250000I0J2750000D01*
G01*
X9000000Y-42250000D02*
G75*
G02*
X6250000Y-45000000I-2750000J0D01*
G01*
X6250000Y-24000000D02*
G75*
G02*
X9000000Y-26750000I0J-2750000D01*
G01*
X-9000000Y-26750000D02*
G75*
G02*
X-6250000Y-24000000I2750000J0D01*
G01*
X-6250000Y-24000000D02*
X6250000Y-24000000D01*
X9000000Y-26750000D02*
X9000000Y-42250000D01*
X-6250000Y-45000000D02*
X6250000Y-45000000D01*
X-9000000Y-26750000D02*
X-9000000Y-42250000D01*
D11*
%TO.C,D9*%
X3082500Y-33146000D02*
X3082500Y-29846000D01*
X3082500Y-29846000D02*
X-2317500Y-29846000D01*
X3082500Y-33146000D02*
X-2317500Y-33146000D01*
%TO.C,SW1*%
X-5000000Y-42300000D02*
X5000000Y-42300000D01*
X-5000000Y-38700000D02*
X5000000Y-38700000D01*
%TO.C,U3*%
X-9188000Y-22934000D02*
X-9188000Y-22704000D01*
X-9188000Y-18214000D02*
X-9188000Y-18444000D01*
X-9188000Y-18214000D02*
X-6468000Y-18214000D01*
X-6468000Y-18214000D02*
X-6468000Y-19524000D01*
X-10328000Y-18444000D02*
X-9188000Y-18444000D01*
X-6468000Y-22934000D02*
X-9188000Y-22934000D01*
X-6468000Y-21624000D02*
X-6468000Y-22934000D01*
%TO.C,D8*%
X1600000Y-18800000D02*
X-1600000Y-18800000D01*
X-1600000Y-22400000D02*
X-1600000Y-18800000D01*
X1600000Y-22400000D02*
X1600000Y-18800000D01*
%TO.C,D7*%
X-12162236Y-14424978D02*
X-14424978Y-12162236D01*
X-16970562Y-14707821D02*
X-14424978Y-12162236D01*
X-14707821Y-16970562D02*
X-12162236Y-14424978D01*
%TO.C,D6*%
X-18800000Y-1600000D02*
X-18800000Y1600000D01*
X-22400000Y1600000D02*
X-18800000Y1600000D01*
X-22400000Y-1600000D02*
X-18800000Y-1600000D01*
%TO.C,D5*%
X-14424978Y12162236D02*
X-12162236Y14424978D01*
X-14707821Y16970562D02*
X-12162236Y14424978D01*
X-16970562Y14707821D02*
X-14424978Y12162236D01*
%TO.C,D4*%
X-1600000Y18800000D02*
X1600000Y18800000D01*
X1600000Y22400000D02*
X1600000Y18800000D01*
X-1600000Y22400000D02*
X-1600000Y18800000D01*
%TO.C,D3*%
X12162236Y14424978D02*
X14424978Y12162236D01*
X16970562Y14707821D02*
X14424978Y12162236D01*
X14707821Y16970562D02*
X12162236Y14424978D01*
%TO.C,D2*%
X18800000Y1600000D02*
X18800000Y-1600000D01*
X22400000Y-1600000D02*
X18800000Y-1600000D01*
X22400000Y1600000D02*
X18800000Y1600000D01*
%TO.C,D1*%
X14424978Y-12162236D02*
X12162236Y-14424978D01*
X14707821Y-16970562D02*
X12162236Y-14424978D01*
X16970562Y-14707821D02*
X14424978Y-12162236D01*
%TO.C,C2*%
X-12267693Y-18364810D02*
X-12115190Y-18212307D01*
X-12776810Y-17855693D02*
X-12624307Y-17703190D01*
%TO.C,C1*%
X5471836Y-31390000D02*
X5256164Y-31390000D01*
X5471836Y-32110000D02*
X5256164Y-32110000D01*
%TD*%
M02*
